<svg width="72" height="71" viewBox="0 0 72 71" fill="none" xmlns="http://www.w3.org/2000/svg">
<g filter="url(#filter0_ddi_459_3126)">
<rect x="5" y="2.25488" width="62" height="59.016" rx="15" fill="#5CC637"/>
<path d="M29.606 24.563V26.4903H47.9549V30.3053L45.8122 37.0901H28.9983L26.584 19.7426H20.9144V21.6698H24.9022L27.3165 39.0174H47.2287L49.8864 30.6018V24.563H29.606Z" fill="white"/>
<path d="M30.6312 40.963C29.607 40.9642 28.6251 41.3706 27.9009 42.0932C27.1767 42.8158 26.7694 43.7956 26.7682 44.8175C26.7682 45.8398 27.1752 46.8202 27.8996 47.543C28.6241 48.2659 29.6066 48.672 30.6312 48.672C31.6557 48.672 32.6382 48.2659 33.3627 47.543C34.0871 46.8202 34.4941 45.8398 34.4941 44.8175C34.4929 43.7956 34.0856 42.8158 33.3614 42.0932C32.6372 41.3706 31.6553 40.9641 30.6312 40.963ZM30.6312 46.7447C30.2491 46.7447 29.8757 46.6317 29.5581 46.4199C29.2405 46.2082 28.9929 45.9072 28.8467 45.555C28.7005 45.2029 28.6623 44.8154 28.7368 44.4415C28.8113 44.0677 28.9953 43.7243 29.2654 43.4547C29.5355 43.1852 29.8797 43.0016 30.2543 42.9273C30.629 42.8529 31.0174 42.8911 31.3703 43.0369C31.7232 43.1828 32.0249 43.4298 32.2371 43.7468C32.4493 44.0637 32.5626 44.4363 32.5626 44.8175C32.562 45.3284 32.3583 45.8183 31.9962 46.1796C31.6341 46.5409 31.1432 46.7441 30.6312 46.7447Z" fill="white"/>
<path d="M44.1514 40.963C43.1272 40.9642 42.1454 41.3706 41.4212 42.0932C40.697 42.8158 40.2896 43.7956 40.2885 44.8175C40.2885 45.8398 40.6955 46.8202 41.4199 47.543C42.1443 48.2659 43.1269 48.672 44.1514 48.672C45.1759 48.672 46.1585 48.2659 46.8829 47.543C47.6073 46.8202 48.0143 45.8398 48.0143 44.8175C48.0132 43.7956 47.6058 42.8158 46.8816 42.0932C46.1574 41.3706 45.1756 40.9641 44.1514 40.963ZM44.1514 46.7447C43.7694 46.7447 43.396 46.6317 43.0783 46.4199C42.7607 46.2082 42.5131 45.9072 42.367 45.555C42.2208 45.2029 42.1825 44.8154 42.257 44.4415C42.3316 44.0677 42.5155 43.7243 42.7856 43.4547C43.0558 43.1852 43.3999 43.0016 43.7746 42.9273C44.1493 42.8529 44.5376 42.8911 44.8905 43.0369C45.2435 43.1828 45.5451 43.4298 45.7574 43.7468C45.9696 44.0637 46.0829 44.4363 46.0829 44.8175C46.0823 45.3284 45.8786 45.8183 45.5165 46.1796C45.1544 46.5409 44.6635 46.7441 44.1514 46.7447Z" fill="white"/>
</g>
<defs>
<filter id="filter0_ddi_459_3126" x="0" y="0.254883" width="72" height="70.0161" filterUnits="userSpaceOnUse" color-interpolation-filters="sRGB">
<feFlood flood-opacity="0" result="BackgroundImageFix"/>
<feColorMatrix in="SourceAlpha" type="matrix" values="0 0 0 0 0 0 0 0 0 0 0 0 0 0 0 0 0 0 127 0" result="hardAlpha"/>
<feMorphology radius="1" operator="erode" in="SourceAlpha" result="effect1_dropShadow_459_3126"/>
<feOffset dy="4"/>
<feGaussianBlur stdDeviation="3"/>
<feColorMatrix type="matrix" values="0 0 0 0 0.0235294 0 0 0 0 0.0941176 0 0 0 0 0.172549 0 0 0 0.65 0"/>
<feBlend mode="normal" in2="BackgroundImageFix" result="effect1_dropShadow_459_3126"/>
<feColorMatrix in="SourceAlpha" type="matrix" values="0 0 0 0 0 0 0 0 0 0 0 0 0 0 0 0 0 0 127 0" result="hardAlpha"/>
<feMorphology radius="2" operator="dilate" in="SourceAlpha" result="effect2_dropShadow_459_3126"/>
<feOffset/>
<feColorMatrix type="matrix" values="0 0 0 0 0.0235294 0 0 0 0 0.0941176 0 0 0 0 0.172549 0 0 0 0.4 0"/>
<feBlend mode="normal" in2="effect1_dropShadow_459_3126" result="effect2_dropShadow_459_3126"/>
<feBlend mode="normal" in="SourceGraphic" in2="effect2_dropShadow_459_3126" result="shape"/>
<feColorMatrix in="SourceAlpha" type="matrix" values="0 0 0 0 0 0 0 0 0 0 0 0 0 0 0 0 0 0 127 0" result="hardAlpha"/>
<feOffset dy="1"/>
<feComposite in2="hardAlpha" operator="arithmetic" k2="-1" k3="1"/>
<feColorMatrix type="matrix" values="0 0 0 0 1 0 0 0 0 1 0 0 0 0 1 0 0 0 0.08 0"/>
<feBlend mode="normal" in2="shape" result="effect3_innerShadow_459_3126"/>
</filter>
</defs>
</svg>
