<svg width="163" height="163" viewBox="0 0 163 163" fill="none" xmlns="http://www.w3.org/2000/svg">
<path d="M48.9 27.1604V38.0193H152.133V59.5148L140.078 97.7432H45.4811L31.8977 0H0V10.8589H22.4356L36.0189 108.602H148.047L163 61.1851V27.1604H48.9Z" fill="#C39DF2"/>
<path d="M54.6675 119.564C48.9055 119.571 43.3813 121.861 39.3069 125.933C35.2326 130.004 32.9407 135.524 32.9342 141.282C32.9342 147.042 35.2239 152.566 39.2997 156.639C43.3755 160.712 48.9034 163 54.6675 163C60.4315 163 65.9595 160.712 70.0353 156.639C74.1111 152.566 76.4008 147.042 76.4008 141.282C76.3943 135.524 74.1025 130.004 70.0281 125.933C65.9537 121.861 60.4295 119.571 54.6675 119.564ZM54.6675 152.141C52.5183 152.141 50.4173 151.504 48.6303 150.311C46.8433 149.118 45.4505 147.422 44.628 145.438C43.8055 143.454 43.5903 141.27 44.0096 139.164C44.4289 137.057 45.4639 135.122 46.9836 133.604C48.5033 132.085 50.4396 131.051 52.5475 130.632C54.6554 130.213 56.8404 130.428 58.826 131.25C60.8116 132.072 62.5087 133.464 63.7028 135.249C64.8968 137.035 65.5341 139.135 65.5341 141.282C65.5307 144.161 64.3848 146.921 62.3476 148.957C60.3104 150.993 57.5485 152.138 54.6675 152.141Z" fill="#C39DF2"/>
<path d="M130.734 119.564C124.972 119.571 119.448 121.861 115.374 125.933C111.299 130.004 109.007 135.524 109.001 141.282C109.001 147.042 111.291 152.566 115.366 156.639C119.442 160.712 124.97 163 130.734 163C136.498 163 142.026 160.712 146.102 156.639C150.178 152.566 152.467 147.042 152.467 141.282C152.461 135.524 150.169 130.004 146.095 125.933C142.02 121.861 136.496 119.571 130.734 119.564ZM130.734 152.141C128.585 152.141 126.484 151.504 124.697 150.311C122.91 149.118 121.517 147.422 120.695 145.438C119.872 143.454 119.657 141.27 120.076 139.164C120.496 137.057 121.531 135.122 123.05 133.604C124.57 132.085 126.506 131.051 128.614 130.632C130.722 130.213 132.907 130.428 134.893 131.25C136.878 132.072 138.575 133.464 139.769 135.249C140.963 137.035 141.601 139.135 141.601 141.282C141.597 144.161 140.451 146.921 138.414 148.957C136.377 150.993 133.615 152.138 130.734 152.141Z" fill="#C39DF2"/>
</svg>
