<svg width="31" height="40" viewBox="0 0 31 40" fill="none" xmlns="http://www.w3.org/2000/svg">
<path d="M27.9337 27.3047L21.7991 23.3602L24.1119 19.1657C24.6511 18.1861 24.9339 17.0887 24.9348 15.9734V9.33333C24.9348 6.85798 23.9408 4.48401 22.1714 2.73367C20.402 0.98333 18.0023 0 15.5 0C12.9977 0 10.598 0.98333 8.82861 2.73367C7.05924 4.48401 6.06522 6.85798 6.06522 9.33333V15.9734C6.06606 17.0888 6.34893 18.1862 6.88807 19.1657L9.20086 23.3602L3.06631 27.3047C2.12351 27.9084 1.34883 28.7365 0.813147 29.713C0.277465 30.6895 -0.00210715 31.7833 1.19576e-05 32.8943V40H31V32.8943C31.0021 31.7833 30.7225 30.6895 30.1868 29.713C29.6512 28.7365 28.8765 27.9084 27.9337 27.3047ZM28.3043 37.3333H2.69566V32.8943C2.6944 32.2277 2.86216 31.5714 3.18358 30.9855C3.50501 30.3996 3.96983 29.9028 4.53553 29.5405L12.7623 24.2506L9.2546 17.8888C8.93112 17.3011 8.7614 16.6426 8.76087 15.9734V9.33333C8.76087 7.56522 9.47089 5.86953 10.7347 4.61929C11.9986 3.36905 13.7127 2.66667 15.5 2.66667C17.2873 2.66667 19.0014 3.36905 20.2653 4.61929C21.5291 5.86953 22.2391 7.56522 22.2391 9.33333V15.9734C22.2386 16.6426 22.0689 17.3011 21.7454 17.8888L18.2378 24.2506L26.4647 29.5405C27.0304 29.9028 27.4952 30.3996 27.8165 30.9855C28.1379 31.5714 28.3056 32.2277 28.3043 32.8943V37.3333Z" fill="#313131"/>
</svg>
