<svg width="66" height="76" viewBox="0 0 66 76" fill="none" xmlns="http://www.w3.org/2000/svg">
<g clip-path="url(#clip0_570_1044)">
<path d="M65.69 37.6799C65.69 32.1699 65.59 26.6599 65.74 21.1499C65.79 19.0999 65.06 18.0299 63.31 17.0399C53.82 11.6799 44.39 6.2199 34.98 0.729896C33.52 -0.120104 32.45 -0.320104 30.85 0.629896C21.28 6.2799 11.59 11.7299 2.03 17.3999C1.06 17.9799 0.12 19.5399 0.1 20.6599C0.06 23.7899 0.06 26.9199 0.04 30.0599C0.02 30.0299 0 30.0099 0 30.0099L0.02 35.0799C0.01 38.1799 0.03 41.2799 0.05 44.3799L0.07 50.2899L0.09 50.2999C0.1 51.6599 0.1 53.0099 0.12 54.3699C0.13 55.4899 1.07 57.0499 2.05 57.6299C11.61 63.2999 21.3 68.7499 30.87 74.3999C32.47 75.3399 33.54 75.1499 35 74.2999C44.41 68.8099 53.84 63.3499 63.32 57.9899C65.07 56.9999 65.8 55.9299 65.75 53.8799C65.59 48.4799 65.69 43.0799 65.69 37.6799Z" fill="#89E35B"/>
<path d="M2.40997 22.8599C2.41997 22.5899 2.71997 22.4199 2.94997 22.5599C12.18 27.8899 20.86 32.8699 29.49 37.9399C30.1 38.2999 30.63 39.2699 30.69 39.9999C30.83 41.8199 30.77 43.6499 30.75 45.9399C30.75 46.3299 30.32 46.5799 29.98 46.3799C23.25 42.5099 16.93 38.8699 10.46 35.1399C10.19 34.9899 9.83997 35.1099 9.75997 35.4099C9.13997 37.4899 9.66997 38.7599 11.67 39.8499C17.36 42.9699 22.97 46.2399 28.5 49.6299C29.51 50.2499 30.62 51.6799 30.66 52.7699C30.86 58.3699 30.7 64.0499 30.68 70.1699C30.68 70.6599 30.15 70.9799 29.72 70.7399C28.82 70.2499 28.1 69.8299 27.36 69.3999C20.5 65.4199 13.8 61.1699 6.76997 57.5499C3.16997 55.6899 2.36997 53.4699 2.39997 49.5799C2.40997 48.8099 2.45997 48.2799 2.50997 47.3699C2.52997 47.0999 2.81997 46.9399 3.05997 47.0699C9.65997 50.8799 16 54.5299 22.36 58.1999C22.68 58.3799 23.09 58.1999 23.17 57.8399C24.09 53.7799 23.8 54.6299 15.71 50.0399C12.6 48.2699 9.99997 46.7699 6.13997 44.7699C3.31997 43.3099 1.88997 40.6299 1.95997 38.0599C2.10997 32.6299 2.10997 32.6299 2.40997 22.8599Z" fill="#A552CC"/>
<path d="M42.1 35.0301V45.5101C42.1 45.9801 42.61 46.2701 43.02 46.0401C47.38 43.5301 51.36 41.2801 55.27 38.9001C55.84 38.5501 56.1 37.4301 56.18 36.6401C56.33 35.2201 56.22 33.7801 56.22 32.3501C56.22 25.5901 56.21 25.4001 62.89 22.6501C63.07 22.5701 63.29 22.7101 63.29 22.9101C63.29 27.3801 63.3 31.7501 63.3 36.0701C63.3 40.8101 63.39 45.4401 63.38 50.2701C63.38 54.3801 64.43 54.4601 59.32 57.0701C58.49 57.4901 57.64 57.9001 56.4 58.5401C56.38 58.5501 56.36 58.5401 56.36 58.5101V47.4501C56.36 47.0701 55.94 46.8401 55.62 47.0301C51.04 49.6801 46.94 52.0201 42.92 54.4701C42.44 54.7601 42.28 55.8001 42.23 56.5001C42.13 58.0401 42.2 59.5801 42.2 61.1201C42.2 67.6001 42.01 68.1101 35.75 70.4401C35.37 70.5801 34.96 70.2901 34.96 69.8901C34.96 65.5901 34.96 61.4101 34.96 57.2301C34.96 52.2701 34.89 47.3101 34.89 42.3601C34.89 38.1201 34.99 38.0101 38.32 36.5001C39.48 35.9701 40.36 35.4601 41.64 34.7401C41.83 34.6401 42.1 34.7901 42.1 35.0301Z" fill="#A552CC"/>
<path d="M5.10999 18.7901L11.8 14.9701C11.91 14.9001 12.05 14.9001 12.17 14.9701L24.63 21.9001C24.89 22.0401 25.2 21.8501 25.19 21.5601L24.65 7.78007C24.64 7.65007 24.71 7.52007 24.82 7.45007L32.13 2.69007C32.37 2.53007 32.69 2.69007 32.71 2.98007L33.83 18.9901C33.84 19.1901 34.01 19.3401 34.21 19.3401L59.08 19.3301C59.46 19.3301 59.6 19.8301 59.27 20.0301L48.23 26.6101C48.17 26.6501 48.1 26.6601 48.03 26.6601L32.71 26.2101C32.32 26.2001 32.17 26.7101 32.51 26.9101L39.34 30.9501C39.6 31.1001 39.58 31.4701 39.32 31.6101L32.97 34.8601C32.86 34.9201 32.72 34.9101 32.61 34.8501L5.10999 19.4501C4.85999 19.3001 4.85999 18.9401 5.10999 18.7901Z" fill="#A552CC"/>
</g>
<defs>
<clipPath id="clip0_570_1044">
<rect width="65.74" height="75.03" fill="white"/>
</clipPath>
</defs>
</svg>
