<svg width="578" height="346" viewBox="0 0 578 346" fill="none" xmlns="http://www.w3.org/2000/svg">
<path d="M107.818 337.28L103.761 337.911V293.323H115.105V345.014H100.334L67.3263 300.425L71.3045 299.794V345.014H60V293.323H75.1252L107.818 337.28Z" fill="#A552CC"/>
<path d="M153.903 346C147.915 346 142.637 344.856 138.108 342.607C133.578 340.358 130.072 337.24 127.552 333.216C125.031 329.191 123.77 324.495 123.77 319.129C123.77 313.763 125.031 309.067 127.552 305.042C130.072 301.018 133.578 297.9 138.108 295.651C142.637 293.402 147.876 292.258 153.903 292.258C159.929 292.258 165.168 293.402 169.697 295.651C174.227 297.9 177.733 301.057 180.254 305.042C182.774 309.067 184.035 313.763 184.035 319.129C184.035 324.495 182.774 329.191 180.254 333.216C177.733 337.24 174.227 340.358 169.697 342.607C165.168 344.856 159.929 346 153.903 346ZM153.903 335.583C157.684 335.583 160.914 334.912 163.632 333.571C166.349 332.229 168.476 330.335 169.973 327.849C171.47 325.363 172.218 322.444 172.218 319.09C172.218 315.736 171.47 312.816 169.973 310.33C168.476 307.844 166.389 305.95 163.632 304.608C160.914 303.267 157.644 302.596 153.903 302.596C150.161 302.596 146.97 303.267 144.213 304.608C141.456 305.95 139.329 307.844 137.832 310.33C136.335 312.816 135.587 315.736 135.587 319.09C135.587 322.444 136.335 325.363 137.832 327.849C139.329 330.335 141.456 332.229 144.213 333.571C146.97 334.912 150.2 335.583 153.903 335.583Z" fill="#A552CC"/>
<path d="M254.383 340.239H250.405L264.782 293.323H277.031L260.449 345.014H245.521L229.292 299.242H234.374L218.145 345.014H203.217L186.635 293.323H199.003L213.222 340.239L209.362 340.16L225.59 293.284H238.037L254.344 340.2L254.383 340.239Z" fill="#A552CC"/>
<path d="M297.474 328.086H309.291C309.566 329.822 310.354 331.361 311.615 332.663C312.875 333.965 314.569 334.991 316.696 335.701C318.823 336.412 321.304 336.767 324.101 336.767C328.197 336.767 331.388 336.175 333.751 335.031C336.114 333.886 337.296 332.229 337.296 330.098C337.296 328.441 336.626 327.178 335.248 326.271C333.909 325.363 331.388 324.732 327.725 324.298L317.326 323.114C310.63 322.364 305.785 320.826 302.792 318.379C299.798 315.933 298.301 312.618 298.301 308.278C298.301 304.884 299.286 301.964 301.295 299.597C303.304 297.19 306.1 295.375 309.724 294.112C313.348 292.85 317.602 292.218 322.525 292.218C327.449 292.218 331.545 292.929 335.248 294.31C338.95 295.73 341.904 297.664 344.11 300.149C346.316 302.635 347.498 305.595 347.695 308.949H335.878C335.642 307.449 334.972 306.108 333.83 305.003C332.688 303.898 331.151 302.99 329.182 302.399C327.213 301.767 324.889 301.452 322.25 301.452C318.547 301.452 315.593 302.004 313.387 303.109C311.181 304.214 310.078 305.792 310.078 307.804C310.078 309.383 310.748 310.566 312.048 311.434C313.348 312.303 315.672 312.934 318.98 313.329L329.773 314.631C334.539 315.144 338.32 315.933 341.156 317.077C343.992 318.221 346.001 319.721 347.222 321.575C348.443 323.43 349.034 325.837 349.034 328.757C349.034 332.19 347.97 335.228 345.922 337.832C343.835 340.436 340.92 342.449 337.138 343.869C333.357 345.29 328.985 346 323.943 346C318.902 346 314.293 345.25 310.394 343.751C306.494 342.252 303.422 340.16 301.177 337.477C298.931 334.794 297.71 331.637 297.514 328.086H297.474Z" fill="#A552CC"/>
<path d="M351.476 293.284H404.178V303.622H351.476V293.284ZM372.037 298.532H383.656V344.974H372.037V298.532Z" fill="#A552CC"/>
<path d="M436.555 346C430.568 346 425.29 344.856 420.761 342.607C416.231 340.358 412.725 337.24 410.204 333.216C407.684 329.191 406.423 324.495 406.423 319.129C406.423 313.763 407.684 309.067 410.204 305.042C412.725 301.018 416.231 297.9 420.761 295.651C425.29 293.402 430.529 292.258 436.555 292.258C442.582 292.258 447.821 293.402 452.35 295.651C456.88 297.9 460.386 301.057 462.906 305.042C465.427 309.067 466.688 313.763 466.688 319.129C466.688 324.495 465.427 329.191 462.906 333.216C460.386 337.24 456.88 340.358 452.35 342.607C447.821 344.856 442.582 346 436.555 346ZM436.555 335.583C440.337 335.583 443.567 334.912 446.284 333.571C449.002 332.229 451.129 330.335 452.626 327.849C454.123 325.363 454.871 322.444 454.871 319.09C454.871 315.736 454.123 312.816 452.626 310.33C451.129 307.844 449.042 305.95 446.284 304.608C443.567 303.267 440.297 302.596 436.555 302.596C432.813 302.596 429.623 303.267 426.866 304.608C424.109 305.95 421.982 307.844 420.485 310.33C418.988 312.816 418.24 315.736 418.24 319.09C418.24 322.444 418.988 325.363 420.485 327.849C421.982 330.335 424.109 332.229 426.866 333.571C429.623 334.912 432.853 335.583 436.555 335.583Z" fill="#A552CC"/>
<path d="M483.546 316.248H503.437C506.037 316.248 508.125 315.657 509.661 314.433C511.197 313.21 511.945 311.513 511.945 309.383C511.945 307.252 511.197 305.555 509.661 304.371C508.125 303.188 506.037 302.596 503.437 302.596H481.852L487.13 296.598V345.053H475.432V293.363H504.816C508.597 293.363 511.867 294.033 514.702 295.414C517.538 296.795 519.784 298.65 521.359 301.017C522.974 303.424 523.762 306.226 523.762 309.422C523.762 312.618 522.974 315.38 521.359 317.748C519.744 320.155 517.538 322.009 514.702 323.351C511.867 324.693 508.558 325.403 504.816 325.403H483.546V316.288V316.248ZM492.487 320.786H505.84L525.298 344.974H511.591L492.487 320.786Z" fill="#A552CC"/>
<path d="M546.765 319.129L543.338 341.028L538.257 335.228H578V344.935H531.561L535.539 319.089L531.561 293.244H577.646V302.951H538.218L543.299 297.151L546.725 319.05L546.765 319.129ZM575.873 314.67V323.627H538.927V314.67H575.873Z" fill="#A552CC"/>
<g clip-path="url(#clip0_122_791)">
<path d="M426.836 124.043C426.836 105.904 426.509 87.765 427 69.626C427.164 62.8774 424.776 59.3549 419.053 56.0958C388.016 38.4506 357.176 20.4762 326.401 2.403C321.626 -0.395211 318.126 -1.05361 312.894 2.0738C281.595 20.6737 249.905 38.6152 218.639 57.2809C215.467 59.1903 212.392 64.3258 212.327 68.0129C212.196 78.3169 212.196 88.6209 212.131 98.9579C212.065 98.8591 212 98.7933 212 98.7933L212.065 115.484C212.033 125.689 212.098 135.894 212.164 146.1L212.229 165.555L212.294 165.588C212.327 170.065 212.327 174.51 212.392 178.987C212.425 182.674 215.499 187.809 218.704 189.719C249.97 208.384 281.661 226.326 312.959 244.926C318.192 248.02 321.691 247.395 326.466 244.597C357.241 226.523 388.082 208.549 419.085 190.904C424.809 187.645 427.196 184.122 427.033 177.374C426.509 159.597 426.836 141.82 426.836 124.043Z" fill="#A552CC"/>
<path d="M219.882 75.2555C219.915 74.3667 220.896 73.807 221.648 74.2679C251.834 91.8144 280.222 108.209 308.446 124.899C310.441 126.084 312.174 129.278 312.37 131.681C312.828 137.672 312.632 143.697 312.567 151.235C312.567 152.519 311.16 153.342 310.048 152.684C288.038 139.944 267.369 127.961 246.209 115.681C245.326 115.188 244.181 115.583 243.92 116.57C241.892 123.418 243.625 127.599 250.166 131.187C268.775 141.458 287.122 152.223 305.208 163.383C308.511 165.424 312.141 170.131 312.272 173.72C312.926 192.155 312.403 210.854 312.338 231.001C312.338 232.614 310.604 233.667 309.198 232.877C306.255 231.264 303.9 229.882 301.48 228.466C279.044 215.364 257.132 201.373 234.141 189.456C222.367 183.332 219.751 176.024 219.849 163.218C219.882 160.683 220.045 158.939 220.209 155.943C220.274 155.054 221.223 154.527 222.008 154.955C243.593 167.498 264.327 179.514 285.127 191.595C286.174 192.188 287.515 191.595 287.777 190.41C290.785 177.045 289.837 179.843 263.379 164.733C253.208 158.906 244.705 153.968 232.081 147.384C222.858 142.577 218.181 133.755 218.41 125.294C218.901 107.419 218.901 107.419 219.882 75.2555Z" fill="#FFFBE7"/>
<path d="M349.686 115.32V149.82C349.686 151.367 351.354 152.322 352.695 151.565C366.954 143.302 379.971 135.895 392.758 128.06C394.622 126.907 395.473 123.22 395.734 120.62C396.225 115.945 395.865 111.205 395.865 106.497C395.865 84.2429 395.833 83.6174 417.679 74.5644C418.268 74.301 418.987 74.7619 418.987 75.4203C418.987 90.1356 419.02 104.522 419.02 118.743C419.02 134.347 419.314 149.589 419.282 165.49C419.282 179.02 422.716 179.283 406.004 187.876C403.289 189.258 400.509 190.608 396.454 192.715C396.389 192.748 396.323 192.715 396.323 192.616V156.206C396.323 154.955 394.949 154.198 393.903 154.824C378.924 163.548 365.515 171.251 352.368 179.316C350.798 180.271 350.275 183.695 350.111 185.999C349.784 191.069 350.013 196.139 350.013 201.208C350.013 222.541 349.392 224.219 328.919 231.89C327.676 232.351 326.335 231.396 326.335 230.079C326.335 215.924 326.335 202.163 326.335 188.402C326.335 172.074 326.106 155.746 326.106 139.45C326.106 125.492 326.433 125.13 337.324 120.159C341.118 118.414 343.996 116.735 348.182 114.365C348.803 114.036 349.686 114.529 349.686 115.32Z" fill="#FFFBE7"/>
<path d="M228.712 61.857L250.591 49.2815C250.951 49.0511 251.409 49.0511 251.801 49.2815L292.551 72.0952C293.402 72.5561 294.416 71.9306 294.383 70.9759L292.617 25.6119C292.584 25.184 292.813 24.756 293.173 24.5255L317.08 8.85555C317.865 8.32883 318.911 8.85555 318.977 9.81024L322.64 62.5154C322.672 63.1738 323.228 63.6676 323.882 63.6676L405.219 63.6347C406.462 63.6347 406.919 65.2807 405.84 65.9391L369.734 87.6006C369.538 87.7323 369.309 87.7652 369.08 87.7652L318.977 86.2838C317.701 86.2509 317.211 87.9298 318.323 88.5882L340.66 101.888C341.51 102.382 341.445 103.6 340.594 104.061L319.827 114.76C319.467 114.957 319.009 114.924 318.65 114.727L228.712 64.0298C227.894 63.5359 227.894 62.3508 228.712 61.857Z" fill="#FFFBE7"/>
</g>
<defs>
<clipPath id="clip0_122_791">
<rect width="215" height="247" fill="white" transform="translate(212)"/>
</clipPath>
</defs>
</svg>
