<svg width="538" height="384" viewBox="0 0 538 384" fill="none" xmlns="http://www.w3.org/2000/svg">
<path d="M47.8178 375.28L43.7608 375.911V331.323H55.1047V383.014H40.334L7.32629 338.425L11.3045 337.794V383.014H0V331.323H15.1252L47.8178 375.28Z" fill="#A552CC"/>
<path d="M93.9026 384C87.9155 384 82.6374 382.856 78.1077 380.607C73.578 378.358 70.0724 375.24 67.5516 371.216C65.0307 367.191 63.7703 362.495 63.7703 357.129C63.7703 351.763 65.0307 347.067 67.5516 343.042C70.0724 339.018 73.578 335.9 78.1077 333.651C82.6374 331.402 87.8761 330.258 93.9026 330.258C99.929 330.258 105.168 331.402 109.697 333.651C114.227 335.9 117.733 339.057 120.254 343.042C122.774 347.067 124.035 351.763 124.035 357.129C124.035 362.495 122.774 367.191 120.254 371.216C117.733 375.24 114.227 378.358 109.697 380.607C105.168 382.856 99.929 384 93.9026 384ZM93.9026 373.583C97.6839 373.583 100.914 372.912 103.632 371.571C106.349 370.229 108.476 368.335 109.973 365.849C111.47 363.363 112.218 360.444 112.218 357.09C112.218 353.736 111.47 350.816 109.973 348.33C108.476 345.844 106.389 343.95 103.632 342.608C100.914 341.267 97.6445 340.596 93.9026 340.596C90.1607 340.596 86.9702 341.267 84.213 342.608C81.4558 343.95 79.3288 345.844 77.832 348.33C76.3352 350.816 75.5869 353.736 75.5869 357.09C75.5869 360.444 76.3352 363.363 77.832 365.849C79.3288 368.335 81.4558 370.229 84.213 371.571C86.9702 372.912 90.2 373.583 93.9026 373.583Z" fill="#A552CC"/>
<path d="M194.383 378.239H190.405L204.782 331.323H217.031L200.449 383.014H185.521L169.292 337.242H174.374L158.145 383.014H143.217L126.635 331.323H139.003L153.222 378.239L149.362 378.16L165.59 331.284H178.037L194.344 378.2L194.383 378.239Z" fill="#A552CC"/>
<path d="M237.474 366.086H249.291C249.566 367.822 250.354 369.361 251.615 370.663C252.875 371.965 254.569 372.991 256.696 373.701C258.823 374.412 261.304 374.767 264.101 374.767C268.197 374.767 271.388 374.175 273.751 373.031C276.114 371.886 277.296 370.229 277.296 368.098C277.296 366.441 276.626 365.178 275.248 364.271C273.909 363.363 271.388 362.732 267.725 362.298L257.326 361.114C250.63 360.364 245.785 358.826 242.792 356.379C239.798 353.933 238.301 350.618 238.301 346.278C238.301 342.884 239.286 339.964 241.295 337.597C243.304 335.19 246.1 333.375 249.724 332.112C253.348 330.85 257.602 330.218 262.525 330.218C267.449 330.218 271.545 330.929 275.248 332.31C278.95 333.73 281.904 335.664 284.11 338.149C286.316 340.635 287.498 343.595 287.695 346.949H275.878C275.642 345.449 274.972 344.108 273.83 343.003C272.688 341.898 271.151 340.99 269.182 340.399C267.213 339.767 264.889 339.452 262.25 339.452C258.547 339.452 255.593 340.004 253.387 341.109C251.181 342.214 250.078 343.792 250.078 345.804C250.078 347.383 250.748 348.566 252.048 349.434C253.348 350.303 255.672 350.934 258.98 351.329L269.773 352.631C274.539 353.144 278.32 353.933 281.156 355.077C283.992 356.221 286.001 357.721 287.222 359.575C288.443 361.43 289.034 363.837 289.034 366.757C289.034 370.19 287.97 373.228 285.922 375.832C283.835 378.436 280.92 380.449 277.138 381.869C273.357 383.29 268.985 384 263.943 384C258.902 384 254.293 383.25 250.394 381.751C246.494 380.252 243.422 378.16 241.177 375.477C238.931 372.794 237.71 369.637 237.514 366.086H237.474Z" fill="#A552CC"/>
<path d="M291.476 331.284H344.178V341.622H291.476V331.284ZM312.037 336.532H323.656V382.974H312.037V336.532Z" fill="#A552CC"/>
<path d="M376.555 384C370.568 384 365.29 382.856 360.761 380.607C356.231 378.358 352.725 375.24 350.204 371.216C347.684 367.191 346.423 362.495 346.423 357.129C346.423 351.763 347.684 347.067 350.204 343.042C352.725 339.018 356.231 335.9 360.761 333.651C365.29 331.402 370.529 330.258 376.555 330.258C382.582 330.258 387.821 331.402 392.35 333.651C396.88 335.9 400.386 339.057 402.906 343.042C405.427 347.067 406.688 351.763 406.688 357.129C406.688 362.495 405.427 367.191 402.906 371.216C400.386 375.24 396.88 378.358 392.35 380.607C387.821 382.856 382.582 384 376.555 384ZM376.555 373.583C380.337 373.583 383.567 372.912 386.284 371.571C389.002 370.229 391.129 368.335 392.626 365.849C394.123 363.363 394.871 360.444 394.871 357.09C394.871 353.736 394.123 350.816 392.626 348.33C391.129 345.844 389.042 343.95 386.284 342.608C383.567 341.267 380.297 340.596 376.555 340.596C372.813 340.596 369.623 341.267 366.866 342.608C364.109 343.95 361.982 345.844 360.485 348.33C358.988 350.816 358.24 353.736 358.24 357.09C358.24 360.444 358.988 363.363 360.485 365.849C361.982 368.335 364.109 370.229 366.866 371.571C369.623 372.912 372.853 373.583 376.555 373.583Z" fill="#A552CC"/>
<path d="M423.546 354.248H443.437C446.037 354.248 448.125 353.657 449.661 352.433C451.197 351.21 451.945 349.513 451.945 347.383C451.945 345.252 451.197 343.555 449.661 342.371C448.125 341.188 446.037 340.596 443.437 340.596H421.852L427.13 334.598V383.053H415.432V331.363H444.816C448.597 331.363 451.867 332.033 454.702 333.414C457.538 334.795 459.784 336.65 461.359 339.017C462.974 341.424 463.762 344.226 463.762 347.422C463.762 350.618 462.974 353.38 461.359 355.748C459.744 358.155 457.538 360.009 454.702 361.351C451.867 362.693 448.558 363.403 444.816 363.403H423.546V354.288V354.248ZM432.487 358.786H445.84L465.298 382.974H451.591L432.487 358.786Z" fill="#A552CC"/>
<path d="M486.765 357.129L483.338 379.028L478.257 373.228H518V382.935H471.561L475.539 357.089L471.561 331.244H517.645V340.951H478.217L483.299 335.151L486.725 357.05L486.765 357.129ZM515.873 352.67V361.627H478.926V352.67H515.873Z" fill="#A552CC"/>
<g clip-path="url(#clip0_122_790)">
<path d="M366.836 162.541C366.836 144.475 366.507 126.41 367 108.344C367.164 101.623 364.766 98.1148 359.016 94.8689C327.835 77.2952 296.851 59.3935 265.933 41.3935C261.136 38.6066 257.62 37.9509 252.363 41.0657C220.919 59.5902 189.081 77.4591 157.67 96.0493C154.483 97.9509 151.394 103.066 151.329 106.738C151.197 117 151.197 127.262 151.131 137.557C151.066 137.459 151 137.394 151 137.394L151.066 154.016C151.033 164.18 151.099 174.344 151.164 184.508L151.23 203.885L151.296 203.918C151.329 208.377 151.329 212.803 151.394 217.262C151.427 220.934 154.516 226.049 157.736 227.951C189.147 246.541 220.985 264.41 252.429 282.934C257.686 286.016 261.201 285.394 265.998 282.607C296.917 264.607 327.901 246.705 359.049 229.131C364.799 225.885 367.197 222.377 367.033 215.656C366.507 197.951 366.836 180.246 366.836 162.541Z" fill="#89E35B"/>
<path d="M158.918 113.951C158.951 113.066 159.937 112.508 160.693 112.967C191.019 130.443 219.539 146.77 247.894 163.393C249.899 164.574 251.64 167.754 251.837 170.148C252.297 176.115 252.1 182.115 252.034 189.623C252.034 190.902 250.622 191.721 249.504 191.066C227.392 178.377 206.626 166.443 185.368 154.213C184.481 153.721 183.331 154.115 183.068 155.098C181.031 161.918 182.772 166.082 189.344 169.656C208.039 179.885 226.472 190.607 244.642 201.721C247.96 203.754 251.607 208.443 251.739 212.016C252.396 230.377 251.87 249 251.804 269.066C251.804 270.672 250.063 271.721 248.65 270.934C245.693 269.328 243.327 267.951 240.896 266.541C218.356 253.492 196.342 239.557 173.244 227.689C161.416 221.59 158.787 214.311 158.886 201.557C158.918 199.033 159.083 197.295 159.247 194.311C159.313 193.426 160.266 192.902 161.054 193.328C182.74 205.82 203.571 217.787 224.468 229.82C225.519 230.41 226.866 229.82 227.129 228.639C230.152 215.328 229.199 218.115 202.618 203.066C192.399 197.262 183.857 192.344 171.174 185.787C161.908 181 157.21 172.213 157.44 163.787C157.933 145.984 157.933 145.984 158.918 113.951Z" fill="#A552CC"/>
<path d="M289.327 153.852V188.213C289.327 189.754 291.002 190.705 292.35 189.951C306.675 181.721 319.752 174.344 332.599 166.541C334.472 165.393 335.326 161.721 335.589 159.131C336.082 154.475 335.72 149.754 335.72 145.066C335.72 122.902 335.688 122.279 357.636 113.262C358.227 113 358.95 113.459 358.95 114.115C358.95 128.771 358.983 143.098 358.983 157.262C358.983 172.803 359.279 187.984 359.246 203.82C359.246 217.295 362.696 217.557 345.906 226.115C343.179 227.492 340.386 228.836 336.312 230.934C336.246 230.967 336.18 230.934 336.18 230.836V194.574C336.18 193.328 334.8 192.574 333.749 193.197C318.701 201.885 305.229 209.557 292.021 217.59C290.444 218.541 289.918 221.951 289.754 224.246C289.425 229.295 289.655 234.344 289.655 239.393C289.655 260.639 289.031 262.311 268.463 269.951C267.214 270.41 265.867 269.459 265.867 268.148C265.867 254.049 265.867 240.344 265.867 226.639C265.867 210.377 265.637 194.115 265.637 177.885C265.637 163.984 265.966 163.623 276.907 158.672C280.718 156.934 283.61 155.262 287.815 152.902C288.44 152.574 289.327 153.066 289.327 153.852Z" fill="#A552CC"/>
<path d="M167.79 100.607L189.771 88.0821C190.132 87.8526 190.592 87.8526 190.987 88.0821L231.926 110.803C232.78 111.262 233.799 110.639 233.766 109.689L231.992 64.5083C231.959 64.0821 232.189 63.6559 232.55 63.4264L256.569 47.8198C257.357 47.2952 258.409 47.8198 258.474 48.7706L262.154 101.262C262.187 101.918 262.746 102.41 263.403 102.41L345.117 102.377C346.366 102.377 346.826 104.017 345.742 104.672L309.468 126.246C309.271 126.377 309.041 126.41 308.811 126.41L258.474 124.935C257.193 124.902 256.7 126.574 257.817 127.23L280.258 140.476C281.113 140.967 281.047 142.18 280.193 142.639L259.329 153.295C258.967 153.492 258.507 153.459 258.146 153.262L167.79 102.771C166.968 102.279 166.968 101.098 167.79 100.607Z" fill="#A552CC"/>
</g>
<defs>
<clipPath id="clip0_122_790">
<rect width="216" height="246" fill="white" transform="translate(151 39)"/>
</clipPath>
</defs>
</svg>
