<svg width="453" height="282" viewBox="0 0 453 282" fill="none" xmlns="http://www.w3.org/2000/svg">
<path d="M41.7862 274.289L38.238 274.842V235.838H48.1592V281.055H35.241L6.37297 242.051L9.85232 241.498V281.055H0V235.838H13.2283L41.8207 274.289H41.7862Z" fill="white"/>
<path d="M82.0912 281.918C76.8551 281.918 72.2389 280.917 68.2774 278.949C64.3158 276.982 61.2498 274.255 59.0451 270.734C56.8404 267.213 55.738 263.106 55.738 258.412C55.738 253.717 56.8404 249.61 59.0451 246.089C61.2498 242.568 64.3158 239.842 68.2774 237.874C72.2389 235.907 76.8206 234.906 82.0912 234.906C87.3619 234.906 91.9436 235.907 95.9052 237.874C99.8668 239.842 102.933 242.603 105.137 246.089C107.342 249.61 108.445 253.717 108.445 258.412C108.445 263.106 107.342 267.213 105.137 270.734C102.933 274.255 99.8668 276.982 95.9052 278.949C91.9436 280.917 87.3619 281.918 82.0912 281.918ZM82.0912 272.805C85.3983 272.805 88.2231 272.218 90.6001 271.045C92.977 269.871 94.8373 268.214 96.1463 266.04C97.4554 263.865 98.1099 261.311 98.1099 258.377C98.1099 255.443 97.4554 252.889 96.1463 250.714C94.8373 248.54 93.0115 246.883 90.6001 245.71C88.2231 244.536 85.3639 243.949 82.0912 243.949C78.8186 243.949 76.0283 244.536 73.6169 245.71C71.2055 246.883 69.3453 248.54 68.0362 250.714C66.7272 252.889 66.0726 255.443 66.0726 258.377C66.0726 261.311 66.7272 263.865 68.0362 266.04C69.3453 268.214 71.2055 269.871 73.6169 271.045C76.0283 272.218 78.8531 272.805 82.0912 272.805Z" fill="white"/>
<path d="M170.004 276.878H166.525L179.099 235.838H189.812L175.309 281.055H162.253L148.06 241.015H152.504L138.311 281.055H125.255L110.752 235.838H121.569L134.005 276.878L130.629 276.809L144.822 235.803H155.708L169.97 276.844L170.004 276.878Z" fill="white"/>
<path d="M207.657 266.247H217.991C218.232 267.766 218.921 269.112 220.024 270.251C221.126 271.39 222.607 272.287 224.468 272.909C226.328 273.53 228.498 273.84 230.944 273.84C234.527 273.84 237.317 273.323 239.384 272.322C241.451 271.321 242.484 269.871 242.484 268.007C242.484 266.557 241.899 265.453 240.693 264.659C239.522 263.865 237.317 263.313 234.113 262.933L225.019 261.898C219.163 261.242 214.925 259.896 212.307 257.756C209.689 255.616 208.38 252.716 208.38 248.919C208.38 245.951 209.241 243.397 210.998 241.326C212.755 239.22 215.201 237.632 218.37 236.528C221.539 235.423 225.26 234.871 229.566 234.871C233.872 234.871 237.455 235.492 240.693 236.7C243.931 237.943 246.515 239.634 248.444 241.809C250.373 243.983 251.406 246.572 251.579 249.506H241.244C241.037 248.195 240.452 247.021 239.453 246.055C238.454 245.088 237.11 244.294 235.388 243.776C233.665 243.224 231.633 242.948 229.325 242.948C226.087 242.948 223.503 243.431 221.574 244.398C219.645 245.364 218.68 246.745 218.68 248.505C218.68 249.886 219.266 250.921 220.403 251.681C221.539 252.44 223.572 252.992 226.466 253.338L235.905 254.477C240.073 254.925 243.38 255.616 245.86 256.617C248.341 257.618 250.097 258.929 251.165 260.552C252.233 262.174 252.75 264.279 252.75 266.834C252.75 269.837 251.82 272.494 250.029 274.772C248.203 277.051 245.654 278.811 242.346 280.054C239.039 281.296 235.216 281.917 230.806 281.917C226.397 281.917 222.366 281.262 218.956 279.95C215.545 278.638 212.858 276.809 210.895 274.462C208.931 272.115 207.863 269.353 207.691 266.247H207.657Z" fill="white"/>
<path d="M254.886 235.803H300.978V244.847H254.886V235.803ZM272.868 240.394H283.03V281.02H272.868V240.394Z" fill="white"/>
<path d="M329.295 281.918C324.059 281.918 319.443 280.917 315.481 278.949C311.519 276.982 308.453 274.255 306.249 270.734C304.044 267.213 302.942 263.106 302.942 258.412C302.942 253.717 304.044 249.61 306.249 246.089C308.453 242.568 311.519 239.842 315.481 237.874C319.443 235.907 324.024 234.906 329.295 234.906C334.566 234.906 339.147 235.907 343.109 237.874C347.07 239.842 350.136 242.603 352.341 246.089C354.546 249.61 355.648 253.717 355.648 258.412C355.648 263.106 354.546 267.213 352.341 270.734C350.136 274.255 347.07 276.982 343.109 278.949C339.147 280.917 334.566 281.918 329.295 281.918ZM329.295 272.805C332.602 272.805 335.427 272.218 337.804 271.045C340.181 269.871 342.041 268.214 343.35 266.04C344.659 263.865 345.313 261.311 345.313 258.377C345.313 255.443 344.659 252.889 343.35 250.714C342.041 248.54 340.215 246.883 337.804 245.71C335.427 244.536 332.567 243.949 329.295 243.949C326.022 243.949 323.232 244.536 320.82 245.71C318.409 246.883 316.549 248.54 315.24 250.714C313.931 252.889 313.276 255.443 313.276 258.377C313.276 261.311 313.931 263.865 315.24 266.04C316.549 268.214 318.409 269.871 320.82 271.045C323.232 272.218 326.057 272.805 329.295 272.805Z" fill="white"/>
<path d="M370.392 255.892H387.789C390.062 255.892 391.888 255.374 393.232 254.304C394.575 253.234 395.23 251.75 395.23 249.886C395.23 248.022 394.575 246.538 393.232 245.502C391.888 244.467 390.062 243.949 387.789 243.949H368.911L373.527 238.702V281.089H363.296V235.872H388.994C392.302 235.872 395.161 236.459 397.641 237.667C400.121 238.875 402.085 240.497 403.463 242.568C404.875 244.674 405.564 247.125 405.564 249.92C405.564 252.716 404.875 255.132 403.463 257.203C402.05 259.309 400.121 260.931 397.641 262.105C395.161 263.278 392.267 263.9 388.994 263.9H370.392V255.926V255.892ZM378.212 259.861H389.89L406.908 281.02H394.92L378.212 259.861Z" fill="white"/>
<path d="M425.682 258.412L422.685 277.568L418.241 272.494H453V280.986H412.385L415.864 258.377L412.385 235.769H452.69V244.26H418.207L422.651 239.186L425.648 258.343L425.682 258.412ZM451.14 254.511V262.346H418.827V254.511H451.14Z" fill="white"/>
<g clip-path="url(#clip0_570_1264)">
<path d="M309.868 100.44C309.868 85.7521 309.603 71.0646 310 56.3771C310.132 50.9127 308.2 48.0605 303.568 45.4215C278.45 31.1339 253.491 16.5797 228.585 1.94557C224.72 -0.320189 221.888 -0.85331 217.653 1.67901C192.324 16.7397 166.676 31.2672 141.373 46.3811C138.806 47.9272 136.318 52.0855 136.265 55.071C136.159 63.4143 136.159 71.7577 136.106 80.1276C136.053 80.0477 136 79.9944 136 79.9944L136.053 93.509C136.026 101.772 136.079 110.036 136.132 118.299L136.185 134.053L136.238 134.079C136.265 137.705 136.265 141.303 136.318 144.928C136.344 147.914 138.832 152.072 141.426 153.618C166.729 168.732 192.377 183.26 217.706 198.32C221.941 200.826 224.773 200.32 228.638 198.054C253.544 183.42 278.503 168.865 303.595 154.578C308.227 151.939 310.159 149.087 310.026 143.622C309.603 129.228 309.868 114.834 309.868 100.44Z" fill="white"/>
<path d="M142.379 60.9356C142.405 60.2159 143.199 59.7627 143.808 60.1359C168.238 74.3436 191.212 87.6183 214.054 101.133C215.668 102.092 217.071 104.678 217.23 106.624C217.601 111.475 217.442 116.353 217.389 122.458C217.389 123.497 216.251 124.164 215.351 123.631C197.538 113.315 180.81 103.612 163.685 93.6692C162.971 93.2693 162.044 93.5892 161.833 94.3889C160.192 99.9333 161.594 103.319 166.888 106.224C181.948 114.541 196.797 123.257 211.434 132.294C214.107 133.946 217.045 137.758 217.151 140.664C217.68 155.591 217.256 170.732 217.204 187.045C217.204 188.351 215.801 189.204 214.663 188.565C212.28 187.258 210.375 186.139 208.416 184.993C190.259 174.384 172.526 163.055 153.919 153.405C144.39 148.447 142.273 142.53 142.352 132.16C142.379 130.108 142.511 128.695 142.643 126.269C142.696 125.55 143.464 125.123 144.099 125.47C161.568 135.626 178.349 145.355 195.182 155.138C196.029 155.618 197.114 155.138 197.326 154.178C199.761 143.356 198.994 145.622 177.581 133.387C169.35 128.669 162.468 124.67 152.251 119.339C144.787 115.447 141.002 108.303 141.188 101.453C141.585 86.9785 141.585 86.9785 142.379 60.9356Z" fill="black"/>
<path d="M247.43 93.376V121.311C247.43 122.564 248.78 123.337 249.865 122.724C261.405 116.034 271.939 110.036 282.288 103.692C283.797 102.759 284.485 99.7734 284.697 97.6676C285.094 93.8824 284.803 90.044 284.803 86.2322C284.803 68.2127 284.776 67.7062 302.457 60.3758C302.933 60.1626 303.515 60.5358 303.515 61.0689C303.515 72.9841 303.542 84.6328 303.542 96.1482C303.542 108.783 303.78 121.125 303.754 134C303.754 144.955 306.533 145.169 293.008 152.126C290.811 153.245 288.561 154.338 285.279 156.044C285.226 156.071 285.173 156.044 285.173 155.964V126.483C285.173 125.47 284.061 124.857 283.214 125.363C271.092 132.427 260.24 138.665 249.6 145.195C248.33 145.968 247.906 148.74 247.774 150.606C247.509 154.711 247.695 158.816 247.695 162.921C247.695 180.195 247.192 181.554 230.623 187.765C229.617 188.138 228.532 187.365 228.532 186.299C228.532 174.837 228.532 163.695 228.532 152.552C228.532 139.331 228.346 126.11 228.346 112.915C228.346 101.613 228.611 101.319 237.425 97.2944C240.495 95.8816 242.824 94.5222 246.212 92.603C246.715 92.3364 247.43 92.7362 247.43 93.376Z" fill="black"/>
<path d="M149.525 50.0867L167.232 39.9041C167.523 39.7175 167.894 39.7175 168.211 39.9041L201.19 58.3767C201.879 58.7498 202.699 58.2434 202.673 57.4704L201.243 20.7384C201.217 20.3919 201.402 20.0453 201.693 19.8587L221.041 7.17048C221.677 6.74398 222.524 7.17048 222.576 7.9435L225.541 50.6198C225.567 51.1529 226.017 51.5527 226.547 51.5527L292.372 51.5261C293.378 51.5261 293.749 52.8589 292.875 53.392L263.655 70.9316C263.496 71.0383 263.311 71.0649 263.125 71.0649L222.576 69.8654C221.544 69.8387 221.147 71.1982 222.047 71.7313L240.125 82.5004C240.813 82.9002 240.76 83.8865 240.072 84.2597L223.265 92.9229C222.974 93.0828 222.603 93.0561 222.312 92.8962L149.525 51.8459C148.863 51.4461 148.863 50.4865 149.525 50.0867Z" fill="black"/>
</g>
<defs>
<clipPath id="clip0_570_1264">
<rect width="174" height="200" fill="white" transform="translate(136)"/>
</clipPath>
</defs>
</svg>
