<svg width="66" height="76" viewBox="0 0 66 76" fill="none" xmlns="http://www.w3.org/2000/svg">
<path d="M65.69 37.6797C65.69 32.1697 65.59 26.6597 65.74 21.1497C65.79 19.0997 65.06 18.0297 63.31 17.0397C53.82 11.6797 44.39 6.21965 34.98 0.729652C33.52 -0.120348 32.45 -0.320348 30.85 0.629652C21.28 6.27965 11.59 11.7297 2.03 17.3997C1.06 17.9797 0.12 19.5397 0.1 20.6597C0.06 23.7897 0.06 26.9197 0.04 30.0597C0.02 30.0297 0 30.0097 0 30.0097L0.02 35.0797C0.01 38.1797 0.03 41.2797 0.05 44.3797L0.07 50.2897L0.09 50.2997C0.1 51.6597 0.1 53.0097 0.12 54.3697C0.13 55.4897 1.07 57.0497 2.05 57.6297C11.61 63.2997 21.3 68.7497 30.87 74.3997C32.47 75.3397 33.54 75.1497 35 74.2997C44.41 68.8097 53.84 63.3497 63.32 57.9897C65.07 56.9997 65.8 55.9297 65.75 53.8797C65.59 48.4797 65.69 43.0797 65.69 37.6797Z" fill="#A552CC"/>
<path d="M2.40997 22.8597C2.41997 22.5897 2.71997 22.4197 2.94997 22.5597C12.18 27.8897 20.86 32.8697 29.49 37.9397C30.1 38.2997 30.63 39.2697 30.69 39.9997C30.83 41.8197 30.77 43.6497 30.75 45.9397C30.75 46.3297 30.32 46.5797 29.98 46.3797C23.25 42.5097 16.93 38.8697 10.46 35.1397C10.19 34.9897 9.83997 35.1097 9.75997 35.4097C9.13997 37.4897 9.66997 38.7597 11.67 39.8497C17.36 42.9697 22.97 46.2397 28.5 49.6297C29.51 50.2497 30.62 51.6797 30.66 52.7697C30.86 58.3697 30.7 64.0497 30.68 70.1697C30.68 70.6597 30.15 70.9797 29.72 70.7397C28.82 70.2497 28.1 69.8297 27.36 69.3997C20.5 65.4197 13.8 61.1697 6.76997 57.5497C3.16997 55.6897 2.36997 53.4697 2.39997 49.5797C2.40997 48.8097 2.45997 48.2797 2.50997 47.3697C2.52997 47.0997 2.81997 46.9397 3.05997 47.0697C9.65997 50.8797 16 54.5297 22.36 58.1997C22.68 58.3797 23.09 58.1997 23.17 57.8397C24.09 53.7797 23.8 54.6297 15.71 50.0397C12.6 48.2697 9.99997 46.7697 6.13997 44.7697C3.31997 43.3097 1.88997 40.6297 1.95997 38.0597C2.10997 32.6297 2.10997 32.6297 2.40997 22.8597Z" fill="#FFFBE7"/>
<path d="M42.1 35.0296V45.5096C42.1 45.9796 42.61 46.2696 43.02 46.0396C47.38 43.5296 51.36 41.2796 55.27 38.8996C55.84 38.5496 56.1 37.4296 56.18 36.6396C56.33 35.2196 56.22 33.7796 56.22 32.3496C56.22 25.5896 56.21 25.3996 62.89 22.6496C63.07 22.5696 63.29 22.7096 63.29 22.9096C63.29 27.3796 63.3 31.7496 63.3 36.0696C63.3 40.8096 63.39 45.4396 63.38 50.2696C63.38 54.3796 64.43 54.4596 59.32 57.0696C58.49 57.4896 57.64 57.8996 56.4 58.5396C56.38 58.5496 56.36 58.5396 56.36 58.5096V47.4496C56.36 47.0696 55.94 46.8396 55.62 47.0296C51.04 49.6796 46.94 52.0196 42.92 54.4696C42.44 54.7596 42.28 55.7996 42.23 56.4996C42.13 58.0396 42.2 59.5796 42.2 61.1196C42.2 67.5996 42.01 68.1096 35.75 70.4396C35.37 70.5796 34.96 70.2896 34.96 69.8896C34.96 65.5896 34.96 61.4096 34.96 57.2296C34.96 52.2696 34.89 47.3096 34.89 42.3596C34.89 38.1196 34.99 38.0096 38.32 36.4996C39.48 35.9696 40.36 35.4596 41.64 34.7396C41.83 34.6396 42.1 34.7896 42.1 35.0296Z" fill="#FFFBE7"/>
<path d="M5.10999 18.7896L11.8 14.9696C11.91 14.8996 12.05 14.8996 12.17 14.9696L24.63 21.8996C24.89 22.0396 25.2 21.8496 25.19 21.5596L24.65 7.77958C24.64 7.64958 24.71 7.51958 24.82 7.44958L32.13 2.68958C32.37 2.52958 32.69 2.68958 32.71 2.97958L33.83 18.9896C33.84 19.1896 34.01 19.3396 34.21 19.3396L59.08 19.3296C59.46 19.3296 59.6 19.8296 59.27 20.0296L48.23 26.6096C48.17 26.6496 48.1 26.6596 48.03 26.6596L32.71 26.2096C32.32 26.1996 32.17 26.7096 32.51 26.9096L39.34 30.9496C39.6 31.0996 39.58 31.4696 39.32 31.6096L32.97 34.8596C32.86 34.9196 32.72 34.9096 32.61 34.8496L5.10999 19.4496C4.85999 19.2996 4.85999 18.9396 5.10999 18.7896Z" fill="#FFFBE7"/>
</svg>
