<svg width="648" height="403" viewBox="0 0 648 403" fill="none" xmlns="http://www.w3.org/2000/svg">
<path d="M59.7332 392.096L54.6611 392.885V337.129H68.8434V401.767H50.3768L9.11014 346.011L14.0839 345.221V401.767H0V337.129H18.9098L59.7825 392.096H59.7332Z" fill="black"/>
<path d="M117.349 403C109.864 403 103.265 401.569 97.6021 398.757C91.9391 395.944 87.5564 392.046 84.4047 387.013C81.2531 381.981 79.6772 376.109 79.6772 369.398C79.6772 362.688 81.2531 356.816 84.4047 351.783C87.5564 346.751 91.9391 342.853 97.6021 340.04C103.265 337.228 109.815 335.797 117.349 335.797C124.883 335.797 131.433 337.228 137.096 340.04C142.759 342.853 147.142 346.8 150.293 351.783C153.445 356.816 155.021 362.688 155.021 369.398C155.021 376.109 153.445 381.981 150.293 387.013C147.142 392.046 142.759 395.944 137.096 398.757C131.433 401.569 124.883 403 117.349 403ZM117.349 389.974C122.076 389.974 126.115 389.135 129.512 387.457C132.91 385.78 135.569 383.411 137.441 380.303C139.312 377.194 140.248 373.543 140.248 369.349C140.248 365.155 139.312 361.504 137.441 358.395C135.569 355.287 132.959 352.918 129.512 351.241C126.115 349.563 122.027 348.724 117.349 348.724C112.671 348.724 108.682 349.563 105.235 351.241C101.788 352.918 99.1288 355.287 97.2575 358.395C95.3862 361.504 94.4505 365.155 94.4505 369.349C94.4505 373.543 95.3862 377.194 97.2575 380.303C99.1288 383.411 101.788 385.78 105.235 387.457C108.682 389.135 112.72 389.974 117.349 389.974Z" fill="black"/>
<path d="M243.02 395.796H238.046L256.021 337.129H271.336L250.604 401.767H231.94L211.652 344.53H218.004L197.715 401.767H179.052L158.32 337.129H173.783L191.56 395.796L186.734 395.698L207.023 337.08H222.584L242.971 395.747L243.02 395.796Z" fill="black"/>
<path d="M296.844 380.599H311.618C311.962 382.77 312.947 384.694 314.523 386.323C316.099 387.951 318.216 389.234 320.875 390.122C323.535 391.01 326.637 391.454 330.133 391.454C335.255 391.454 339.243 390.714 342.198 389.283C345.153 387.852 346.63 385.78 346.63 383.115C346.63 381.043 345.793 379.464 344.069 378.329C342.395 377.194 339.243 376.405 334.664 375.862L321.663 374.382C313.292 373.444 307.235 371.52 303.492 368.461C299.75 365.402 297.878 361.257 297.878 355.83C297.878 351.586 299.109 347.935 301.621 344.974C304.132 341.965 307.629 339.695 312.159 338.116C316.69 336.537 322.008 335.748 328.164 335.748C334.319 335.748 339.44 336.636 344.069 338.363C348.698 340.139 352.392 342.557 355.149 345.665C357.907 348.774 359.384 352.474 359.631 356.668H344.857C344.562 354.793 343.725 353.116 342.297 351.734C340.869 350.353 338.948 349.218 336.486 348.478C334.024 347.688 331.118 347.293 327.819 347.293C323.19 347.293 319.497 347.984 316.739 349.366C313.981 350.747 312.602 352.721 312.602 355.237C312.602 357.211 313.44 358.691 315.065 359.777C316.69 360.862 319.595 361.652 323.732 362.145L337.224 363.774C343.183 364.415 347.91 365.402 351.456 366.833C355.002 368.264 357.513 370.139 359.04 372.458C360.566 374.777 361.305 377.787 361.305 381.438C361.305 385.731 359.975 389.53 357.415 392.786C354.805 396.043 351.161 398.559 346.433 400.336C341.706 402.112 336.24 403 329.936 403C323.633 403 317.872 402.063 312.996 400.188C308.121 398.313 304.28 395.698 301.473 392.342C298.666 388.987 297.14 385.04 296.893 380.599H296.844Z" fill="black"/>
<path d="M364.358 337.08H430.247V350.007H364.358V337.08ZM390.064 343.642H404.591V401.717H390.064V343.642Z" fill="black"/>
<path d="M470.726 403C463.24 403 456.642 401.569 450.979 398.757C445.316 395.944 440.933 392.046 437.781 387.013C434.63 381.981 433.054 376.109 433.054 369.398C433.054 362.688 434.63 356.816 437.781 351.783C440.933 346.751 445.316 342.853 450.979 340.04C456.642 337.228 463.191 335.797 470.726 335.797C478.26 335.797 484.809 337.228 490.473 340.04C496.136 342.853 500.518 346.8 503.67 351.783C506.822 356.816 508.397 362.688 508.397 369.398C508.397 376.109 506.822 381.981 503.67 387.013C500.518 392.046 496.136 395.944 490.473 398.757C484.809 401.569 478.26 403 470.726 403ZM470.726 389.974C475.453 389.974 479.491 389.135 482.889 387.457C486.287 385.78 488.946 383.411 490.817 380.303C492.689 377.194 493.624 373.543 493.624 369.349C493.624 365.155 492.689 361.504 490.817 358.395C488.946 355.287 486.336 352.918 482.889 351.241C479.491 349.563 475.404 348.724 470.726 348.724C466.047 348.724 462.059 349.563 458.611 351.241C455.164 352.918 452.505 355.287 450.634 358.395C448.763 361.504 447.827 365.155 447.827 369.349C447.827 373.543 448.763 377.194 450.634 380.303C452.505 383.411 455.164 385.78 458.611 387.457C462.059 389.135 466.097 389.974 470.726 389.974Z" fill="black"/>
<path d="M529.474 365.797H554.342C557.592 365.797 560.202 365.056 562.123 363.527C564.043 361.997 564.979 359.876 564.979 357.211C564.979 354.547 564.043 352.425 562.123 350.945C560.202 349.464 557.592 348.724 554.342 348.724H527.356L533.955 341.224V401.816H519.33V337.178H556.066C560.793 337.178 564.881 338.017 568.426 339.744C571.972 341.471 574.779 343.79 576.748 346.751C578.767 349.76 579.752 353.264 579.752 357.26C579.752 361.257 578.767 364.711 576.748 367.671C574.729 370.681 571.972 373 568.426 374.678C564.881 376.356 560.744 377.244 556.066 377.244H529.474V365.846V365.797ZM540.652 371.471H557.346L581.673 401.717H564.536L540.652 371.471Z" fill="black"/>
<path d="M608.511 369.398L604.227 396.783L597.874 389.53H647.562V401.668H589.503L594.476 369.349L589.503 337.03H647.118V349.168H597.825L604.177 341.915L608.462 369.3L608.511 369.398ZM644.902 363.823V375.023H598.711V363.823H644.902Z" fill="black"/>
<path d="M448.558 143.288C448.558 122.335 448.178 101.381 448.748 80.4279C448.938 72.6321 446.162 68.5632 439.507 64.7984C403.419 44.4154 367.558 23.6521 331.774 2.77472C326.222 -0.457659 322.153 -1.21822 316.069 2.39444C279.676 23.8803 242.827 44.6055 206.472 66.1674C202.783 68.373 199.209 74.3054 199.132 78.5645C198.98 90.4673 198.98 102.37 198.904 114.311C198.828 114.197 198.752 114.121 198.752 114.121L198.828 133.401C198.79 145.19 198.866 156.978 198.942 168.767L199.018 191.241L199.094 191.279C199.132 196.451 199.132 201.585 199.209 206.757C199.247 211.016 202.821 216.948 206.548 219.154C242.903 240.716 279.752 261.441 316.145 282.927C322.229 286.502 326.298 285.779 331.85 282.547C367.635 261.669 403.495 240.906 439.545 220.523C446.2 216.758 448.976 212.689 448.786 204.894C448.178 184.358 448.558 163.823 448.558 143.288Z" fill="black"/>
<path d="M207.917 86.9308C207.955 85.9041 209.096 85.2576 209.97 85.79C245.07 106.059 278.079 124.997 310.897 144.277C313.216 145.646 315.232 149.335 315.46 152.111C315.992 159.032 315.764 165.991 315.688 174.699C315.688 176.183 314.053 177.133 312.76 176.373C287.167 161.656 263.134 147.814 238.529 133.629C237.503 133.059 236.172 133.515 235.867 134.656C233.51 142.566 235.525 147.395 243.131 151.54C264.769 163.405 286.102 175.84 307.132 188.732C310.973 191.09 315.194 196.528 315.346 200.673C316.107 221.968 315.498 243.568 315.422 266.841C315.422 268.705 313.407 269.922 311.771 269.009C308.349 267.145 305.611 265.548 302.797 263.913C276.71 248.778 251.231 232.616 224.497 218.85C210.807 211.777 207.765 203.335 207.879 188.542C207.917 185.613 208.107 183.598 208.297 180.137C208.373 179.111 209.476 178.502 210.389 178.997C235.487 193.485 259.597 207.365 283.783 221.322C285 222.006 286.559 221.322 286.863 219.953C290.362 204.513 289.259 207.746 258.494 190.291C246.667 183.56 236.78 177.856 222.101 170.25C211.377 164.698 205.939 154.507 206.206 144.733C206.776 124.084 206.776 124.084 207.917 86.9308Z" fill="white"/>
<path d="M358.85 133.211V173.064C358.85 174.851 360.79 175.954 362.349 175.079C378.929 165.534 394.064 156.978 408.933 147.927C411.101 146.596 412.089 142.337 412.393 139.333C412.964 133.933 412.546 128.457 412.546 123.019C412.546 97.3121 412.508 96.5896 437.91 86.1319C438.595 85.8277 439.431 86.3601 439.431 87.1206C439.431 104.119 439.469 120.737 439.469 137.165C439.469 155.191 439.812 172.798 439.774 191.165C439.774 206.795 443.767 207.099 424.334 217.024C421.178 218.621 417.946 220.181 413.23 222.614C413.154 222.652 413.078 222.614 413.078 222.5V180.441C413.078 178.996 411.481 178.122 410.264 178.844C392.847 188.922 377.256 197.82 361.968 207.137C360.143 208.24 359.535 212.195 359.344 214.857C358.964 220.713 359.23 226.569 359.23 232.426C359.23 257.068 358.508 259.007 334.702 267.868C333.257 268.4 331.698 267.297 331.698 265.776C331.698 249.424 331.698 233.528 331.698 217.633C331.698 198.771 331.432 179.909 331.432 161.085C331.432 144.961 331.812 144.543 344.475 138.801C348.887 136.785 352.233 134.846 357.101 132.108C357.823 131.727 358.85 132.298 358.85 133.211Z" fill="white"/>
<path d="M218.184 71.4534L243.625 56.9267C244.043 56.6605 244.576 56.6605 245.032 56.9267L292.415 83.2801C293.404 83.8125 294.583 83.09 294.545 81.9872L292.491 29.5846C292.453 29.0903 292.719 28.5959 293.138 28.3297L320.936 10.2284C321.849 9.61992 323.066 10.2284 323.142 11.3312L327.401 72.214C327.439 72.9746 328.085 73.545 328.846 73.545L423.422 73.507C424.867 73.507 425.399 75.4084 424.144 76.1689L382.161 101.191C381.933 101.343 381.667 101.381 381.401 101.381L323.142 99.6702C321.659 99.6322 321.088 101.572 322.381 102.332L348.354 117.695C349.343 118.266 349.267 119.673 348.278 120.205L324.13 132.564C323.712 132.793 323.18 132.755 322.761 132.526L218.184 73.9633C217.234 73.3929 217.234 72.0239 218.184 71.4534Z" fill="white"/>
</svg>
