<svg width="304" height="390" viewBox="0 0 304 390" fill="none" xmlns="http://www.w3.org/2000/svg">
<g clip-path="url(#clip0_533_1058)">
<path d="M24.1461 78.9014C9.82005 76.5495 9.74769 76.4876 9.665 67.4102C2.64668 66.5437 0.589757 61.3551 0.227988 55.3207C-0.0924365 50.0805 -0.123445 44.7475 0.496731 39.5486C1.11691 34.3394 4.81729 31.6265 10.1095 31.3273C10.3782 31.317 10.709 31.4305 10.895 31.3067C15.5257 28.3565 20.5594 26.9433 26.048 26.3657C29.2832 26.0253 32.3634 24.2407 36.3946 22.7863C36.8494 19.5989 37.4282 15.318 38.1001 11.0578C38.3895 9.23202 38.7823 7.41653 39.2681 5.63198C40.5601 0.87664 42.2759 -0.402455 46.4725 0.102994C50.6793 0.608443 52.6742 2.69213 52.7466 7.34432C52.8809 16.3289 52.7879 25.3135 52.7879 34.752C56.4986 35.4947 60.4678 36.8873 60.9226 42.1893C61.5014 48.8943 60.8192 55.1556 55.2789 59.9419C54.3797 60.7156 53.1187 61.9328 53.191 62.8508C53.7285 69.4732 49.9868 73.3518 44.4362 74.9507C39.3611 76.4154 38.2965 79.1902 38.5445 83.8115C38.834 89.227 38.6686 94.6632 38.5962 100.089C38.5135 106.65 40.5601 112.282 45.4905 116.758C53.4391 123.969 61.3463 131.221 69.3259 138.39C71.5689 140.411 73.4811 142.619 71.3105 145.497C69.3466 148.107 66.9693 150.716 62.9898 148.86C61.9148 148.354 60.6641 148.127 59.7132 147.457C48.6637 139.617 37.8933 131.427 29.6347 120.534C24.9213 114.314 24.3838 106.794 24.1978 99.336C24.0117 92.6207 24.1461 85.8848 24.1461 78.9014ZM45.8936 63.0365C45.8213 62.758 45.7489 62.4692 45.6766 62.1907C47.0616 61.5614 48.457 60.9425 49.8421 60.2926C56.9741 56.8989 60.106 50.4519 58.6796 42.6638C58.1318 39.6518 56.7157 37.7228 53.6562 37.4443C48.2606 36.9492 42.8548 36.4953 37.4386 36.2993C34.9268 36.2065 32.6529 37.1761 32.2394 40.1572C31.826 43.2002 33.1903 45.3561 36.0328 46.3567C37.9244 47.0272 39.9503 47.2851 42.8341 47.9349C37.9554 49.7092 34.6891 47.8524 31.4435 45.8925C29.2626 49.9567 26.017 51.7516 21.6861 51.9992C20.1977 52.0817 18.5749 52.6903 17.3138 53.5258C14.2646 55.5373 11.4842 54.7946 8.78642 53.0616C6.21269 51.4009 5.6752 49.4925 6.73984 46.563C7.27732 47.5533 7.53573 48.8427 8.30061 49.2966C10.3265 50.5138 12.6005 52.1436 14.6988 52.0404C15.7841 51.9888 17.2311 48.6983 17.5722 46.7177C17.965 44.4587 17.5309 41.983 17.0761 39.6724C16.3422 35.9383 14.2646 33.4007 10.0785 33.3904C6.3884 33.3801 3.03945 35.6494 2.72936 39.8478C2.26423 46.2329 2.52264 52.7212 3.13248 59.1064C3.48391 62.8302 6.25403 65.017 10.2335 65.4503C13.0036 65.7494 15.7427 66.3993 18.4922 66.8944C17.2311 67.7712 16.0632 67.6268 14.9572 67.8125C13.7892 68.0085 11.6909 68.5552 11.7012 68.9162C11.7323 70.6182 11.8149 72.8876 12.8796 73.8676C14.3163 75.1982 16.673 76.1988 18.6265 76.1988C24.5596 76.1885 30.5443 76.0338 36.3843 75.1363C40.064 74.569 43.7333 72.9598 47.0306 71.134C49.9661 69.5042 51.6716 66.6469 50.8033 62.7683C48.9738 62.8611 47.4337 62.954 45.8936 63.0365ZM50.3899 34.0609C50.3899 30.8219 50.3692 27.7892 50.4002 24.7668C50.4622 18.949 50.5553 13.1415 50.6173 7.32369C50.6586 4.14658 48.9428 2.42393 45.9246 1.95974C42.7514 1.47493 41.7694 3.69271 41.1906 6.13743C40.312 9.86125 39.5472 13.6057 38.7823 17.3605C38.007 21.1977 36.7667 25.1382 41.1389 27.8717C41.6351 28.1812 42.0382 28.9651 42.1002 29.5634C42.6274 34.7108 45.9556 34.979 50.3899 34.0609ZM19.5568 51.1843C22.6784 49.9464 25.2728 49.4307 27.2367 48.0175C31.2575 45.1292 31.4228 41.1578 28.4357 34.0712C25.9343 28.1502 19.2984 27.0568 14.7091 31.9153C20.146 36.7429 20.4767 43.0558 19.5568 51.1843ZM40.9736 33.6173C40.6945 30.1617 39.2474 27.5623 36.2602 26.3038C32.8906 24.8803 29.6967 25.8602 26.9679 27.6654C28.7354 30.6775 30.2755 33.3285 31.6089 35.5979C34.6374 34.9583 37.5522 34.3394 40.9736 33.6173Z" fill="#313131"/>
<path d="M45.8927 63.0369C47.4328 62.9441 48.9729 62.8615 50.8024 62.7481C51.681 66.6266 49.9651 69.4839 47.0296 71.1138C43.7427 72.9396 40.063 74.5591 36.3833 75.1161C30.5433 76.0135 24.5483 76.1682 18.6256 76.1786C16.672 76.1786 14.3154 75.1883 12.8786 73.8473C11.814 72.857 11.7313 70.598 11.7003 68.896C11.6899 68.5349 13.7882 67.9985 14.9562 67.7922C16.0622 67.6066 17.2302 67.751 18.4912 66.8742C15.7418 66.379 13.0026 65.7189 10.2325 65.43C6.25307 65.0071 3.48295 62.81 3.13151 59.0861C2.52167 52.701 2.25293 46.2127 2.7284 39.8275C3.03849 35.6292 6.38744 33.3598 10.0775 33.3702C14.2533 33.3805 16.3413 35.918 17.0751 39.6522C17.5299 41.9628 17.9641 44.4384 17.5713 46.6975C17.2198 48.6883 15.7831 51.9686 14.6978 52.0202C12.5995 52.1233 10.3256 50.4832 8.29965 49.2763C7.53476 48.8121 7.26602 47.5227 6.73887 46.5428C5.68457 49.4723 6.21172 51.3806 8.78545 53.0414C11.4832 54.7847 14.2637 55.5171 17.3129 53.5056C18.5739 52.6804 20.1967 52.0718 21.6851 51.9789C26.0263 51.7313 29.2616 49.9365 31.4426 45.8723C34.6778 47.8322 37.9441 49.6889 42.8331 47.9147C39.9493 47.2648 37.9131 47.007 36.0319 46.3365C33.1997 45.3359 31.825 43.18 32.2384 40.137C32.6519 37.1559 34.9155 36.1862 37.4376 36.2791C42.8538 36.4751 48.2597 36.9289 53.6552 37.4241C56.7147 37.7026 58.1308 39.6315 58.6786 42.6436C60.105 50.4316 56.9731 56.8787 49.8411 60.2724C48.4664 60.9326 47.071 61.5412 45.6756 62.1704C45.7376 62.4799 45.8203 62.7584 45.8927 63.0369Z" fill="#89E35B"/>
<path d="M50.3898 34.0614C45.9555 34.9795 42.6273 34.7113 42.0898 29.5536C42.0278 28.9553 41.6246 28.1714 41.1285 27.8619C36.7563 25.1284 37.9966 21.1879 38.7718 17.3507C39.5367 13.6062 40.3016 9.85145 41.1802 6.12764C41.759 3.68291 42.741 1.46513 45.9142 1.94995C48.9427 2.41413 50.6482 4.13679 50.6069 7.31389C50.5345 13.1317 50.4415 18.9392 50.3898 24.757C50.3691 27.8 50.3898 30.8224 50.3898 34.0614Z" fill="#89E35B"/>
<path d="M19.5567 51.1846C20.4766 43.0561 20.1459 36.7535 14.709 31.9156C19.2983 27.0674 25.9342 28.1505 28.4356 34.0715C31.4227 41.1581 31.2574 45.1192 27.2365 48.0178C25.283 49.4206 22.6782 49.9364 19.5567 51.1846Z" fill="#89E35B"/>
<path d="M40.9734 33.6174C37.5521 34.3395 34.6373 34.9584 31.6088 35.5979C30.2857 33.3286 28.7353 30.6879 26.9678 27.6655C29.6965 25.8603 32.8905 24.8804 36.2601 26.3039C39.2369 27.5623 40.6943 30.1618 40.9734 33.6174Z" fill="#89E35B"/>
<path d="M172.43 265.144C172.43 260.822 172.151 256.479 172.492 252.188C172.988 245.886 176.047 242.358 181.515 240.955C187.862 239.325 192.275 241.904 192.958 248.413C194.332 261.472 195.232 274.572 196.4 287.642C196.627 290.221 196.513 293.14 197.733 295.224C199.066 297.493 201.516 299.432 203.914 300.68C206.581 302.073 208.875 300.876 211.015 298.421C220.648 287.374 233.021 285.538 245.342 292.892C246.406 293.532 247.853 293.728 249.135 293.769C251.73 293.872 254.324 293.697 256.918 293.697C273.26 293.635 283.906 302.393 286.811 318.546C288.206 326.324 288.02 333.999 284.34 341.333C283.555 342.89 283.824 345.005 283.72 346.862C282.945 361.706 277.984 374.579 265.735 383.76C255.203 391.661 240.856 392.032 231.822 384.997C221.754 377.158 219.79 362.18 227.119 349.193C228.049 347.543 229.507 346.006 229.879 344.242C230.582 340.992 229.238 338.589 225.682 337.857C218.736 336.433 213.31 332.864 209.341 326.871C208.524 325.643 206.333 324.921 204.679 324.725C200.575 324.23 196.389 324.416 192.296 323.879C183.21 322.693 177.836 317.061 176.554 308.355C174.445 294.037 173.071 279.617 171.386 265.237C171.737 265.216 172.078 265.175 172.43 265.144ZM249.776 316.504C250.365 299.845 247.233 293.852 236.969 291.128C227.656 288.663 216.049 293.398 211.842 301.908C214.498 301.908 216.855 301.815 219.201 301.939C221.62 302.063 224.059 302.228 226.437 302.671C231.812 303.682 235.698 308.964 235.646 314.926C235.605 319.795 232.132 323.054 225.951 323.756C221.258 324.292 216.545 324.601 211.139 325.066C215.801 332.998 222.612 335.68 229.951 336.547C233.228 342.437 230.685 347.13 227.791 351.896C226.654 353.773 225.982 356.022 225.496 358.188C223.46 367.327 224.462 375.951 231.853 382.46C239.357 389.062 248.226 389.443 257.228 386.019C270.242 381.057 276.847 370.546 280.113 357.775C282.325 349.121 283.886 340.27 285.333 331.441C289.168 308.045 271.472 290.922 248.897 296.338C252.412 302.64 253.838 309.077 249.776 316.504Z" fill="#313131"/>
<path d="M60.1883 291.592C61.3356 287.765 64.0644 285.815 68.0232 284.928C69.0568 284.701 70.0491 282.556 70.3695 281.132C73.0879 269.115 75.6513 257.067 78.2561 245.029C79.1657 240.83 81.7911 237.849 85.9463 237.509C97.7916 236.55 109.668 235.797 121.544 235.559C126.506 235.467 128.17 237.767 128.211 241.955C128.253 245.802 125.731 248.918 121.658 249.691C119.157 250.166 116.552 250.135 114.051 250.599C108.893 251.548 103.735 252.549 98.6392 253.776C95.4039 254.56 92.9852 256.644 92.3444 260.027C90.6803 268.795 89.0885 277.584 87.7448 286.403C87.5897 287.414 89.0161 288.807 89.9257 289.818C93.1093 293.335 97.1714 296.327 99.4661 300.329C103.539 307.436 101.678 313.77 94.9698 318.463C92.7579 320.011 91.6622 321.651 91.6415 324.281C91.6105 327.819 91.5795 331.368 91.2178 334.885C90.6493 340.497 90.3702 346.232 88.9748 351.658C86.4321 361.56 80.0029 367.45 69.3772 368.193C57.4595 369.029 47.4126 365.656 39.3193 356.393C33.4587 349.677 26.8331 343.643 20.6417 337.206C17.7062 334.153 14.6363 331.12 12.2486 327.654C-0.423625 309.221 9.73693 294.253 23.1017 287.012C34.3786 280.905 45.4901 281.669 56.0331 289.096C57.1907 289.911 58.3484 290.715 59.5267 291.52C59.6301 291.592 59.8058 291.561 60.1883 291.592ZM72.8812 309.706C72.5504 309.922 72.2197 310.139 71.8889 310.355C68.3126 305.507 65.067 300.35 61.0875 295.852C50.9063 284.351 37.7275 281.297 24.5591 288.167C10.6672 295.409 3.81424 307.849 12.1866 323.054C14.7293 327.664 18.6881 331.574 22.3368 335.483C27.3603 340.868 33.2623 345.51 37.7896 351.255C47.4953 363.572 59.4647 368.389 74.9071 365.026C79.0003 364.139 81.8841 362.283 84.1064 358.92C89.0575 351.431 89.4916 342.972 89.5846 334.4C89.6156 331.151 89.7707 327.891 89.9877 324.652C90.2255 321.269 91.5485 318.68 94.5667 316.565C100.024 312.728 101.316 307.24 98.8563 301.587C94.453 291.478 77.853 283.608 67.1652 286.568C61.8317 288.043 60.5604 291.994 63.7646 296.378C66.9378 300.711 69.8423 305.249 72.8812 309.706Z" fill="#313131"/>
<path d="M249.776 316.504C253.828 309.077 252.412 302.64 248.908 296.327C271.482 290.912 289.178 308.025 285.343 331.43C283.896 340.26 282.346 349.111 280.123 357.765C276.857 370.536 270.252 381.047 257.239 386.008C248.236 389.443 239.357 389.051 231.863 382.45C224.473 375.941 223.47 367.328 225.506 358.178C225.992 356.012 226.664 353.763 227.801 351.886C230.695 347.12 233.238 342.426 229.961 336.536C222.612 335.67 215.801 332.988 211.149 325.055C216.555 324.581 221.279 324.282 225.961 323.745C232.142 323.044 235.615 319.795 235.657 314.916C235.708 308.964 231.822 303.672 226.447 302.661C224.07 302.217 221.63 302.052 219.212 301.929C216.865 301.805 214.519 301.898 211.852 301.898C216.059 293.388 227.667 288.653 236.98 291.118C247.233 293.841 250.365 299.835 249.776 316.504ZM236.318 341.704C244.443 339.827 252.112 341.065 259.451 344.943C252.36 339.363 244.608 338.373 236.318 341.704Z" fill="#89E35B"/>
<path d="M72.8806 309.706C69.852 305.25 66.9372 300.711 63.7536 296.369C60.5391 291.985 61.8104 288.034 67.1543 286.559C77.842 283.609 94.442 291.469 98.8453 301.578C101.316 307.241 100.013 312.729 94.5557 316.556C91.5375 318.68 90.2145 321.259 89.9768 324.643C89.7494 327.882 89.6046 331.141 89.5736 334.391C89.4909 342.952 89.0568 351.411 84.0954 358.91C81.8731 362.273 78.9893 364.13 74.8961 365.017C59.4537 368.39 47.4843 363.573 37.7786 351.246C33.2513 345.5 27.3493 340.858 22.3259 335.474C18.6772 331.564 14.7184 327.655 12.1756 323.044C3.80327 307.839 10.6562 295.399 24.5482 288.158C37.7166 281.288 50.8953 284.351 61.0765 295.842C65.056 300.34 68.3016 305.487 71.8779 310.346C72.219 310.139 72.5498 309.923 72.8806 309.706ZM13.3747 303.569C15.9277 302.155 18.3567 300.412 21.0545 299.37C37.0447 293.16 53.7895 300.165 63.2575 316.36C67.0922 322.91 71.5575 329.15 76.2398 335.144C81.5113 341.88 84.8706 348.78 81.6354 357.435C81.6147 357.487 82.0075 357.683 82.9688 358.312C83.5889 355.176 84.5915 352.36 84.6019 349.554C84.6122 343.066 80.6121 338.3 76.9324 333.4C72.9736 328.109 68.8287 322.858 65.6038 317.113C56.88 301.557 43.1638 293.8 26.7705 296.08C21.4576 296.822 16.6202 298.844 13.3747 303.569ZM22.9667 323.652C23.2768 324.179 23.5869 324.705 23.897 325.231C32.3624 319.774 40.8175 314.327 49.2829 308.871C48.9831 308.396 48.6833 307.932 48.3733 307.457C39.9079 312.863 31.4425 318.258 22.9667 323.652ZM33.6958 334.968C34.0472 335.432 34.3986 335.897 34.7604 336.361C42.0061 331.244 49.2518 326.128 56.4976 321.001C56.1358 320.506 55.7844 320.021 55.4226 319.526C48.1769 324.674 40.9311 329.821 33.6958 334.968ZM43.0294 345.077C43.3292 345.562 43.6289 346.047 43.9287 346.532C51.0607 341.591 58.2031 336.65 65.3351 331.709C64.994 331.214 64.6529 330.729 64.3118 330.234C57.2211 335.185 50.1201 340.126 43.0294 345.077ZM72.9426 342.89C72.6221 342.467 72.3121 342.045 71.9916 341.632C65.0353 345.593 58.8646 350.565 52.8799 355.764C53.1693 356.125 53.4484 356.496 53.7378 356.857C60.1359 352.205 66.5444 347.553 72.9426 342.89ZM13.8915 316.669C14.2532 317.174 14.6253 317.68 14.9871 318.175C21.0338 313.915 27.0805 309.644 33.1273 305.384C32.7862 304.91 32.4451 304.445 32.0936 303.971C26.0366 308.2 19.9589 312.44 13.8915 316.669ZM77.3458 354.186C77.0667 353.773 76.7877 353.371 76.5086 352.958C72.0847 355.898 67.6607 358.838 63.2368 361.778C63.5262 362.201 63.8157 362.624 64.1051 363.057C68.5187 360.096 72.9322 357.146 77.3458 354.186Z" fill="#89E35B"/>
<path d="M236.318 341.704C244.618 338.382 252.36 339.362 259.451 344.943C252.112 341.064 244.443 339.826 236.318 341.704Z" fill="#313131"/>
<path d="M14.0156 303.176C17.2095 298.452 21.9849 296.44 27.246 295.728C43.4637 293.521 57.0868 301.381 65.8107 317.04C69.0252 322.816 73.1597 328.108 77.1082 333.441C80.7672 338.382 84.757 343.179 84.7777 349.698C84.788 352.524 83.8061 355.34 83.2066 358.487C82.2557 357.847 81.8629 357.641 81.8836 357.599C85.0465 348.924 81.6768 341.982 76.426 335.195C71.7644 329.16 67.3094 322.868 63.4747 316.276C54.0066 299.968 37.3859 292.85 21.5921 299.009C18.9357 300.04 16.5377 301.773 14.0156 303.176Z" fill="#313131"/>
<path d="M22.9668 323.652C31.4322 318.257 39.9079 312.862 48.3734 307.457C48.6731 307.932 48.9729 308.396 49.2829 308.87C40.8175 314.327 32.3625 319.773 23.8971 325.23C23.587 324.704 23.2769 324.178 22.9668 323.652Z" fill="#313131"/>
<path d="M33.6963 334.968C40.942 329.821 48.1774 324.674 55.4231 319.526C55.7849 320.022 56.1363 320.506 56.4981 321.001C49.2524 326.118 42.0067 331.234 34.7609 336.361C34.3992 335.897 34.0477 335.433 33.6963 334.968Z" fill="#313131"/>
<path d="M43.0303 345.077C50.121 340.126 57.222 335.185 64.3126 330.233C64.6537 330.729 64.9948 331.213 65.3359 331.708C58.2039 336.649 51.0616 341.591 43.9295 346.532C43.6298 346.047 43.33 345.562 43.0303 345.077Z" fill="#313131"/>
<path d="M72.9426 342.89C66.5444 347.542 60.1463 352.195 53.7378 356.857C53.4484 356.496 53.1693 356.125 52.8799 355.764C58.8646 350.565 65.0353 345.593 71.9916 341.632C72.3121 342.055 72.6222 342.478 72.9426 342.89Z" fill="#313131"/>
<path d="M13.8916 316.669C19.959 312.44 26.0264 308.2 32.1041 303.971C32.4452 304.445 32.7863 304.909 33.1377 305.384C27.091 309.644 21.0443 313.915 14.9976 318.175C14.6255 317.68 14.2534 317.174 13.8916 316.669Z" fill="#313131"/>
<path d="M77.3463 354.185C72.9327 357.146 68.5191 360.096 64.1056 363.057C63.8161 362.634 63.5267 362.211 63.2373 361.778C67.6612 358.838 72.0851 355.898 76.5091 352.958C76.7881 353.371 77.0672 353.773 77.3463 354.185Z" fill="#313131"/>
<path d="M278.387 162.465C276.526 181.889 274.542 201.292 272.898 220.726C272.516 225.193 270.779 227.586 266.686 229.453C230.303 246.019 194.033 262.864 157.608 279.327C155.344 280.348 151.251 279.884 149.194 278.43C116.914 255.643 84.8919 232.496 52.6427 209.668C48.3325 206.615 46.9888 203.592 47.5263 198.311C51.485 159.732 55.1648 121.112 58.6584 82.4808C59.1132 77.4573 60.9944 74.9094 65.5734 72.8567C101.409 56.7442 137.142 40.3945 172.833 23.9829C176.513 22.2912 179.179 22.0436 182.797 24.6534C214.85 47.7493 247.027 70.6802 279.348 93.4047C283.524 96.3446 284.713 99.2741 284.165 104.215C282.025 123.608 280.33 143.042 278.459 162.455C278.439 162.465 278.418 162.465 278.387 162.465ZM204.214 170.893C214.777 166.066 224.142 161.857 233.414 157.442C234.613 156.864 235.936 155.245 236.08 153.976C237.259 143.609 238.179 133.201 239.295 121.586C228.762 126.383 219.356 130.498 210.136 135.017C208.7 135.718 207.501 138.132 207.294 139.896C206.126 149.664 205.309 159.484 204.214 170.893ZM278.149 103.864C267.544 108.702 258.365 112.797 249.311 117.14C247.916 117.811 246.293 119.575 246.127 120.988C244.897 131.334 244.008 141.711 242.913 153.192C253.363 148.468 262.738 144.342 271.978 139.937C273.343 139.287 274.79 137.389 274.966 135.924C276.154 125.753 277.033 115.541 278.149 103.864ZM165.391 188.625C175.717 183.901 184.699 179.878 193.588 175.648C195.056 174.947 197.051 173.482 197.206 172.182C198.487 161.651 199.376 151.067 200.513 139.266C189.908 144.094 180.544 148.251 171.324 152.697C170.001 153.336 168.729 155.338 168.554 156.833C167.365 166.984 166.486 177.175 165.391 188.625ZM274.097 146.085C263.523 150.892 254.314 155.008 245.197 159.309C243.915 159.918 242.313 161.372 242.169 162.579C240.939 173.183 240.008 183.828 238.892 195.474C249.321 190.729 258.717 186.572 267.978 182.126C269.322 181.477 270.738 179.568 270.914 178.103C272.102 167.902 272.981 157.669 274.097 146.085ZM161.308 230.825C171.965 225.987 181.35 221.789 190.663 217.425C191.738 216.92 193.009 215.579 193.133 214.516C194.312 203.943 195.263 193.339 196.4 181.507C185.784 186.356 176.378 190.502 167.158 195.041C165.732 195.743 164.585 198.177 164.378 199.941C163.22 209.72 162.393 219.54 161.308 230.825ZM235.233 163.858C224.483 168.727 214.922 172.987 205.464 177.443C204.472 177.907 203.511 179.465 203.387 180.61C202.26 190.977 201.32 201.354 200.193 213.113C210.922 208.193 220.483 203.943 229.879 199.353C231.109 198.755 231.998 196.496 232.184 194.897C233.279 185.138 234.137 175.329 235.233 163.858ZM157.235 273.014C167.985 268.042 177.526 263.7 186.973 259.182C188.017 258.686 189.143 257.232 189.268 256.118C190.415 245.772 191.345 235.405 192.461 223.718C181.732 228.586 172.337 232.702 163.117 237.2C161.701 237.891 160.512 240.294 160.305 242.027C159.148 251.806 158.321 261.616 157.235 273.014ZM269.746 188.46C259.358 193.195 249.817 197.476 240.37 201.942C239.316 202.437 238.168 203.881 238.044 204.985C236.897 215.29 235.977 225.616 234.861 237.272C245.486 232.444 254.634 228.37 263.678 224.079C264.929 223.48 266.397 221.912 266.541 220.654C267.74 210.297 268.64 199.92 269.746 188.46ZM196.182 254.932C206.663 250.176 216.007 246.019 225.248 241.646C226.457 241.078 227.822 239.49 227.967 238.242C229.145 227.916 230.054 217.559 231.16 206.078C220.721 210.813 211.335 214.919 202.157 219.395C200.71 220.097 199.459 222.459 199.242 224.192C198.074 233.93 197.257 243.719 196.182 254.932Z" fill="#313131"/>
<path d="M204.214 170.894C205.31 159.485 206.136 149.665 207.294 139.886C207.501 138.132 208.7 135.718 210.137 135.007C219.346 130.489 228.752 126.373 239.295 121.576C238.179 133.191 237.269 143.599 236.081 153.966C235.936 155.235 234.613 156.854 233.414 157.432C224.142 161.857 214.767 166.066 204.214 170.894Z" fill="#89E35B"/>
<path d="M278.149 103.864C277.033 115.541 276.154 125.753 274.955 135.924C274.779 137.389 273.332 139.287 271.968 139.937C262.727 144.341 253.352 148.468 242.902 153.192C244.008 141.711 244.887 131.324 246.117 120.988C246.282 119.574 247.905 117.811 249.3 117.14C258.365 112.797 267.544 108.702 278.149 103.864Z" fill="#89E35B"/>
<path d="M165.391 188.625C166.486 177.165 167.365 166.983 168.543 156.823C168.719 155.327 170.001 153.316 171.313 152.686C180.533 148.24 189.898 144.094 200.503 139.256C199.376 151.057 198.477 161.64 197.195 172.172C197.04 173.472 195.045 174.936 193.578 175.638C184.699 179.877 175.717 183.9 165.391 188.625Z" fill="#89E35B"/>
<path d="M274.097 146.085C272.991 157.669 272.112 167.902 270.913 178.093C270.738 179.558 269.332 181.477 267.978 182.116C258.717 186.562 249.321 190.719 238.892 195.464C240.008 183.818 240.938 173.183 242.168 162.569C242.313 161.352 243.915 159.897 245.197 159.299C254.313 155.008 263.523 150.892 274.097 146.085Z" fill="#89E35B"/>
<path d="M161.308 230.825C162.393 219.53 163.22 209.72 164.377 199.941C164.584 198.177 165.742 195.743 167.158 195.041C176.378 190.503 185.784 186.356 196.399 181.508C195.262 193.339 194.311 203.944 193.133 214.517C193.009 215.589 191.738 216.92 190.663 217.426C181.36 221.789 171.964 225.987 161.308 230.825Z" fill="#89E35B"/>
<path d="M235.233 163.858C234.137 175.329 233.279 185.128 232.173 194.907C231.998 196.496 231.098 198.755 229.868 199.364C220.473 203.954 210.922 208.204 200.183 213.124C201.309 201.365 202.25 190.977 203.377 180.621C203.501 179.476 204.462 177.918 205.454 177.454C214.932 172.987 224.483 168.727 235.233 163.858Z" fill="#89E35B"/>
<path d="M157.235 273.015C158.331 261.617 159.158 251.807 160.316 242.038C160.522 240.295 161.701 237.902 163.127 237.211C172.337 232.713 181.743 228.597 192.472 223.729C191.355 235.416 190.415 245.783 189.278 256.129C189.154 257.243 188.027 258.697 186.983 259.192C177.525 263.7 167.985 268.043 157.235 273.015Z" fill="#89E35B"/>
<path d="M269.745 188.46C268.65 199.92 267.74 210.297 266.541 220.654C266.396 221.912 264.929 223.491 263.678 224.079C254.634 228.37 245.486 232.434 234.86 237.272C235.977 225.616 236.907 215.29 238.044 204.985C238.168 203.871 239.315 202.437 240.37 201.942C249.817 197.476 259.347 193.195 269.745 188.46Z" fill="#89E35B"/>
<path d="M196.183 254.932C197.258 243.719 198.074 233.93 199.242 224.182C199.449 222.449 200.71 220.097 202.157 219.385C211.346 214.909 220.721 210.803 231.161 206.068C230.055 217.549 229.145 227.906 227.967 238.231C227.822 239.48 226.458 241.068 225.248 241.635C216.008 246.019 206.664 250.176 196.183 254.932Z" fill="#89E35B"/>
<path d="M123.818 163.208C124.914 151.799 125.968 142 126.692 132.18C126.826 130.416 126.144 127.816 124.924 126.867C117.11 120.73 109.048 114.943 100.045 108.279C98.9286 119.894 97.8537 130.282 97.0371 140.69C96.9337 141.959 97.8743 143.805 98.8976 144.589C106.784 150.654 114.805 156.514 123.818 163.208Z" fill="#89E35B"/>
<path d="M66.8649 83.6875C65.7486 95.3644 64.6633 105.556 63.8984 115.768C63.7847 117.243 64.7976 119.368 65.9553 120.265C73.8109 126.3 81.8421 132.087 90.7727 138.668C91.8787 127.187 92.9743 116.82 93.7392 106.433C93.8426 105.009 92.6539 102.987 91.4652 102.069C83.7854 96.1174 75.9298 90.4027 66.8649 83.6875Z" fill="#89E35B"/>
<path d="M156.967 187.82C158.062 176.36 159.137 166.189 159.912 155.998C160.026 154.492 159.199 152.284 158.083 151.418C150.258 145.342 142.237 139.535 133.172 132.819C132.046 144.62 130.919 155.183 130.154 165.766C130.061 167.076 131.653 168.882 132.904 169.841C140.47 175.648 148.15 181.27 156.967 187.82Z" fill="#89E35B"/>
<path d="M62.8344 125.908C61.7284 137.492 60.6431 147.704 59.8782 157.937C59.7645 159.412 60.7361 161.547 61.8834 162.435C69.7493 168.51 77.8013 174.338 86.7008 180.93C87.8171 169.284 88.9231 158.659 89.7397 148.014C89.8327 146.797 88.5924 145.074 87.5071 144.238C79.7445 138.328 71.8683 132.593 62.8344 125.908Z" fill="#89E35B"/>
<path d="M152.956 230.031C154.041 218.736 155.085 208.947 155.819 199.126C155.953 197.362 155.323 194.742 154.113 193.793C146.31 187.635 138.247 181.817 129.182 175.092C128.045 186.923 126.97 197.507 126.113 208.121C126.03 209.194 126.97 210.741 127.89 211.433C135.818 217.436 143.85 223.305 152.956 230.031Z" fill="#89E35B"/>
<path d="M96.0034 150.562C94.9077 162.032 93.8844 171.821 93.1092 181.631C92.9852 183.23 93.3986 185.613 94.4426 186.428C102.412 192.668 110.588 198.62 119.746 205.439C120.872 193.679 121.927 183.302 122.785 172.915C122.878 171.77 122.268 170.057 121.42 169.418C113.368 163.291 105.192 157.339 96.0034 150.562Z" fill="#89E35B"/>
<path d="M148.935 272.22C150.031 260.822 151.074 251.033 151.808 241.223C151.943 239.48 151.271 236.901 150.072 235.962C142.258 229.835 134.195 224.058 125.037 217.281C123.921 228.968 122.867 239.325 122.019 249.702C121.926 250.816 122.712 252.456 123.601 253.137C131.622 259.316 139.767 265.35 148.935 272.22Z" fill="#89E35B"/>
<path d="M59.041 168.335C57.9454 179.795 56.8601 190.162 56.0642 200.55C55.9712 201.818 57.0565 203.634 58.1211 204.449C65.8113 210.339 73.6462 216.033 82.7214 222.738C83.8377 211.081 84.892 200.766 85.7293 190.441C85.8223 189.327 85.0057 187.697 84.1168 187.016C76.0649 180.889 67.9095 174.916 59.041 168.335Z" fill="#89E35B"/>
<path d="M115.735 247.247C116.81 236.034 117.865 226.266 118.578 216.476C118.702 214.743 117.958 212.185 116.738 211.236C108.944 205.13 100.903 199.374 91.9826 192.782C90.8766 204.263 89.8119 214.609 88.9954 224.966C88.9024 226.214 89.8843 228.03 90.9076 228.813C98.7735 234.817 106.774 240.635 115.735 247.247Z" fill="#89E35B"/>
<path d="M162.93 107.733C153.411 112.385 145.276 116.481 136.997 120.287C135.508 120.968 133.007 121.164 131.735 120.328C123.58 114.964 115.632 109.26 106.598 102.947C116.293 98.2122 124.934 93.9004 133.689 89.8362C134.754 89.3411 136.697 89.6299 137.751 90.3417C145.855 95.7778 153.845 101.42 162.93 107.733Z" fill="#89E35B"/>
<path d="M73.2324 79.6853C82.9795 74.93 91.4449 70.6801 100.055 66.719C101.295 66.1517 103.507 66.4096 104.706 67.2142C112.789 72.6503 120.728 78.334 129.658 84.6057C120.076 89.2889 111.466 93.611 102.711 97.6236C101.512 98.1703 99.3212 97.6958 98.0912 96.8809C90.1426 91.5685 82.3387 86.0292 73.2324 79.6853Z" fill="#89E35B"/>
<path d="M196.296 130.952C186.735 135.625 178.28 139.854 169.701 143.826C168.429 144.414 166.218 144.341 165.06 143.568C156.956 138.173 149.008 132.51 139.901 126.156C149.752 121.349 158.527 116.934 167.458 112.859C168.564 112.354 170.714 113.272 171.995 114.138C179.748 119.368 187.407 124.773 196.296 130.952Z" fill="#89E35B"/>
<path d="M108.469 62.4899C118.133 57.7655 126.619 53.5156 135.24 49.5442C136.48 48.9769 138.692 49.2038 139.87 49.9878C147.995 55.4239 155.964 61.1077 164.915 67.3484C155.199 72.0934 146.362 76.5084 137.4 80.6551C136.377 81.1296 134.423 80.521 133.317 79.7577C125.379 74.3731 117.544 68.8235 108.469 62.4899Z" fill="#89E35B"/>
<path d="M231.532 113.778C222.106 118.379 213.971 122.474 205.702 126.28C204.214 126.961 201.712 127.208 200.451 126.383C192.275 121.03 184.306 115.325 175.189 108.981C185.061 104.164 193.877 99.7904 202.787 95.6127C203.687 95.1898 205.382 95.5818 206.312 96.2213C214.395 101.73 222.395 107.382 231.532 113.778Z" fill="#89E35B"/>
<path d="M141.886 85.7092C151.457 81.0364 159.602 76.9722 167.84 73.1246C169.184 72.4953 171.406 72.1343 172.491 72.8461C180.791 78.3235 188.916 84.0897 198.156 90.4955C188.337 95.2921 179.706 99.5626 170.982 103.678C170.021 104.132 168.316 104.101 167.447 103.513C159.22 97.9225 151.085 92.1562 141.886 85.7092Z" fill="#89E35B"/>
<path d="M266.748 96.6133C257.238 101.255 249.104 105.35 240.835 109.157C239.367 109.837 236.886 110.033 235.635 109.198C227.49 103.834 219.552 98.1193 210.363 91.6929C220.11 86.9272 228.741 82.6567 237.455 78.5615C238.395 78.118 240.101 78.3346 241.01 78.9535C249.279 84.5031 257.466 90.2075 266.748 96.6133Z" fill="#89E35B"/>
<path d="M143.984 45.4597C153.545 40.7869 162.166 36.4854 170.91 32.4315C171.975 31.9364 173.949 32.3799 175.045 33.1123C182.942 38.4453 190.715 43.964 199.831 50.3285C190.105 55.0735 181.515 59.3337 172.843 63.4083C171.913 63.8518 170.197 63.6043 169.288 62.9853C161.039 57.4151 152.905 51.6798 143.984 45.4597Z" fill="#89E35B"/>
<path d="M233.052 73.4551C223.687 78.0248 215.584 82.1096 207.335 85.8953C205.868 86.5658 203.387 86.6793 202.116 85.8438C193.991 80.4901 186.084 74.7961 177.133 68.5347C186.715 63.8516 195.314 59.5707 204.028 55.5168C205.082 55.032 207.015 55.3724 208.059 56.0842C216.132 61.5306 224.07 67.1731 233.052 73.4551Z" fill="#89E35B"/>
<path d="M289.022 226.73C290.211 227.441 291.865 227.906 292.599 228.978C294.159 231.258 296.454 233.981 296.216 236.302C295.906 239.356 296.651 241.542 297.922 244.018C302.408 252.796 304.733 262.09 303.824 272.003C302.914 281.896 298.707 285.681 288.723 285.919C287.854 285.939 286.955 286.311 286.128 286.661C281.611 288.59 277.239 288.941 272.856 286.135C271.906 285.527 270.365 285.599 269.135 285.702C264.98 286.053 261.249 285.527 258.468 281.916C257.962 281.256 256.753 280.988 255.822 280.833C253.61 280.462 251.295 280.565 249.166 279.956C243.946 278.44 242.385 275.356 243.233 269.971C243.532 268.084 243.274 265.928 242.654 264.102C240.959 259.13 241.579 254.498 244.917 250.651C248.452 246.576 252.618 243.048 256.411 239.191C257.311 238.272 258.417 236.983 258.427 235.848C258.499 229.845 261.652 225.595 267.626 225.853C273.074 226.09 274.717 223.687 275.296 219.096C275.74 215.558 276.453 212.061 277.032 208.544C278.045 202.344 275.668 197.682 270.458 194.381C261.518 188.708 252.515 183.117 243.605 177.392C241.403 175.968 239.243 174.338 237.455 172.44C235.119 169.965 234.829 166.932 236.824 164.064C238.633 161.455 241.372 160.691 244.215 161.939C249.776 164.394 255.44 166.746 260.618 169.882C269.456 175.225 277.932 181.146 286.583 186.789C293.302 191.163 294.697 197.527 293.343 204.851C291.989 212.103 290.48 219.334 289.022 226.73ZM287.338 283.34C289.932 283.763 291.637 284.506 293.126 284.186C297.788 283.196 300.279 279.895 301.188 275.377C303.669 263.174 299.844 252.291 294.501 241.903C292.361 242.708 290.635 243.358 288.681 244.101C290.893 241.078 293.777 238.747 294.387 235.931C295.224 232.073 291.679 230.216 289.353 229.143C286.531 231.475 284.505 234.188 281.87 235.033C279.544 235.776 276.154 235.064 274.004 233.754C272.65 232.929 272.691 229.804 272.071 227.545C266.489 226.977 262.251 228.586 260.887 232.238C259.099 237.024 262.934 238.572 266.272 240.336C266.086 240.666 265.89 240.996 265.704 241.336C263.616 240.676 261.518 240.026 258.644 239.129C254.851 243.141 250.54 247.412 246.561 251.981C243.646 255.324 243.284 259.274 244.721 263.545C245.3 265.278 245.383 267.351 245.073 269.177C244.132 274.84 246.023 277.821 251.812 278.574C254.51 278.925 257.29 278.636 260.008 278.636C260.05 283.763 263.481 284.64 273.859 282.68C274.417 283.711 274.717 285.238 275.451 285.486C280.268 287.136 284.567 285.877 287.338 283.34Z" fill="#313131"/>
<path d="M287.338 283.34C284.568 285.878 280.268 287.136 275.462 285.465C274.728 285.207 274.428 283.691 273.87 282.659C263.482 284.619 260.061 283.743 260.02 278.616C257.291 278.616 254.51 278.905 251.823 278.554C246.035 277.801 244.143 274.82 245.084 269.157C245.383 267.341 245.311 265.258 244.732 263.525C243.295 259.254 243.668 255.303 246.572 251.961C250.552 247.402 254.851 243.121 258.655 239.108C261.529 240.006 263.627 240.666 265.715 241.316C265.901 240.986 266.097 240.656 266.283 240.315C262.945 238.551 259.11 237.004 260.898 232.218C262.263 228.566 266.5 226.957 272.082 227.524C272.713 229.783 272.661 232.899 274.015 233.734C276.175 235.044 279.555 235.756 281.881 235.013C284.506 234.178 286.542 231.465 289.364 229.123C291.69 230.186 295.235 232.053 294.398 235.911C293.788 238.727 290.904 241.068 288.692 244.08C290.656 243.338 292.382 242.688 294.512 241.883C299.856 252.271 303.68 263.153 301.199 275.356C300.279 279.874 297.788 283.175 293.137 284.166C291.649 284.506 289.943 283.763 287.338 283.34Z" fill="#89E35B"/>
<path d="M226.447 118.791C223.533 124.568 220.194 131.407 216.628 138.112C214.881 141.402 213.693 141.629 210.023 140.484C202.002 137.988 194.002 135.419 185.919 133.109C184.493 132.696 182.508 132.975 181.175 133.676C171.221 138.937 160.812 142.795 149.701 144.744C134.424 147.437 120.666 144.301 108.821 134.068C101.317 127.58 94.0605 120.823 86.5047 114.407C77.5845 106.836 67.8064 100.585 56.8293 96.3141C51.9506 94.4161 47.0202 93.2917 41.7073 94.1273C40.6013 94.3026 38.5548 93.6115 38.2654 92.8276C37.5625 90.9708 39.33 90.29 40.8494 89.8361C54.8551 85.6997 68.8607 81.553 82.8767 77.4681C84.5202 76.9936 85.4194 76.189 86.3393 74.6108C93.1303 62.9339 99.5388 50.9475 107.27 39.8999C119.126 22.9519 136.584 17.3507 156.523 19.4034C165.867 20.3627 175.045 22.9519 184.317 24.6848C185.557 24.9221 187.077 24.8293 188.214 24.3238C192.017 22.6218 197.899 25.5204 198.891 29.5743C199.129 30.5439 200.276 31.431 201.206 32.0603C214.809 41.179 225.073 52.7527 229.135 69.0509C231.75 79.5621 232.039 90.1765 230.324 100.812C229.414 106.444 227.936 111.983 226.447 118.791Z" fill="#9E75D1" stroke="#52317A" stroke-width="4" stroke-miterlimit="10"/>
</g>
<defs>
<clipPath id="clip0_533_1058">
<rect width="304" height="390" fill="white"/>
</clipPath>
</defs>
</svg>
