<svg width="686" height="617" viewBox="0 0 686 617" fill="none" xmlns="http://www.w3.org/2000/svg">
<g clip-path="url(#clip0_327_717)">
<path d="M596.991 322.946C595.306 320.471 594.339 316.972 594.395 313.981C594.552 308.264 593.107 303.949 587.727 301.297C586.363 300.625 585.295 299.337 584.107 298.332C588.142 289.983 590.48 281.791 587.746 272.971C585.194 264.741 577.081 261.003 568.647 262.957C560.848 264.779 558.315 270.854 555.405 277.62C554.18 274.001 553.388 271.073 552.219 268.322C548.084 258.666 539.769 255.286 529.971 258.942C524.309 261.06 521.914 265.514 520.45 270.929C515.246 290.36 510.457 309.804 498.68 326.86C492.741 335.467 491.83 346.052 493.514 356.613C493.772 358.252 493.118 360.589 492.012 361.777C486.331 367.908 485.067 373.135 490.466 379.204C495.594 385.002 495.789 390.028 491.911 395.984C489.278 400.042 487.022 404.509 483.735 407.97C481.14 410.703 477.262 410.207 475.603 406.368C474.082 402.844 469.368 398.553 474.71 395.129C481.994 390.462 482.924 383.356 484.03 376.019C486.978 356.431 484.684 336.409 489.096 316.959C489.196 316.563 489.115 316.13 489.197 315.734C492.898 297.729 491.591 279.253 494.859 261.129C497.354 247.257 497.373 232.896 497.907 218.711C498.303 207.792 494.878 203.853 484.131 200.586C482.29 200.034 480.492 199.399 477.878 198.507C480.926 196.786 483.521 195.479 486.174 195.083C484.672 193.563 483.144 192.017 481.623 190.516C479.229 191.527 476.835 192.533 474.421 193.525C472.027 194.537 469.614 195.523 467.2 196.49C462.374 198.469 457.56 200.429 452.733 202.408C452.375 202.031 452.023 201.654 451.665 201.277C456.315 195.184 460.89 189.033 465.56 182.94C466.547 181.652 467.54 180.37 468.526 179.101C468.746 178.806 468.96 178.529 469.18 178.253C467.615 176.77 466.151 175.407 464.862 174.22C463.499 176.676 461.758 179.026 459.734 181.438C458.031 183.474 456.585 185.754 454.826 187.752C453.952 188.738 452.412 190.145 451.52 189.925C446.272 188.638 441.132 186.935 435.664 185.277C438.197 178.768 440.233 173.384 442.395 168.082C445.82 159.595 445.82 151.302 441.483 143.091C439.485 139.272 437.405 135.433 435.94 131.4C431.529 119.369 423.315 111.692 411.242 107.364C406.214 105.561 401.903 101.861 397.152 99.2158C395.606 98.3426 393.808 97.8714 392.067 97.4568C389.949 96.9605 387.75 96.8411 385.632 96.3511C379.454 94.9439 373.339 92.3744 367.149 92.2174C354.856 91.8781 342.507 92.7137 330.214 93.3482C313.371 94.2214 302.605 102.508 298.728 119.325C297.741 123.578 295.598 127.555 294.253 130.96C288.119 129.854 283.111 128.504 278.045 128.133C271.138 127.58 263.955 126.65 257.262 127.913C248.338 129.578 246.339 136.602 252.039 143.424C256.175 148.368 260.806 152.879 264.25 156.56C258.311 158.181 251.524 160.085 244.718 161.9C244.007 162.095 243.172 161.762 242.405 161.699C236.309 161.266 230.232 160.631 224.135 160.474C220.553 160.374 216.971 161.027 212.301 161.442C218.341 150.322 223.683 140.195 229.345 130.219C234.216 121.631 234.354 121.731 228.277 113.759C226.894 111.956 225.625 110.078 224.475 108.118C221.326 102.715 216.776 99.1781 210.762 97.394C204.05 95.3962 197.382 93.3168 190.751 91.1242C189.268 90.628 186.692 89.183 186.811 88.7307C188.08 83.6044 182.613 81.9459 181.702 78.5032C179.785 71.1655 174.38 69.3436 168.34 67.5406C163.627 66.1334 158.624 64.99 154.489 62.496C144.358 56.3645 133.649 61.3903 123.317 60.1024C122.682 60.0208 121.614 60.6553 121.281 61.2521C119.22 64.7953 116.511 63.4886 113.777 62.4394C107.838 60.1464 101.981 57.533 95.9036 55.6734C87.2937 53.0412 79.8527 56.0881 76.9617 62.6153C68.8043 81.0349 60.6154 99.4357 52.4013 117.811C48.1843 127.266 50.8553 135.125 60.3577 139.674C65.1655 141.967 70.2937 143.613 75.202 145.667C77.0623 146.458 79.2808 147.212 80.4057 148.695C84.9746 154.688 89.1728 160.939 93.9805 167.787C93.3269 169.213 91.1085 171.845 91.1902 174.396C91.5295 185.616 84.8992 194.222 80.544 203.52C77.9296 209.137 73.0212 213.71 69.0054 218.635C68.5089 219.251 67.1451 219.27 66.1584 219.389C61.1119 220.024 58.1455 223.027 56.2413 227.562C53.8468 233.361 51.2513 239.078 48.662 244.989C47.3925 244.28 46.8394 244.041 46.3681 243.702C34.4713 235.352 20.1863 239.744 15.0957 253.119C14.4421 254.84 12.8395 256.643 11.2181 257.453C6.09611 260.036 4.2987 264.169 4.33641 269.528C4.35526 271.149 4.73234 273.448 3.83992 274.296C-1.80369 279.837 -0.157111 285.812 2.01737 292.025C2.49501 293.331 2.65212 294.915 2.39445 296.259C0.496492 306.11 2.61442 314.622 10.8661 321.25C8.72937 325.327 7.10793 329.36 4.68835 332.866C-4.4181 346.178 4.92716 357.417 16.3841 359.063C27.8661 360.703 36.5892 360.665 40.2343 347.133C41.5226 342.264 44.3696 337.835 46.0727 334.135C54.3873 334.788 61.9037 335.303 69.4076 335.994C71.1861 336.151 72.9081 336.962 74.7118 337.263C80.0978 338.111 85.4774 338.928 90.8822 339.657C95.1746 340.229 99.8881 339.776 103.747 341.359C117.366 346.938 131.079 351.43 146.753 350.261C146.3 353.446 145.86 356.217 145.527 358.987C144.716 365.716 144.716 372.086 150.989 376.791C160.371 383.815 169.572 391.077 178.779 398.314C183.669 402.191 188.753 404.904 195.05 402.172C199.248 418.952 217.907 419.599 226.322 431.435C226.065 431.887 225.826 432.503 225.43 432.936C215.651 443.145 204.766 452.505 199.286 466.131C198.89 467.08 197.564 467.972 196.477 468.305C189.507 470.479 184.9 474.656 182.481 481.799C181.117 485.776 178.484 488.327 172.922 486.228C165.066 483.282 157.349 487.02 154.395 494.936C151.127 503.699 148.732 512.821 157.858 520.618C135.315 541.236 113.067 561.572 90.7816 581.932C92.0072 582.743 93.1384 583.478 94.2633 584.207C94.1439 584.741 94.0245 585.256 93.9051 585.771C90.0841 585.771 86.263 585.595 82.4671 585.871C81.1787 585.972 79.9909 587.253 78.7654 588.007C79.9155 588.956 80.9399 590.558 82.2094 590.778C85.5968 591.331 89.0785 591.293 92.8556 591.513C94.0622 605.56 97.9021 610.466 111.106 613.551C118.472 615.291 126.089 616.497 133.63 616.717C153.144 617.27 172.821 618.143 190.689 607.614C192.788 606.389 195.836 606.37 198.425 606.465C214.042 607.036 229.66 608.525 245.252 608.381C309.437 607.809 373.622 606.798 437.807 605.83C444.751 605.711 451.683 604.781 458.609 604.228C458.59 603.675 458.553 603.123 458.527 602.563C456.07 602.287 453.619 602.011 451.162 601.734C474.93 596.627 499.572 601.634 523.284 596.394C523.266 595.622 523.228 594.849 523.203 594.057H486.431C486.412 593.385 486.375 592.694 486.35 592.022C488.782 591.708 491.239 591.149 493.69 591.13C507.466 591.029 521.261 591.167 535.056 590.935C536.897 590.916 538.738 589.27 540.58 588.384C538.82 587.536 537.054 585.972 535.275 585.953C522.115 585.733 508.93 585.853 495.77 585.815C493.791 585.796 491.811 585.476 489.812 585.3C489.85 584.489 489.894 583.679 489.913 582.843H528.922C528.978 582.253 529.022 581.637 529.079 581.021C527.853 580.569 526.647 579.834 525.396 579.715C515.183 578.886 504.971 578.012 494.74 577.497C491.572 577.34 490.07 576.624 488.367 573.502C485.3 567.86 481.284 562.539 476.847 557.871C472.197 553.003 466.478 549.208 461.412 544.716C457.258 541.054 453.456 537.002 449.358 533.239C444.55 528.81 439.623 524.531 434.771 520.222C440.491 513.456 441.622 501.94 436.732 494.797C432.754 488.98 426.4 489.099 420.065 490.877C416.05 492.027 415.515 489.238 414.541 486.21C412.957 481.247 410.701 476.497 408.187 470.322C410.104 468.242 413.511 464.705 416.76 461.024C426.777 449.647 426.991 444.621 418.224 432.396C418.023 432.138 418.167 431.623 418.105 430.637C420.757 429.229 423.723 427.904 426.438 426.145C429.348 424.266 432.377 422.325 434.652 419.793C440.453 413.266 448.962 413.662 453.927 420.78C457.333 425.63 460.419 431.045 464.894 434.745C476.514 444.363 490.78 442.642 501.213 429.719C507.189 422.338 511.425 413.417 515.642 404.791C517.704 400.595 519.583 398.578 524.585 398.459C533.076 398.258 541.051 396.361 547.386 389.475C554.532 381.717 562.488 374.718 570.105 367.393C570.363 367.136 570.859 366.979 571.236 366.979C577.112 367.117 579.645 362.845 582.693 358.868C584.773 356.179 587.564 353.805 590.492 352.046C601.918 345.223 604.388 333.871 596.991 322.946ZM427.506 131.965C435.186 143.814 440.315 154.305 433.722 167.416C429.8 175.231 427.626 183.913 424.559 192.149C423.729 194.386 422.523 196.484 421.473 198.639C413.617 194.543 412.882 191 415.654 183.857C421.926 167.661 426.243 150.9 427.506 131.965ZM304.064 130.841C305.823 125.381 307.489 119.859 309.267 114.4C311.523 107.358 317.4 103.915 323.678 101.993C337.85 97.639 352.455 98.7886 368.029 99.5613C366.545 101.578 365.691 102.709 364.39 104.505C366.149 104.606 367.438 105.077 368.33 104.681C376.029 101.157 382.999 103.236 390.081 106.799C396.869 110.222 403.82 113.407 410.959 115.958C417.627 118.333 420.003 122.982 420.581 129.452C421.75 142.45 418.821 154.795 414.604 166.907C412.543 172.844 409.991 178.617 407.301 185.327C395.725 179.61 384.978 174.107 374.068 168.943C351.802 158.376 329.497 147.91 307.112 137.607C303.693 136.024 303.039 134.064 304.064 130.841ZM398.591 185.98C398.075 186.966 397.56 187.94 397.045 188.927C392.137 186.056 387.228 183.172 382.301 180.301C382.659 179.666 382.992 179.057 383.332 178.423C388.422 180.936 393.507 183.467 398.591 185.98ZM256.684 134.522C256.627 133.888 256.583 133.253 256.545 132.606C262.283 132.606 268.241 131.657 273.765 132.763C305.767 139.215 335.103 152.288 362.372 170.017C371.617 176.029 380.485 182.6 388.812 190.158C383.746 187.268 378.379 184.799 373.653 181.413C349.212 163.885 322.434 151.403 293.694 142.538C281.502 138.775 269.844 133.592 256.684 134.522ZM363.937 505.44C362.354 507.971 362.454 511.791 362.435 515.033C362.335 528.169 362.354 541.324 362.592 554.485C362.674 558.518 363.579 562.539 364.157 566.849H243.681C243.542 564.832 243.304 562.853 243.304 560.855C243.247 545.225 243.266 529.614 243.203 514.009C243.203 511.948 243.561 509.536 242.631 507.934C238.156 500.156 237.547 491.436 235.486 483.006C234.354 478.413 230.42 474.518 226.876 468.921C234.317 461.816 242.688 453.843 249.915 446.939C257.733 453.347 264.326 458.97 271.132 464.31C280.358 471.509 289.678 478.577 299.08 485.556C302.681 488.226 306.364 489.256 311.41 489.219C331.521 489.081 344.342 474.28 360.393 466.207C368.965 461.891 378.48 458.078 383.948 448.893C384.739 447.548 388.737 448.12 391.112 447.825C394.022 457.399 387.014 470.184 378.128 472.495C370.134 474.594 366.809 478.646 367.004 487.114C367.161 493.472 367.639 499.566 363.937 505.44ZM393.387 585.564H223.061C222.979 585.224 222.904 584.873 222.822 584.533C225.694 583.943 228.541 582.793 231.394 582.793C283.425 582.674 335.462 582.674 387.492 582.711C389.553 582.711 391.609 583.384 393.67 583.742C393.588 584.357 393.488 584.954 393.387 585.564ZM405.146 591.997C405.089 592.707 405.007 593.423 404.926 594.133H209.147C209.065 593.617 208.989 593.102 208.908 592.587C211.66 592.11 214.388 591.205 217.141 591.205C274.079 591.123 331.025 591.105 387.963 591.167C393.701 591.186 399.427 591.72 405.146 591.997ZM383.966 577.258H239.803C239.684 576.806 239.564 576.348 239.445 575.895C241.286 575.323 243.128 574.293 244.969 574.274C288.553 574.174 332.15 574.174 375.734 574.274C378.505 574.274 381.258 575.443 384.004 576.077C384.004 576.467 383.985 576.863 383.966 577.258ZM236.598 505.597C232.186 504.353 228.642 503.36 224.802 502.292C228.899 497.21 232.997 498.215 236.598 505.597ZM210.944 320.414C212.232 307.573 213.42 294.732 214.903 281.891C215.714 274.887 219.196 273.065 225.593 276.47C235.372 281.634 245.107 286.936 254.471 292.81C256.709 294.217 258.688 298.213 258.531 300.883C257.702 315.407 256.313 329.907 254.748 344.369C253.874 352.404 249.129 354.577 242.26 350.261C233.06 344.507 223.733 338.828 215.148 332.2C212.182 329.907 211.271 324.938 209.429 321.2C209.913 320.948 210.429 320.672 210.944 320.414ZM206.174 252.019C194.063 245.253 183.254 239.436 172.727 233.147C171.143 232.218 170.037 229.033 170.176 226.972C170.949 214.703 172.237 202.459 173.167 190.196C173.444 186.577 175.341 185.961 178.572 185.05C190.054 181.828 198.821 188.135 208.04 192.69C209.8 193.563 211.66 196.647 211.503 198.526C210.033 215.852 208.116 233.147 206.174 252.019ZM303.353 390.116C292.487 383.092 281.722 375.95 270.837 368.964C266.224 366.017 264.087 362.141 264.703 356.581C266.249 342.534 267.713 328.468 269.058 314.383C269.95 305.205 273.489 303.264 281.546 307.756C292.651 313.969 303.932 319.88 314.754 326.552C317.94 328.512 319.882 332.508 322.396 335.573C321.88 335.95 321.346 336.346 320.831 336.723C319.31 352.63 318.059 368.574 316.143 384.443C315.011 393.936 311.373 395.299 303.353 390.116ZM312.736 418.367C311.511 433.307 310.637 448.265 308.953 463.141C307.866 472.678 301.889 474.638 294.31 468.858C284.355 461.244 274.318 453.743 264.225 446.323C258.525 442.127 256.489 437.063 257.538 429.801C259.436 416.803 260.272 403.648 261.711 390.568C262.66 382.081 266.657 380.341 273.765 384.99C284.411 391.976 295.039 398.999 305.748 405.885C310.398 408.869 313.604 412.493 312.736 418.367ZM309.764 309.515C299.513 303.835 289.339 298.018 278.95 292.596C273.684 289.845 271.409 286.088 272.081 280.189C273.702 266.104 275.072 251.994 276.65 237.909C277.461 230.729 282.155 227.5 288.723 230.314C300.638 235.396 312.252 241.138 324.011 246.56C329.334 249.016 328.882 253.546 328.442 256.668C326.94 272.694 325.595 287.213 324.168 301.737C323.263 311.016 317.764 313.925 309.764 309.515ZM276.103 209.225C259.876 209.344 247.665 197.885 233.355 191.678C249.978 187.387 266.708 185.76 283.312 186.219C297.842 186.634 309.99 195.774 323.37 201.692C307.69 205.845 291.991 209.105 276.103 209.225ZM262.126 217.894C264.206 218.962 266.067 222.939 265.884 225.433C264.835 240.171 263.37 254.89 261.592 269.572C260.58 277.94 256.878 279.799 249.343 275.886C240.042 271.061 230.835 265.972 221.93 260.456C219.416 258.892 218.108 255.393 217.241 254.187C219.045 236.835 220.704 221.739 222.131 206.624C222.608 201.541 225.235 200.63 229.239 202.427C240.274 207.403 251.379 212.334 262.126 217.894ZM381.729 230.672C369.933 233.342 358.055 235.78 346.24 238.368C339.352 239.888 332.979 239.021 326.588 235.799C316.689 230.836 306.477 226.501 296.447 221.808C294.272 220.796 292.248 219.534 290.156 218.365C290.193 217.63 290.237 216.901 290.275 216.166C303.812 209.262 319.134 210.487 333.601 207.918C341.52 206.492 376.947 219.886 388.366 227.764C385.808 228.913 383.866 230.195 381.729 230.672ZM307.036 185.98C309.55 184.692 311.53 183.034 313.748 182.695C336.568 179.132 353.052 181.645 373.993 191.634C375.218 192.225 376.167 193.337 377.657 194.524C352.876 202.817 329.774 201.51 307.036 185.98ZM325.915 175.156C311.329 182.914 272.559 178.561 259.694 167.397C270.956 161.567 312.673 166.65 325.915 175.156ZM214.822 167.956C218.624 168.39 222.583 167.617 226.442 167.045C242.336 164.69 254.999 172.882 268.103 180.025C245.78 181.036 223.356 191.615 201.58 178.108C203.823 171.437 207.048 167.083 214.822 167.956ZM222.03 116.479C226.348 118.735 227.812 121.681 225.254 125.953C215.613 142.155 205.998 158.401 196.118 174.484C194.95 176.381 192.279 177.373 190.318 178.8C189.865 178.247 189.407 177.713 188.973 177.179C199.921 157.057 210.887 136.935 222.03 116.479ZM172.388 79.1628C160.233 75.0856 148.619 71.1718 136.326 67.038C141.97 64.0854 170.194 73.6407 172.388 79.1628ZM130.394 69.5447C146.25 75.1422 162.163 80.6266 178.471 86.2806C178.434 89.7233 177.623 92.5503 173.425 91.1305C156.959 85.5142 140.587 79.6151 123.965 73.7412C124.335 68.2631 126.868 68.3196 130.394 69.5447ZM86.1562 141.464C85.7037 142.099 83.5606 142.055 82.4734 141.621C75.9813 139.027 69.571 136.281 63.1544 133.473C57.8878 131.161 56.2664 127.103 58.466 121.882C60.7788 116.404 63.456 111.083 65.9699 105.68C68.446 100.416 70.9159 95.1323 73.3732 89.8741C76.283 82.4359 78.8723 74.8783 82.178 67.616C84.2959 62.986 88.6134 61.227 93.5972 62.8478C100.843 65.2036 107.989 67.8359 115.128 70.4242C116.04 70.7383 117.485 71.5299 117.504 72.1078C117.586 79.4455 123.776 79.2885 128.288 80.8716C143.233 86.1361 158.197 91.2373 173.255 96.1438C175.769 96.9542 178.716 96.3637 181.45 96.483C183.43 96.5647 185.548 96.3071 187.37 96.8977C195.565 99.5865 203.717 102.439 211.83 105.404C218.146 107.697 219.566 110.863 216.38 116.781C206.048 135.973 195.54 155.065 184.913 174.094C181.708 179.811 177.409 181.218 171.294 178.686C163.495 175.482 155.916 171.801 148.255 168.258C147.362 167.843 145.98 167.052 145.98 166.455C146.08 159.846 140.594 159.551 136.421 157.792C122.783 152.037 109.127 146.314 95.4888 140.578C92.2334 139.209 89.0659 137.45 86.1562 141.464ZM92.7676 150.963C91.0833 150.209 90.1343 147.797 88.846 146.138C90.7879 145.943 93.0253 144.988 94.6279 145.623C110.025 151.736 125.347 158.125 140.883 164.52C139.381 169.307 137.696 170.413 134.058 168.811C120.338 162.755 106.462 157.057 92.7676 150.963ZM95.1055 158.2C95.3632 157.565 95.6208 156.956 95.8973 156.34C106.405 160.795 116.919 165.242 127.427 169.678C127.132 170.369 126.837 171.06 126.535 171.757C116.065 167.24 105.576 162.711 95.1055 158.2ZM114.022 170.406C111.408 175.57 111.823 182.374 104.96 183.901C102.999 184.334 99.379 182.732 98.3672 180.992C95.0426 175.175 99.2408 170.727 102.308 165.481C106.481 167.24 110.006 168.729 114.022 170.406ZM96.4504 185.346C100.271 185.936 101.893 187.067 99.9761 190.704C96.4504 197.433 93.3269 204.375 89.7258 211.065C89.0345 212.353 86.9543 212.906 85.5088 213.798C84.9181 213.208 84.321 212.611 83.7303 212.02C87.9787 203.093 92.2334 194.191 96.4504 185.346ZM80.5188 215.262C82.1403 214.552 87.0926 217.103 87.3879 218.742C87.9033 221.569 85.9425 224.836 84.9118 228.26C81.0907 226.281 78.2249 224.817 74.1839 222.738C76.4401 219.892 77.961 216.386 80.5188 215.262ZM51.5215 254.375C55.462 246.045 59.283 237.639 63.6508 229.504C64.581 227.801 67.7107 226.08 69.5898 226.281C76.063 227.016 82.3728 228.674 86.0556 235.799C81.5621 232.953 77.5839 230.44 73.6057 227.902C73.4298 228.178 73.2475 228.473 73.0715 228.75C76.6349 232.827 82.2157 236.508 83.127 241.094C83.9754 245.385 79.8589 250.669 77.9421 255.519C77.2697 255.223 76.6161 254.928 75.9436 254.626C77.8604 250.392 79.7647 246.177 81.6626 241.943C80.8708 241.547 80.0789 241.132 79.287 240.736C74.4981 249.758 69.6904 258.798 64.8952 267.819C64.2605 267.48 63.6069 267.147 62.9533 266.789C67.4845 257.428 72.0157 248.074 77.3388 237.093C75.378 237.765 74.0708 238.242 73.0024 238.613C72.6065 238.751 72.2482 238.871 71.8963 238.99C71.7015 239.072 71.5192 239.147 71.3244 239.21C71.3432 239.247 71.3621 239.291 71.381 239.329C71.2804 239.449 71.1798 239.568 71.0856 239.687C71.1421 239.53 71.205 239.392 71.2616 239.235C71.2804 239.235 71.2993 239.216 71.3181 239.216C69.9355 236.703 68.5277 234.171 66.3532 230.176C61.2438 240.045 56.6749 248.891 52.106 257.736C51.7666 257.617 51.4146 257.497 51.0753 257.378C51.2261 256.373 51.1067 255.267 51.5215 254.375ZM42.3773 300.789C41.8054 301.976 40.9319 303.025 39.191 305.676C39.6687 302.906 39.6247 301.875 40.0206 301.046C49.4601 281.716 58.9248 262.385 68.4586 243.08C68.5403 242.923 68.6157 242.784 68.7163 242.627C68.754 242.527 68.8168 242.451 68.8734 242.37C69.4893 241.44 70.3188 240.611 71.073 239.738C69.0368 244.845 67.252 250.066 64.8952 254.991C57.5359 270.32 49.9189 285.554 42.3773 300.789ZM29.0162 246.975C35.0934 246.064 43.2258 248.991 45.8779 253.684C41.5855 252.12 37.9215 250.794 34.2576 249.488C34.1193 249.802 33.9811 250.141 33.8428 250.455C37.3873 252.333 41.1644 253.898 44.4324 256.191C48.31 258.961 53.2183 261.851 50.472 267.926C48.1152 273.147 41.4095 275.207 35.6653 271.746C30.7382 268.755 25.8676 264.879 22.4613 260.293C18.0118 254.256 21.4998 248.105 29.0162 246.975ZM15.9127 261.776C16.7423 261.895 17.5781 262.033 18.4266 262.171C24.5227 269.767 31.3729 276.08 41.6043 277.111C42.3773 277.192 43.804 279.957 43.4269 280.811C42.1574 283.581 40.7748 287.357 38.3992 288.425C29.8269 292.264 11.7963 280.83 11.658 271.413C11.6203 268.221 14.4107 264.98 15.9127 261.776ZM9.81661 279.24C17.1382 287.275 26.1064 292.32 37.1297 293.344C36.696 299.733 32.9755 301.612 28.7585 302.089C20.6262 302.981 13.8136 299.915 8.94933 293.325C5.83844 289.116 5.83844 284.568 9.81661 279.24ZM8.84878 299.821C17.0251 305.224 25.4717 308.346 34.8546 304.765C37.1297 312.599 34.6535 316.419 27.4513 316.852C16.6669 317.525 8.29573 310.325 8.84878 299.821ZM26.0121 321.997C23.2595 327.614 20.5131 333.218 17.7415 338.834C17.1885 338.558 16.6103 338.262 16.0384 337.986C18.8476 332.388 21.6569 326.766 24.4724 321.149C24.9815 321.445 25.4968 321.721 26.0121 321.997ZM21.7511 355.513C17.773 353.139 13.7571 350.946 9.99258 348.37C9.14416 347.78 8.52826 345.638 8.94305 344.708C9.35783 343.74 11.2809 342.628 12.3053 342.829C16.6417 343.659 21.1101 344.494 25.1134 346.272C26.8543 347.045 27.5456 350.111 28.7145 352.146C26.7223 353.101 24.7426 354.068 21.7511 355.513ZM27.5142 342.93C26.98 342.635 26.4646 342.314 25.9493 342.019C36.5578 320.377 47.1662 298.728 57.7747 277.067C58.1706 277.167 58.5666 277.268 58.9625 277.343C58.7237 279.046 58.9059 280.962 58.1706 282.425C48.5489 302.133 38.8139 321.778 29.0539 341.422C28.7585 342.038 28.0295 342.434 27.5142 342.93ZM32.875 346.768C32.1837 346.429 31.4923 346.096 30.7947 345.757C40.2971 326.426 49.8121 307.096 59.3144 287.772C59.9869 288.13 60.6405 288.482 61.2941 288.84C51.8357 308.151 42.3585 327.457 32.875 346.768ZM77.7662 330.309C80.7136 326.948 83.7051 323.543 86.6715 320.138C86.395 319.943 86.1184 319.761 85.8608 319.566C80.0223 322.927 74.4981 327.897 68.2261 329.222C62.13 330.491 55.2231 328.035 47.2291 327.048C52.3762 316.463 56.5932 307.756 61.3004 298.081C65.1592 305.067 69.8726 309.376 78.4198 308.861C74.2656 305.777 69.9103 303.817 67.5725 300.456C65.1969 297.069 64.8198 292.308 63.5754 288.13C73.0778 291.434 80.2612 290.919 86.3384 284.687C90.3354 280.572 91.2656 275.603 89.0282 270.364C86.8726 274.101 85.3266 278.122 82.6368 281.106C78.9351 285.221 73.8885 286.49 68.5843 284.034C61.9163 280.949 61.5015 275.05 67.2394 270.64C69.9481 268.542 72.2482 265.872 74.7432 263.497C78.0678 260.35 80.544 255.267 86.3007 257.045C92.0386 258.823 96.7709 263.415 96.6892 268.919C96.5321 279.385 98.5118 290.442 92.8682 300.198C90.9262 303.584 87.7839 306.292 84.5976 309.992C87.4068 308.905 89.5436 308.095 92.4157 306.983C91.3661 308.962 90.656 310.306 89.9395 311.651C90.3354 311.99 90.7502 312.342 91.1462 312.681C94.2948 308.842 97.4182 305.023 100.51 301.266C105.62 306.926 103.715 317.707 95.7025 326.47C89.5624 333.192 83.4475 334.48 77.7662 330.309ZM100.014 330.051C109.101 332.112 118.164 334.185 129.011 336.66C117.372 337.351 107.731 337.59 100.014 330.051ZM153.967 314.974C154.068 320.1 151.454 321.878 147.255 321.464C136.509 320.396 125.762 319.032 115.053 317.449C111.112 316.877 110.063 314.163 109.73 309.973C109.296 304.709 106.782 299.645 105.393 294.443C104.639 291.616 103.376 288.406 104.03 285.818C108.027 270.087 104.646 257.667 88.3558 249.946C91.5986 243.733 95.0049 238.211 90.4548 232.061C90.1595 231.665 90.216 230.817 90.3983 230.258C93.6663 220.922 96.5132 211.423 100.416 202.339C103.225 195.768 105.601 188.726 113.061 184.912C115.813 183.486 116.919 178.875 118.308 176.525C125.473 176.525 132.914 178.542 138.356 176.111C148.864 171.399 154.86 180.383 163.099 181.985C164.444 182.242 165.946 186.552 165.77 188.87C164.896 200.323 161.792 211.857 162.703 223.115C163.633 234.429 159.674 244.562 158.926 255.343C158.134 266.399 156.946 277.444 156.356 288.5C156.117 292.929 157.047 297.421 157.286 301.875C157.367 303.119 156.89 304.426 156.55 305.676C155.645 308.78 153.905 311.889 153.967 314.974ZM193.492 384.475C192.995 388.847 189.595 389.601 186.761 387.603C177.202 380.894 167.9 373.832 158.775 366.57C157.367 365.446 156.695 362.455 156.877 360.439C157.807 349.005 158.794 337.565 160.403 326.213C161.748 316.758 166.581 314.76 174.493 319.78C180.709 323.757 187.062 327.595 192.863 332.124C195.635 334.26 197.237 337.879 198.425 339.544C196.634 355.985 195.151 370.252 193.492 384.475ZM190.066 316.356C182.192 311.55 174.33 306.6 167.027 300.983C164.808 299.262 163.269 295.047 163.426 292.1C164.079 280.447 165.487 268.812 166.713 257.202C167.643 248.457 172.036 246.359 179.615 250.75C186.189 254.551 193.014 257.95 199.368 262.09C202.039 263.83 203.761 267.034 205.897 269.591C205.42 269.949 204.93 270.326 204.452 270.697C203.226 284.191 202.158 297.704 200.769 311.173C200.141 317.192 195.308 319.585 190.066 316.356ZM209.957 405.627C205.269 402.304 203.208 398.208 203.823 392.51C205.206 379.87 206.375 367.205 207.783 354.565C208.675 346.649 212.295 344.833 218.925 349.043C227.913 354.759 236.698 360.834 245.685 366.57C250.141 369.397 252.473 373.022 251.744 376.779C250.16 392.667 249.073 407.009 247.194 421.232C246.006 430.115 243.769 430.63 236.742 425.328C227.887 418.644 219.001 412.016 209.957 405.627ZM196.282 475.109C199.669 481.655 204.81 484.35 211.089 484.212C213.64 484.13 216.65 482.924 218.611 481.247C222.489 477.904 226.015 477.98 227.894 482.867C229.377 486.725 229.672 491.041 230.822 496.695C223.243 492.599 217.524 488.364 211.107 486.367C204.395 484.287 197.017 484.369 189.928 483.496C189.652 482.924 189.356 482.327 189.08 481.737C191.311 479.682 193.548 477.603 196.282 475.109ZM186.641 488.798C196.024 489.112 205.363 490.28 214.683 491.33C215.909 491.468 217.021 492.756 218.347 493.623C214.903 498.253 210.925 499.541 205.52 498.548C197.149 497.021 188.659 496.211 180.225 495.105C180.024 494.433 179.829 493.761 179.609 493.107C181.972 491.587 184.366 488.722 186.641 488.798ZM170.848 497.587C188.703 500.062 206.199 502.437 223.689 504.924C226.103 505.283 228.478 506.074 230.835 506.822C236.453 508.644 239.344 514.461 236.73 519.625C235.976 521.145 233.166 522.81 231.602 522.571C213.986 519.801 196.47 516.515 178.873 513.669C167.505 511.829 166.097 509.379 170.848 497.587ZM163.941 520.379C173.538 522.458 183.141 524.513 192.737 526.592C192.517 527.622 192.304 528.653 192.084 529.677C182.506 527.421 172.928 525.166 163.344 522.911C163.545 522.056 163.74 521.208 163.941 520.379ZM184.643 532.679C181.513 537.668 167.09 536.6 155.645 530.424C165.701 525.285 174.606 532.466 184.643 532.679ZM153.194 536.047C160.994 537.649 168.692 539.848 176.41 541.826C176.429 542.48 176.429 543.133 176.448 543.768C166.097 548.341 157.034 541.613 147.394 539.967C147.237 539.276 147.098 538.604 146.96 537.906C149.034 537.234 151.315 535.67 153.194 536.047ZM165.581 550.804C161.704 554.404 153.905 553.493 137.772 547.399C141.436 543.171 158.876 545.52 165.581 550.804ZM135.359 554.567C144.465 556.087 153.509 558.11 162.615 559.674C164.834 560.07 167.58 560.051 169.384 559.002C170.276 558.468 169.541 555.183 169.541 552.732C171.816 549.742 182.305 556.609 178.723 545.351C183.336 543.133 192.995 546.5 188.382 535.5C190.638 535.62 192.021 535.701 193.429 535.739C197.212 535.858 199.405 535.601 197.187 530.537C194.591 524.6 199.782 525.612 202.944 525.75C206.444 525.926 209.85 526.579 208.744 520.347C211.95 521.12 214.287 521.692 216.619 522.263C216.858 522.835 217.115 523.432 217.354 524.004C215.236 525.31 213.081 526.535 211.038 527.924C207.814 530.098 204.603 532.334 201.479 534.652C200.034 535.739 198.965 537.642 197.382 538.176C192.693 539.778 189.859 542.788 188.256 547.418C187.722 548.982 186.139 550.364 184.712 551.413C180.024 554.875 175.291 558.28 170.402 561.427C168.46 562.696 165.908 564.135 163.853 563.884C152.868 562.457 141.926 560.56 130.997 558.738C130.149 558.6 129.413 557.752 128.565 555.497C130.827 555.139 133.203 554.209 135.359 554.567ZM122.576 560.083C122.915 559.687 124.216 559.687 124.813 560.001C137.363 566.453 151.454 565.404 164.771 568.036C167.404 568.57 170.628 566.12 174.606 564.675C175.48 566.019 178.17 568.432 177.792 570.197C177.359 572.113 174.349 574.274 172.073 574.884C155.287 579.357 138.35 579.432 121.583 574.884C119.069 574.212 115.072 570.172 115.405 569.481C117.089 566.001 119.961 563.073 122.576 560.083ZM99.2973 589.327C115.191 601.772 133.674 599.711 151.466 599.315C166.109 598.976 180.419 595.534 193.089 587.524C196.848 585.149 200.788 582.341 203.264 578.779C209.241 570.09 217.335 564.593 226.775 560.598C229.924 559.253 232.972 557.633 236.158 556.106C237.88 560.755 236.453 563.544 232.161 564.989C219.057 569.418 208.55 577.491 198.274 586.694C187.307 596.545 173.274 601.451 158.631 603.393C141.549 605.648 124.568 604.461 108.083 599.121C103.634 597.676 98.4678 596.25 99.2973 589.327ZM166.87 610.096C148.204 613.281 129.583 613.124 111.257 608.155C107.059 607.024 103.338 604.14 99.4042 602.042C99.819 601.25 100.234 600.44 100.63 599.63C119.396 607.426 139.067 608.217 158.7 606.22C175.995 604.461 191.814 597.833 204.282 585.325C213.307 576.285 223.997 570.8 237.214 568.212C235.492 570.273 234.166 573.018 231.991 574.205C227.14 576.838 221.678 578.339 216.814 580.934C212.358 583.308 207.412 585.74 204.326 589.503C194.459 601.495 181.695 607.564 166.87 610.096ZM202.497 601.91C202.416 601.276 202.321 600.641 202.221 600.013C204.257 599.674 206.281 599.064 208.298 599.045C277.454 598.989 346.604 598.907 415.76 599.102C422.667 599.121 429.555 600.88 436.977 601.91H202.497ZM476.357 593.479C453.123 599.674 430.102 600.302 407.898 589.264C405.366 587.995 402.418 586.575 400.91 584.357C394.261 574.544 384.029 570.448 373.716 566.277C370.511 564.97 367.224 563.507 368.45 557.055C376.664 562.457 385.173 566.252 391.25 572.427C403.047 584.395 417.099 590.966 433.232 592.191C446.436 593.178 459.835 591.99 473.095 591.205C476.319 591.029 479.411 588.654 482.554 587.266C482.931 587.744 483.289 588.215 483.66 588.692C481.221 590.313 479.028 592.75 476.357 593.479ZM484.351 579.69C482.353 585.35 477.13 587.404 472.536 588.095C448.428 591.695 424.578 592.348 402.889 578.282C401.526 577.39 400.156 576.461 398.83 575.512C390.044 569.242 381.251 562.947 372.484 556.64C370.605 555.277 368.864 553.712 367.042 552.249C367.557 551.658 368.073 551.061 368.588 550.471C378.009 555.239 387.725 559.297 394.631 568.155C403.675 579.727 416.917 584.577 430.774 585.865C443.105 587.034 455.712 586.06 468.124 585.074C473.365 584.634 478.431 581.725 484.351 579.69ZM462.801 553.87C464.938 553.574 468.162 556.916 469.909 559.291C470.6 560.259 468.897 563.287 467.829 565.09C467.313 565.963 465.73 566.359 464.561 566.61C451.162 569.676 437.662 570.053 424.326 566.748C416.785 564.889 416.112 562.156 419.456 558.851C426.004 559.21 431.152 560.334 436.003 559.586C445.003 558.167 453.77 555.195 462.801 553.87ZM458.703 548.982C458.861 549.497 458.999 550.031 459.156 550.546C457.968 551.256 456.862 552.368 455.592 552.582C447.498 553.945 439.384 555.113 431.271 556.32C430.856 556.401 430.441 556.42 430.045 556.42C429.869 556.42 429.687 556.42 429.492 556.382C429.316 556.364 429.115 556.326 428.92 556.263C428.763 556.225 428.606 556.181 428.424 556.125C428.147 556.043 427.871 555.949 427.594 555.83C427.374 555.729 427.142 555.629 426.903 555.516C425.181 554.743 423.145 553.499 421.027 551.991C420.732 551.771 420.411 551.558 420.116 551.338C419.801 551.118 419.5 550.885 419.186 550.647C415.798 548.096 412.417 545.068 410.161 542.474C409.966 542.235 409.765 542.021 409.57 541.783C409.369 541.563 409.193 541.33 409.036 541.11C408.879 540.89 408.722 540.677 408.558 540.457C408.282 540.042 408.024 539.647 407.823 539.27C407.722 539.094 407.647 538.911 407.565 538.754C407.565 538.736 407.565 538.736 407.565 538.717C407.509 538.56 407.446 538.403 407.408 538.239C407.326 538.22 407.27 538.202 407.188 538.183C407.207 538.126 407.226 538.045 407.226 537.982C399.565 532.956 391.929 527.949 383.219 522.232C386.21 521.202 388.347 520.454 390.76 519.6C390.521 528.841 399.527 521.064 401.607 526.981C401.293 527.968 400.715 529.771 399.848 532.485C402.952 532.705 405.466 532.88 408.376 533.075C407.999 534.759 407.622 536.361 407.226 537.982C407.264 538.001 407.308 538.038 407.345 538.063C407.364 538.12 407.364 538.183 407.402 538.239C407.898 538.378 408.414 538.516 408.904 538.654C409.319 538.754 409.733 538.874 410.148 538.993C411.06 539.232 411.99 539.508 412.882 539.822C414.152 540.275 416.427 541.167 416.345 541.581C415.314 548.347 420.7 546.431 423.924 547.361H423.943C424.044 548.605 424.144 549.635 424.257 550.509C424.295 550.703 424.314 550.923 424.358 551.099C424.396 551.3 424.44 551.476 424.477 551.652C424.515 551.809 424.559 551.966 424.616 552.129C424.653 552.268 424.716 552.406 424.773 552.544C424.829 552.682 424.892 552.802 424.949 552.902C425.087 553.122 425.225 553.317 425.401 553.455C425.715 553.731 426.111 553.888 426.627 553.951C426.784 553.97 426.966 553.989 427.142 553.989C428.229 553.989 429.756 553.65 431.874 553.16C439.039 551.476 446.285 550.056 453.525 548.706C455.178 548.41 456.981 548.869 458.703 548.982ZM452.331 543.127C443.564 544.195 436.475 549.082 427.431 546.57C433.665 541.148 447.617 538.817 452.331 543.127ZM442.847 533.195C442.967 534.244 443.067 535.274 443.161 536.298C435.224 537.9 427.745 542.75 419.035 539.125C426.834 536.223 434.495 532.604 442.847 533.195ZM436.255 528.269C428.493 531.454 420.757 534.42 412.423 531.888C420.204 529.161 427.764 524.889 436.255 528.269ZM428.895 519.468C429.115 520.36 429.31 521.246 429.511 522.157C421.574 523.96 413.617 525.775 405.68 527.578C405.485 526.705 405.284 525.838 405.089 524.946C413.02 523.124 420.958 521.309 428.895 519.468ZM425.414 508.028C426.344 512.224 423.396 513.248 419.77 513.707C408.37 515.171 396.969 516.553 385.607 518.199C381.767 518.752 377.946 519.744 374.244 520.907C371.573 521.736 368.745 523.181 367.89 519.204C367.098 515.447 365.018 510.377 370.8 508.914C379.53 506.715 388.435 505.276 397.34 503.812C404.209 502.682 411.192 502.11 418.105 501.124C424.421 500.257 425.332 500.967 425.414 508.028ZM416.703 498.573C404.75 498.02 394.198 505.044 383.017 498.077C390.163 491.512 411.06 491.217 416.703 498.573ZM408.213 484.683C408.294 485.952 405.875 488.182 404.253 488.559C400.294 489.508 395.939 489.074 392.099 490.262C387.806 491.587 383.904 494.138 379.806 496.117C377.707 497.128 375.57 498.077 373.295 499.126C370.7 486.643 372.384 481.58 380.698 477.86C377.355 481.598 376.582 484.985 381.094 487.636C386.223 490.645 395.266 488.923 398.49 484.312C399.062 483.464 399.244 482.214 399.973 481.642C401.557 480.417 403.38 479.506 405.121 478.476C406.233 480.53 408.074 482.566 408.213 484.683ZM418.287 442.761C419.318 450.495 413.341 454.12 406.296 458.492C409.639 452.97 413.994 448.874 414.17 444.602C414.328 440.82 409.796 436.869 407.364 432.986C412.291 434.494 417.495 436.963 418.287 442.761ZM434.237 219.377C426.243 221.236 418.268 223.316 410.173 224.44C405.856 225.056 401.01 224.817 396.932 223.391C385.707 219.471 374.766 214.784 363.742 210.274C362.178 209.639 360.87 208.358 358.539 206.712C361.053 205.286 362.46 203.979 364.082 203.665C381.264 200.166 398.339 196.955 414.969 206.611C419.996 209.539 426.212 210.412 431.811 212.428C434.225 213.277 436.443 214.646 440.126 216.462C437.266 217.913 435.84 219 434.237 219.377ZM443.658 393.383C444.708 398.629 445.876 404.54 447.064 410.533C439.818 405.646 438.731 399.357 443.658 393.383ZM444.45 385.624C444.054 377.533 447.913 374.586 453.079 373.261C457.252 372.174 462.122 370.71 464.536 377.891C455.417 373.16 449.735 377.413 444.45 385.624ZM427.33 205.072C430.297 192.332 434.476 190.73 448.648 196.704C448.114 197.81 447.203 198.84 447.083 199.971C446.863 202.245 446.191 205.392 447.36 206.636C448.529 207.861 451.973 207.943 453.952 207.208C460.583 204.752 466.855 200.442 474.239 204.852C475.842 205.82 477.388 206.913 479.424 208.257C460.878 216.33 456.542 216.035 427.33 205.072ZM586.08 310.463C589.82 317.148 587.84 325.183 580.795 328.983C575.472 331.854 571.55 335.391 569.376 341.171C568.722 342.93 565.813 344.972 564.091 344.834C562.607 344.714 561.181 341.805 560.056 339.927C559.126 338.382 559.088 336.089 557.9 334.92C553.35 330.529 555.701 327.262 559.446 324.454C562.375 322.255 565.561 320.32 568.886 318.812C572.21 317.311 575.855 316.475 579.375 315.37C579.274 314.974 579.199 314.597 579.117 314.22H569.476C571.18 312.021 572.248 310.62 573.354 309.213C578.068 303.245 582.259 303.66 586.08 310.463ZM561.042 275.565C563.519 270.539 566.78 266.324 573.291 267.511C578.457 268.441 583.089 274.315 582.297 280.572C581.662 285.699 579.802 290.938 577.288 295.467C573.926 301.48 569.627 307.002 565.297 312.386C562.84 315.433 559.496 315.571 555.914 313.397C552.275 311.198 548.316 309.559 545.306 308.076C550.773 296.774 555.858 286.151 561.042 275.565ZM496.204 424.738C500.735 414.824 505.266 404.911 509.804 395.022C510.558 395.381 511.306 395.758 512.06 396.109C509.307 406.833 505.687 417.124 496.204 424.738ZM560.533 368.687C552.062 375.535 542.679 380.423 531.184 381.233H542.151C542.528 381.685 542.905 382.163 543.282 382.615C541.284 384.77 539.662 387.521 537.243 388.966C525.17 396.166 500.509 388.69 494.312 376.025C492.471 372.224 492.056 368.21 496.449 364.805C500.207 370.107 503.393 375.924 510.382 375.604C507.158 371.131 503.513 366.759 500.647 361.915C496.015 354.081 496.273 345.65 499.893 337.603C503.079 330.497 506.819 323.593 510.797 316.89C517.289 305.99 522.021 294.531 523.68 281.854C524.133 278.235 525.321 274.635 526.571 271.168C528.155 266.852 531.027 263.767 536.074 263.667C541.183 263.566 545.337 265.979 546.764 270.533C548.31 275.458 549.655 281.219 548.542 286.025C546.996 292.672 543.238 298.847 539.97 304.979C539.298 306.248 536.627 306.757 534.785 307.077C530.273 307.869 525.679 308.321 521.11 309.885C534.408 309.571 547.097 310.815 558.598 318.869C555.946 322.192 553.57 325.201 550.981 328.462C541.893 324.762 532.95 324.586 523.567 328.462C521.254 329.411 517.113 325.93 513.04 324.146C514.938 327.67 516.861 331.27 519.155 335.58C520.877 334.688 523.391 333.481 525.823 332.137C534.157 327.507 544.508 328.556 551.791 334.688C555.474 337.791 557.115 341.554 555.455 346.184C553.771 350.896 549.674 350.814 545.658 350.437C541.145 350.004 536.595 348.735 532.196 349.193C527.602 349.671 523.209 351.763 518.715 353.132C518.917 353.842 519.111 354.54 519.306 355.249C522.511 354.558 525.698 353.867 530.348 352.875C526.012 360.866 521.581 366.212 512.814 367.236C520.393 370.559 528.193 367.808 531.26 359.597C533.968 352.397 538.286 351.958 544.244 353.402C550.359 354.885 555.625 353.66 559.704 348.063C561.721 353.07 564.179 357.341 564.952 361.89C565.278 363.9 562.588 367.01 560.533 368.687ZM588.594 347.717C584.754 350.349 581.769 354.188 578.005 356.958C575.925 358.504 572.223 360.457 570.721 359.609C568.289 358.265 566.937 354.822 565.473 352.071C565.159 351.455 566.026 349.935 566.717 349.124C569.407 345.92 572.198 342.811 575.032 339.726C577.232 337.351 579.387 334.876 581.82 332.784C584.868 330.152 588.173 327.859 591.397 325.421C598.65 333.984 597.619 341.542 588.594 347.717Z" fill="#313131"/>
<path d="M73.3732 89.8678C76.2767 82.4358 78.8785 74.8657 82.1906 67.616C84.3085 62.9797 88.6072 61.2081 93.6097 62.8352C100.843 65.1847 107.983 67.817 115.135 70.4116C116.046 70.7445 117.498 71.5235 117.504 72.1078C117.579 79.4455 123.782 79.2884 128.295 80.8715C143.227 86.1172 158.21 91.2373 173.268 96.1375C175.769 96.9541 178.723 96.3636 181.469 96.4704C183.449 96.5458 185.554 96.3008 187.377 96.8976C195.584 99.5864 203.742 102.432 211.849 105.398C218.159 107.703 219.585 110.869 216.399 116.781C206.055 135.961 195.559 155.065 184.919 174.082C181.72 179.798 177.422 181.212 171.307 178.686C163.52 175.47 155.928 171.795 148.274 168.252C147.394 167.843 145.992 167.045 145.999 166.449C146.099 159.833 140.606 159.532 136.44 157.779C122.802 152.024 109.145 146.314 95.4951 140.578C92.246 139.215 89.066 137.443 86.1687 141.451C85.7037 142.092 83.5606 142.061 82.4797 141.627C75.9939 139.026 69.5647 136.269 63.1669 133.46C57.8941 131.149 56.2727 127.096 58.4786 121.863C60.7851 116.385 63.4686 111.064 65.9825 105.674C65.7059 107.471 64.8701 109.431 65.3226 111.026C65.7437 112.515 67.34 114.262 68.7791 114.689C70.1492 115.097 72.9584 114.425 73.4612 113.401C77.8981 104.424 82.1654 95.3396 85.9174 86.0607C86.4704 84.6912 84.5536 81.4244 82.9196 80.3878C81.8826 79.7282 78.6712 81.0475 77.4771 82.3981C75.6357 84.4713 74.693 87.336 73.3732 89.8678ZM91.7244 128.56C93.2264 130.043 95.0489 133.052 97.6005 133.932C99.4859 134.585 103.634 133.153 104.539 131.456C110.899 119.526 116.718 107.307 122.632 95.1386C124.31 91.6833 123.644 88.7118 120.005 86.8711C116.379 85.0304 112.589 84.3645 110.402 88.6364C104.331 100.491 98.5683 112.509 92.7173 124.477C92.3717 125.187 92.3214 126.047 91.7244 128.56ZM169.723 137.801C169.798 144.084 174.946 150.598 179.917 150.699C184.127 150.781 193.265 139.403 193.121 134.246C193.001 129.905 187.163 125.444 181.859 125.639C174.895 125.897 169.641 131.161 169.723 137.801Z" fill="#9E75D1"/>
<path d="M407.301 185.333C395.712 179.604 384.972 174.113 374.074 168.943C351.808 158.382 329.497 147.916 307.112 137.613C303.686 136.036 303.033 134.064 304.064 130.847C305.823 125.375 307.495 119.872 309.261 114.4C311.536 107.364 317.4 103.915 323.672 101.993C337.856 97.639 352.468 98.7886 368.041 99.5551C366.552 101.572 365.703 102.721 364.384 104.505C366.156 104.612 367.444 105.09 368.33 104.681C376.042 101.17 383.005 103.249 390.088 106.811C396.869 110.222 403.82 113.42 410.965 115.971C417.633 118.352 420.003 122.982 420.581 129.459C421.743 142.463 418.827 154.801 414.617 166.901C412.543 172.838 409.985 178.611 407.301 185.333Z" fill="#9E75D1"/>
<path d="M531.19 381.227C534.842 381.227 538.499 381.227 542.151 381.227C542.528 381.692 542.905 382.156 543.282 382.628C541.29 384.776 539.656 387.522 537.236 388.966C525.17 396.166 500.509 388.696 494.318 376.038C492.464 372.243 492.05 368.216 496.455 364.811C500.22 370.126 503.4 375.943 510.376 375.629C507.152 371.144 503.513 366.771 500.647 361.94C496.009 354.106 496.267 345.675 499.887 337.609C503.079 330.504 506.819 323.612 510.803 316.909C517.289 305.99 522.021 294.55 523.674 281.86C524.145 278.235 525.321 274.642 526.577 271.187C528.155 266.858 531.027 263.78 536.074 263.679C541.177 263.579 545.331 265.997 546.757 270.546C548.303 275.477 549.655 281.238 548.536 286.044C546.99 292.678 543.244 298.86 539.976 304.985C539.298 306.26 536.639 306.769 534.798 307.083C530.273 307.869 525.691 308.34 521.122 309.885C534.414 309.584 547.109 310.828 558.591 318.882C555.952 322.205 553.564 325.201 550.974 328.468C541.887 324.774 532.944 324.592 523.567 328.468C521.261 329.423 517.113 325.937 513.047 324.152C514.932 327.689 516.849 331.27 519.162 335.599C520.89 334.713 523.397 333.507 525.836 332.156C534.163 327.532 544.501 328.563 551.791 334.707C555.468 337.804 557.108 341.573 555.455 346.203C553.765 350.909 549.68 350.839 545.651 350.456C541.152 350.023 536.589 348.76 532.196 349.212C527.621 349.683 523.209 351.775 518.728 353.158C518.923 353.861 519.124 354.559 519.319 355.262C522.511 354.577 525.71 353.886 530.361 352.887C526.031 360.885 521.594 366.218 512.833 367.261C520.4 370.566 528.199 367.82 531.278 359.616C533.987 352.41 538.292 351.989 544.25 353.428C550.365 354.904 555.631 353.692 559.723 348.088C561.74 353.095 564.191 357.367 564.958 361.921C565.291 363.913 562.607 367.029 560.546 368.7C552.068 375.529 542.685 380.429 531.19 381.227Z" fill="#89E35B"/>
<path d="M320.837 336.717C319.31 352.63 318.059 368.574 316.149 384.437C315.005 393.923 311.366 395.293 303.353 390.103C292.5 383.08 281.715 375.937 270.83 368.957C266.224 366.005 264.081 362.141 264.696 356.581C266.255 342.521 267.701 328.456 269.064 314.377C269.95 305.199 273.489 303.251 281.539 307.749C292.651 313.956 303.925 319.887 314.76 326.533C317.946 328.493 319.882 332.489 322.389 335.554C321.874 335.95 321.353 336.333 320.837 336.717Z" fill="#89E35B"/>
<path d="M328.454 256.675C326.94 272.694 325.601 287.225 324.174 301.75C323.263 311.016 317.77 313.931 309.764 309.508C299.507 303.842 289.332 298.018 278.95 292.59C273.696 289.845 271.415 286.094 272.094 280.189C273.709 266.11 275.066 252.001 276.662 237.922C277.479 230.722 282.168 227.506 288.742 230.314C300.638 235.403 312.259 241.138 324.011 246.56C329.347 249.023 328.882 253.552 328.454 256.675Z" fill="#89E35B"/>
<path d="M312.73 418.367C311.511 433.3 310.637 448.271 308.947 463.147C307.866 472.671 301.889 474.631 294.316 468.852C284.355 461.244 274.312 453.743 264.219 446.317C258.519 442.127 256.482 437.057 257.545 429.795C259.443 416.797 260.26 403.642 261.711 390.575C262.654 382.093 266.657 380.334 273.759 384.99C284.411 391.969 295.032 399.005 305.748 405.884C310.392 408.868 313.604 412.5 312.73 418.367Z" fill="#89E35B"/>
<path d="M217.235 254.18C219.039 236.829 220.698 221.726 222.118 206.605C222.596 201.535 225.229 200.624 229.226 202.427C240.281 207.403 251.373 212.328 262.132 217.894C264.2 218.968 266.067 222.951 265.891 225.439C264.835 240.177 263.364 254.897 261.598 269.572C260.593 277.934 256.885 279.799 249.337 275.879C240.036 271.055 230.835 265.978 221.936 260.463C219.416 258.892 218.102 255.393 217.235 254.18Z" fill="#89E35B"/>
<path d="M210.938 320.42C212.239 307.58 213.408 294.72 214.897 281.904C215.708 274.893 219.196 273.077 225.587 276.463C235.366 281.64 245.114 286.936 254.478 292.816C256.715 294.223 258.688 298.213 258.531 300.889C257.683 315.407 256.313 329.907 254.748 344.368C253.874 352.403 249.129 354.59 242.248 350.274C233.041 344.5 223.721 338.821 215.142 332.206C212.169 329.913 211.264 324.944 209.417 321.193C209.926 320.942 210.429 320.678 210.938 320.42Z" fill="#89E35B"/>
<path d="M251.731 376.772C250.148 392.679 249.067 407.009 247.175 421.232C245.993 430.115 243.75 430.63 236.73 425.328C227.887 418.65 219.007 412.016 209.957 405.621C205.269 402.31 203.201 398.201 203.824 392.516C205.206 379.87 206.388 367.205 207.789 354.565C208.669 346.649 212.283 344.827 218.913 349.042C227.913 354.766 236.698 360.834 245.685 366.57C250.129 369.41 252.473 373.022 251.731 376.772Z" fill="#89E35B"/>
<path d="M63.5692 288.13C73.0778 291.434 80.2674 290.913 86.3384 284.681C90.3417 280.572 91.2718 275.597 89.0219 270.364C86.86 274.108 85.3203 278.11 82.6368 281.1C78.9414 285.221 73.876 286.484 68.5717 284.027C61.9163 280.943 61.4889 275.056 67.2268 270.646C69.9543 268.554 72.2357 265.878 74.7432 263.497C78.0553 260.356 80.5377 255.274 86.3007 257.051C92.0386 258.823 96.7646 263.422 96.6829 268.912C96.5258 279.379 98.5118 290.435 92.8682 300.198C90.9136 303.584 87.7776 306.286 84.585 309.986C87.3942 308.905 89.5373 308.082 92.4094 306.977C91.3535 308.968 90.6371 310.312 89.9269 311.657C90.3354 311.996 90.7377 312.335 91.1462 312.675C94.2822 308.849 97.4182 305.023 100.504 301.266C105.607 306.926 103.703 317.7 95.6962 326.47C89.5499 333.205 83.4286 334.487 77.7599 330.309C80.7137 326.935 83.6863 323.537 86.6589 320.138C86.3887 319.949 86.1122 319.755 85.8419 319.566C80.0035 322.934 74.4919 327.903 68.2198 329.216C62.1048 330.497 55.2106 328.035 47.2039 327.036C52.3448 316.457 56.5806 307.749 61.2815 298.081C65.1403 305.054 69.8538 309.389 78.4135 308.861C74.2405 305.77 69.8978 303.817 67.5599 300.462C65.2032 297.069 64.8198 292.295 63.5692 288.13Z" fill="#89E35B"/>
<path d="M204.446 270.703C203.239 284.197 202.152 297.698 200.763 311.173C200.141 317.191 195.308 319.579 190.066 316.368C182.192 311.544 174.33 306.612 167.033 300.989C164.802 299.268 163.262 295.059 163.426 292.1C164.079 280.44 165.475 268.824 166.713 257.202C167.643 248.457 172.029 246.353 179.609 250.75C186.176 254.564 193.014 257.95 199.361 262.09C202.032 263.83 203.742 267.034 205.891 269.578C205.413 269.955 204.93 270.326 204.446 270.703Z" fill="#89E35B"/>
<path d="M206.168 252.013C194.051 245.26 183.248 239.442 172.721 233.16C171.15 232.224 170.044 229.039 170.169 226.984C170.949 214.703 172.224 202.458 173.161 190.189C173.437 186.571 175.335 185.968 178.553 185.057C190.029 181.821 198.808 188.129 208.028 192.69C209.781 193.556 211.66 196.641 211.497 198.532C210.026 215.859 208.116 233.147 206.168 252.013Z" fill="#89E35B"/>
<path d="M198.425 339.55C196.634 355.997 195.151 370.252 193.498 384.487C192.989 388.853 189.601 389.595 186.754 387.603C177.202 380.906 167.9 373.839 158.781 366.564C157.374 365.439 156.701 362.462 156.871 360.432C157.814 349.005 158.794 337.559 160.397 326.213C161.735 316.752 166.568 314.748 174.487 319.792C180.709 323.757 187.062 327.595 192.863 332.118C195.616 334.267 197.225 337.885 198.425 339.55Z" fill="#89E35B"/>
<path d="M290.275 216.166C303.806 209.256 319.134 210.494 333.589 207.911C341.52 206.492 376.947 219.892 388.366 227.757C385.814 228.907 383.866 230.195 381.735 230.672C369.927 233.336 358.067 235.761 346.24 238.368C339.345 239.888 332.985 239.021 326.581 235.798C316.689 230.823 306.477 226.482 296.434 221.808C294.272 220.803 292.242 219.521 290.149 218.365C290.193 217.636 290.237 216.901 290.275 216.166Z" fill="#89E35B"/>
<path d="M233.349 191.672C249.972 187.394 266.689 185.76 283.299 186.225C297.842 186.634 309.977 195.762 323.364 201.686C307.69 205.845 291.991 209.099 276.097 209.218C259.864 209.344 247.665 197.891 233.349 191.672Z" fill="#89E35B"/>
<path d="M440.113 216.468C437.273 217.907 435.84 219.006 434.231 219.383C426.243 221.23 418.262 223.309 410.161 224.446C405.856 225.05 400.992 224.811 396.925 223.397C385.701 219.483 374.747 214.791 363.736 210.286C362.171 209.645 360.87 208.351 358.52 206.718C361.034 205.298 362.448 203.998 364.063 203.671C381.251 200.184 398.327 196.974 414.943 206.636C419.977 209.564 426.193 210.431 431.793 212.435C434.212 213.289 436.437 214.652 440.113 216.468Z" fill="#89E35B"/>
<path d="M545.299 308.07C550.761 296.774 555.851 286.145 561.049 275.571C563.525 270.539 566.78 266.324 573.304 267.511C578.47 268.454 583.083 274.321 582.31 280.572C581.675 285.692 579.815 290.95 577.288 295.474C573.939 301.48 569.634 307.008 565.303 312.392C562.852 315.439 559.503 315.564 555.914 313.397C552.282 311.198 548.316 309.552 545.299 308.07Z" fill="#89E35B"/>
<path d="M170.842 497.587C188.709 500.056 206.205 502.437 223.689 504.931C226.109 505.276 228.491 506.074 230.829 506.828C236.466 508.643 239.351 514.455 236.736 519.631C235.969 521.145 233.173 522.816 231.602 522.565C213.998 519.794 196.47 516.528 178.873 513.669C167.505 511.829 166.091 509.385 170.842 497.587Z" fill="#89E35B"/>
<path d="M268.103 180.025C245.786 181.023 223.356 191.622 201.592 178.102C203.811 171.437 207.041 167.096 214.828 167.969C218.618 168.396 222.596 167.617 226.436 167.052C242.342 164.696 254.993 172.882 268.103 180.025Z" fill="#89E35B"/>
<path d="M307.024 185.967C309.537 184.698 311.536 183.027 313.736 182.688C336.555 179.126 353.046 181.639 373.993 191.647C375.206 192.225 376.167 193.343 377.657 194.537C352.876 202.823 329.768 201.51 307.024 185.967Z" fill="#89E35B"/>
<path d="M100.636 599.629C119.383 607.432 139.054 608.211 158.706 606.219C175.995 604.46 191.814 597.839 204.289 585.331C213.301 576.291 223.985 570.806 237.22 568.224C235.498 570.272 234.172 573.03 231.985 574.218C227.14 576.844 221.684 578.345 216.82 580.94C212.364 583.314 207.406 585.752 204.32 589.509C194.466 601.495 181.695 607.564 166.87 610.096C148.211 613.281 129.589 613.124 111.257 608.161C107.065 607.024 103.351 604.14 99.4167 602.054C99.8127 601.25 100.221 600.44 100.636 599.629Z" fill="#89E35B"/>
<path d="M425.414 508.028C426.35 512.224 423.403 513.248 419.776 513.713C408.382 515.177 396.976 516.565 385.6 518.199C381.76 518.751 377.952 519.744 374.25 520.9C371.573 521.736 368.758 523.174 367.909 519.21C367.105 515.46 365.037 510.384 370.806 508.926C379.529 506.727 388.454 505.276 397.346 503.812C404.228 502.681 411.198 502.11 418.105 501.136C424.414 500.244 425.326 500.973 425.414 508.028Z" fill="#89E35B"/>
<path d="M174.619 564.662C175.473 566.019 178.17 568.438 177.792 570.184C177.371 572.113 174.355 574.268 172.086 574.877C155.293 579.363 138.363 579.432 121.589 574.884C119.088 574.205 115.072 570.178 115.411 569.481C117.108 566.007 119.974 563.079 122.569 560.083C122.915 559.681 124.216 559.693 124.826 560.001C137.37 566.453 151.454 565.41 164.771 568.042C167.404 568.564 170.628 566.12 174.619 564.662Z" fill="#89E35B"/>
<path d="M236.171 556.106C237.886 560.767 236.466 563.544 232.173 564.995C219.07 569.418 208.55 577.491 198.287 586.694C187.307 596.545 173.28 601.451 158.637 603.393C141.549 605.654 124.58 604.461 108.096 599.114C103.646 597.669 98.4678 596.256 99.3036 589.327C115.197 601.772 133.681 599.705 151.485 599.309C166.122 598.982 180.438 595.54 193.096 587.524C196.854 585.143 200.807 582.353 203.27 578.779C209.26 570.097 217.335 564.593 226.781 560.592C229.936 559.253 232.978 557.639 236.171 556.106Z" fill="#89E35B"/>
<path d="M427.513 131.959C435.193 143.807 440.315 154.311 433.735 167.422C429.813 175.231 427.638 183.913 424.571 192.156C423.742 194.386 422.523 196.472 421.473 198.639C413.617 194.549 412.888 191 415.647 183.863C421.926 167.661 426.249 150.9 427.513 131.959Z" fill="#9E75D1"/>
<path d="M579.117 314.22C576.207 314.22 573.304 314.22 569.47 314.22C571.173 312.028 572.254 310.614 573.36 309.213C578.074 303.239 582.259 303.653 586.081 310.463C589.832 317.148 587.847 325.176 580.795 328.977C575.472 331.848 571.557 335.372 569.382 341.165C568.722 342.911 565.813 344.959 564.097 344.827C562.614 344.708 561.187 341.793 560.056 339.921C559.119 338.369 559.094 336.082 557.894 334.92C553.344 330.523 555.694 327.262 559.446 324.448C562.369 322.255 565.567 320.314 568.886 318.812C572.217 317.305 575.862 316.482 579.369 315.357C579.281 314.98 579.199 314.603 579.117 314.22Z" fill="#89E35B"/>
<path d="M259.694 167.403C270.962 161.573 312.673 166.643 325.909 175.156C311.329 182.902 272.565 178.554 259.694 167.403Z" fill="#89E35B"/>
<path d="M45.8716 253.672C41.5792 252.12 37.9215 250.801 34.2702 249.475C34.1319 249.802 33.9936 250.128 33.8554 250.455C37.3999 252.34 41.1833 253.891 44.4324 256.197C48.3289 258.961 53.2309 261.851 50.4845 267.932C48.1278 273.159 41.4095 275.207 35.6779 271.746C30.7382 268.762 25.8802 264.885 22.4802 260.293C18.0181 254.256 21.4935 248.112 29.0162 246.987C35.0872 246.07 43.2321 248.985 45.8716 253.672Z" fill="#89E35B"/>
<path d="M591.397 325.409C598.662 333.99 597.619 341.548 588.588 347.723C584.754 350.343 581.769 354.181 578.017 356.958C575.924 358.504 572.229 360.464 570.721 359.616C568.295 358.259 566.944 354.816 565.479 352.071C565.153 351.461 566.045 349.928 566.724 349.118C569.414 345.92 572.204 342.804 575.032 339.732C577.225 337.345 579.387 334.882 581.832 332.772C584.868 330.152 588.18 327.865 591.397 325.409Z" fill="#89E35B"/>
<path d="M419.462 558.851C426.004 559.216 431.152 560.346 435.997 559.586C445.009 558.16 453.776 555.195 462.795 553.882C464.944 553.568 468.156 556.916 469.896 559.297C470.6 560.258 468.903 563.293 467.822 565.096C467.307 565.956 465.73 566.352 464.554 566.622C451.156 569.694 437.669 570.059 424.314 566.761C416.791 564.901 416.1 562.156 419.462 558.851Z" fill="#89E35B"/>
<path d="M427.331 205.072C430.309 192.319 434.47 190.723 448.661 196.71C448.108 197.803 447.203 198.846 447.096 199.964C446.876 202.239 446.197 205.392 447.36 206.624C448.529 207.855 451.985 207.937 453.952 207.208C460.589 204.752 466.861 200.442 474.239 204.858C475.854 205.826 477.394 206.913 479.436 208.251C460.872 216.336 456.548 216.041 427.331 205.072Z" fill="#89E35B"/>
<path d="M256.545 132.606C262.296 132.606 268.235 131.651 273.759 132.763C305.76 139.209 335.097 152.282 362.379 170.011C371.623 176.016 380.491 182.6 388.812 190.158C383.746 187.262 378.379 184.787 373.666 181.407C349.212 163.873 322.446 151.384 293.7 142.526C281.521 138.775 269.856 133.58 256.684 134.51C256.633 133.881 256.589 133.247 256.545 132.606Z" fill="#9E75D1"/>
<path d="M208.751 520.341C211.962 521.12 214.294 521.685 216.632 522.251C216.87 522.835 217.116 523.426 217.354 524.01C215.249 525.304 213.093 526.529 211.045 527.911C207.814 530.091 204.615 532.328 201.486 534.646C200.034 535.726 198.972 537.636 197.388 538.17C192.687 539.766 189.872 542.769 188.269 547.405C187.729 548.969 186.139 550.345 184.718 551.394C180.036 554.862 175.304 558.267 170.402 561.415C168.46 562.665 165.921 564.116 163.859 563.852C152.868 562.445 141.932 560.541 130.991 558.719C130.136 558.575 129.407 557.721 128.559 555.465C130.827 555.132 133.19 554.209 135.346 554.567C144.465 556.087 153.496 558.11 162.609 559.674C164.827 560.058 167.58 560.039 169.377 558.983C170.264 558.462 169.535 555.176 169.535 552.72C171.81 549.723 182.305 556.59 178.729 545.344C183.342 543.114 192.995 546.494 188.388 535.488C190.638 535.594 192.027 535.689 193.416 535.726C197.212 535.833 199.412 535.576 197.181 530.506C194.579 524.588 199.77 525.58 202.931 525.738C206.45 525.92 209.863 526.567 208.751 520.341Z" fill="#89E35B"/>
<path d="M483.653 588.686C481.234 590.325 479.022 592.757 476.357 593.473C453.116 599.686 430.102 600.314 407.905 589.264C405.359 588.001 402.406 586.569 400.91 584.364C394.248 574.551 384.023 570.442 373.716 566.277C370.498 564.976 367.23 563.506 368.45 557.061C376.67 562.464 385.167 566.264 391.257 572.434C403.047 584.395 417.105 590.972 433.225 592.191C446.423 593.19 459.822 591.99 473.095 591.211C476.313 591.023 479.405 588.648 482.554 587.279C482.918 587.743 483.289 588.215 483.653 588.686Z" fill="#89E35B"/>
<path d="M18.4266 262.159C24.5227 269.767 31.3667 276.074 41.598 277.098C42.3773 277.173 43.804 279.956 43.4206 280.792C42.1574 283.581 40.781 287.351 38.4054 288.419C29.8206 292.257 11.8026 280.817 11.6706 271.406C11.6266 268.215 14.417 264.986 15.9064 261.769C16.7486 261.901 17.5844 262.033 18.4266 262.159Z" fill="#89E35B"/>
<path d="M188.967 177.179C199.927 157.063 210.887 136.941 222.03 116.486C226.335 118.728 227.799 121.681 225.26 125.947C215.607 142.161 205.992 158.401 196.119 174.483C194.95 176.387 192.285 177.373 190.318 178.787C189.865 178.253 189.419 177.713 188.967 177.179Z" fill="#A552CC"/>
<path d="M368.582 550.464C378.009 555.226 387.718 559.285 394.644 568.149C403.681 579.727 416.923 584.565 430.781 585.865C443.105 587.021 455.712 586.06 468.118 585.061C473.372 584.64 478.431 581.725 484.351 579.683C482.352 585.337 477.136 587.404 472.542 588.089C448.441 591.695 424.578 592.348 402.902 578.276C401.532 577.384 400.168 576.467 398.842 575.518C390.05 569.236 381.258 562.96 372.503 556.634C370.618 555.27 368.871 553.712 367.061 552.242C367.564 551.652 368.073 551.061 368.582 550.464Z" fill="#89E35B"/>
<path d="M123.965 73.7474C124.342 68.2567 126.868 68.3196 130.387 69.5572C146.25 75.1484 162.156 80.6202 178.459 86.2806C178.434 89.7358 177.61 92.5628 173.425 91.1305C156.959 85.5078 140.594 79.6151 123.965 73.7474Z" fill="#89E35B"/>
<path d="M140.889 164.507C139.381 169.301 137.696 170.419 134.058 168.811C120.338 162.748 106.462 157.063 92.7613 150.956C91.077 150.203 90.1343 147.784 88.8523 146.138C90.7879 145.924 93.019 144.982 94.6216 145.616C110.031 151.735 125.335 158.112 140.889 164.507Z" fill="#89E35B"/>
<path d="M71.3872 239.336C69.9858 236.779 68.5843 234.228 66.3595 230.176C61.2564 240.052 56.6875 248.891 52.1185 257.73C51.7729 257.611 51.4272 257.491 51.0816 257.372C51.2136 256.367 51.1004 255.248 51.5152 254.375C55.4557 246.032 59.283 237.62 63.6509 229.504C64.5747 227.789 67.7044 226.067 69.5961 226.281C76.0567 227.01 82.3791 228.668 86.0556 235.792C81.5558 232.94 77.5839 230.421 73.6057 227.902C73.4298 228.178 73.2538 228.461 73.0778 228.737C76.6224 232.821 82.2094 236.496 83.1207 241.095C83.9754 245.385 79.8652 250.662 77.9358 255.512C77.276 255.217 76.6098 254.916 75.9499 254.614C77.8541 250.392 79.7521 246.164 81.6563 241.943C80.8645 241.541 80.0726 241.132 79.2808 240.73C74.4856 249.764 69.6967 258.792 64.9015 267.826C64.2542 267.48 63.6069 267.141 62.9595 266.795C67.4908 257.435 72.0283 248.068 77.3451 237.093C74.2153 238.192 72.7384 238.714 71.2616 239.229L71.3872 239.336Z" fill="#A552CC"/>
<path d="M37.136 293.357C36.7023 299.746 32.9755 301.624 28.7648 302.089C20.6136 302.994 13.8137 299.909 8.94306 293.325C5.83216 289.122 5.85102 284.574 9.81663 279.234C17.1445 287.269 26.1127 292.32 37.136 293.357Z" fill="#89E35B"/>
<path d="M179.628 493.101C181.972 491.587 184.36 488.716 186.648 488.798C196.018 489.125 205.357 490.28 214.69 491.33C215.921 491.468 217.015 492.762 218.354 493.635C214.903 498.253 210.931 499.541 205.514 498.554C197.155 497.028 188.665 496.23 180.231 495.118C180.03 494.446 179.829 493.773 179.628 493.101Z" fill="#89E35B"/>
<path d="M373.295 499.132C370.712 486.643 372.384 481.573 380.705 477.873C377.349 481.605 376.582 484.978 381.101 487.636C386.216 490.645 395.272 488.93 398.49 484.306C399.075 483.471 399.244 482.22 399.98 481.649C401.557 480.424 403.386 479.513 405.114 478.476C406.239 480.543 408.068 482.566 408.213 484.702C408.294 485.958 405.881 488.189 404.26 488.578C400.294 489.527 395.951 489.074 392.099 490.268C387.813 491.594 383.904 494.138 379.812 496.117C377.713 497.128 375.583 498.071 373.295 499.132Z" fill="#89E35B"/>
<path d="M73.3732 89.8677C74.693 87.3422 75.642 84.4775 77.4771 82.4043C78.6712 81.0536 81.8826 79.7344 82.9196 80.394C84.5536 81.4306 86.4704 84.6974 85.9174 86.0669C82.1591 95.3458 77.8981 104.43 73.4612 113.407C72.9584 114.431 70.1492 115.104 68.7791 114.695C67.34 114.268 65.7437 112.515 65.3226 111.033C64.8701 109.437 65.7122 107.483 65.9825 105.68C68.446 100.409 70.9096 95.1385 73.3732 89.8677ZM68.1758 110.141C69.1499 110.568 70.1303 110.995 71.1044 111.416C74.9004 102.696 78.6963 93.97 82.4985 85.2502C81.6187 84.867 80.7451 84.4838 79.8652 84.1068C75.9688 92.7826 72.0723 101.465 68.1758 110.141Z" fill="#A552CC"/>
<path d="M34.8672 304.759C37.136 312.599 34.6661 316.406 27.4513 316.858C16.6606 317.537 8.30203 310.319 8.84879 299.815C17.0314 305.211 25.4842 308.346 34.8672 304.759Z" fill="#89E35B"/>
<path d="M189.067 481.737C191.311 479.67 193.554 477.603 196.269 475.103C199.657 481.655 204.804 484.35 211.076 484.199C213.64 484.136 216.644 482.918 218.599 481.24C222.47 477.904 226.008 477.986 227.894 482.867C229.383 486.718 229.672 491.034 230.81 496.695C223.243 492.605 217.524 488.358 211.101 486.36C204.395 484.275 197.017 484.363 189.934 483.502C189.645 482.918 189.356 482.327 189.067 481.737Z" fill="#89E35B"/>
<path d="M407.182 538.183C409.086 538.723 411.016 539.169 412.876 539.822C414.145 540.268 416.42 541.173 416.357 541.581C415.314 548.341 420.7 546.431 423.937 547.367C424.515 554.554 424.993 554.774 431.881 553.16C439.058 551.476 446.297 550.062 453.544 548.712C455.19 548.404 456.981 548.869 458.703 548.976C458.854 549.497 459.005 550.025 459.162 550.546C457.981 551.25 456.862 552.368 455.599 552.582C447.51 553.945 439.384 555.107 431.271 556.326C430.869 556.389 430.454 556.414 430.045 556.42C425.125 556.533 408.357 542.951 407.345 538.044L407.182 538.183Z" fill="#89E35B"/>
<path d="M102.301 165.481C106.481 167.24 110.013 168.723 114.022 170.406C111.408 175.564 111.829 182.387 104.954 183.907C102.999 184.341 99.3728 182.739 98.3735 180.998C95.0364 175.181 99.2408 170.721 102.301 165.481Z" fill="#89E35B"/>
<path d="M416.709 498.579C404.75 498.02 394.204 505.044 383.024 498.07C390.163 491.505 411.06 491.204 416.709 498.579Z" fill="#89E35B"/>
<path d="M25.9556 342.019C36.5578 320.37 47.1662 298.722 57.7684 277.079C58.1706 277.167 58.5666 277.261 58.9688 277.349C58.7237 279.052 58.8997 280.955 58.1769 282.432C48.5488 302.139 38.8077 321.784 29.0539 341.428C28.7522 342.038 28.0295 342.434 27.5079 342.93C26.9862 342.622 26.4709 342.32 25.9556 342.019Z" fill="#A552CC"/>
<path d="M21.7574 355.52C17.7667 353.139 13.7634 350.94 10.0052 348.37C9.14416 347.78 8.54083 345.65 8.94305 344.714C9.35784 343.74 11.2809 342.635 12.3053 342.829C16.6606 343.659 21.1227 344.5 25.126 346.285C26.8543 347.057 27.5519 350.123 28.7208 352.152C26.7286 353.107 24.7364 354.075 21.7574 355.52Z" fill="#A552CC"/>
<path d="M96.4441 185.352C100.265 185.942 101.887 187.067 99.9761 190.704C96.4441 197.426 93.3206 204.368 89.7258 211.053C89.0282 212.353 86.9417 212.9 85.4963 213.798C84.9055 213.201 84.3085 212.604 83.7177 212.001C87.9724 203.093 92.2334 194.178 96.4441 185.352Z" fill="#89E35B"/>
<path d="M61.3067 288.84C51.8358 308.145 42.3585 327.451 32.8876 346.756C32.19 346.423 31.4924 346.09 30.7948 345.757C40.3034 326.426 49.8121 307.102 59.327 287.772C59.9806 288.13 60.6468 288.488 61.3067 288.84Z" fill="#A552CC"/>
<path d="M176.448 543.768C166.103 548.341 157.034 541.607 147.387 539.954C147.243 539.276 147.092 538.591 146.948 537.913C149.04 537.24 151.315 535.67 153.188 536.053C160.994 537.655 168.68 539.848 176.41 541.82C176.429 542.474 176.435 543.121 176.448 543.768Z" fill="#89E35B"/>
<path d="M155.645 530.43C165.707 525.285 174.612 532.46 184.643 532.679C181.513 537.674 167.09 536.606 155.645 530.43Z" fill="#89E35B"/>
<path d="M71.2679 239.235C69.1625 244.493 67.34 249.896 64.8952 254.991C57.5296 270.326 49.9252 285.548 42.3836 300.801C41.7992 301.982 40.9382 303.025 39.1973 305.676C39.675 302.918 39.631 301.875 40.0332 301.052C49.4664 281.709 58.9311 262.379 68.4649 243.086C69.1499 241.698 70.4069 240.586 71.3935 239.342C71.3873 239.335 71.2679 239.235 71.2679 239.235Z" fill="#A552CC"/>
<path d="M137.772 547.399C141.442 543.177 158.882 545.527 165.575 550.816C161.704 554.41 153.905 553.493 137.772 547.399Z" fill="#89E35B"/>
<path d="M407.333 538.057C399.64 533.019 391.954 527.974 383.206 522.245C386.197 521.202 388.328 520.46 390.76 519.619C390.528 528.86 399.527 521.064 401.607 526.981C401.287 527.98 400.721 529.771 399.854 532.497C402.952 532.711 405.46 532.881 408.376 533.075C407.967 534.822 407.578 536.505 407.188 538.183C407.182 538.183 407.333 538.057 407.333 538.057Z" fill="#89E35B"/>
<path d="M136.326 67.0443C141.976 64.0916 170.188 73.6406 172.394 79.169C160.24 75.0793 148.619 71.178 136.326 67.0443Z" fill="#89E35B"/>
<path d="M84.9118 228.266C81.0782 226.287 78.2312 224.817 74.1902 222.738C76.4338 219.886 77.961 216.386 80.5251 215.262C82.1403 214.558 87.0863 217.096 87.3879 218.748C87.9033 221.569 85.9362 224.842 84.9118 228.266Z" fill="#A552CC"/>
<path d="M496.198 424.731C500.735 414.83 505.273 404.923 509.81 395.022C510.558 395.387 511.306 395.751 512.06 396.122C509.314 406.827 505.675 417.111 496.198 424.731Z" fill="#89E35B"/>
<path d="M407.352 432.986C412.298 434.5 417.495 436.963 418.274 442.761C419.318 450.489 413.328 454.12 406.283 458.492C409.633 452.976 413.988 448.868 414.164 444.596C414.321 440.82 409.803 436.862 407.352 432.986Z" fill="#89E35B"/>
<path d="M443.168 536.304C435.224 537.919 427.745 542.75 419.041 539.131C426.834 536.223 434.489 532.604 442.86 533.207C442.96 534.237 443.061 535.268 443.168 536.304Z" fill="#89E35B"/>
<path d="M436.261 528.275C428.506 531.461 420.757 534.426 412.417 531.882C420.204 529.161 427.777 524.883 436.261 528.275Z" fill="#89E35B"/>
<path d="M452.331 543.133C443.564 544.201 436.475 549.076 427.437 546.57C433.672 541.148 447.611 538.811 452.331 543.133Z" fill="#89E35B"/>
<path d="M192.09 529.664C182.512 527.415 172.928 525.16 163.35 522.911C163.545 522.062 163.74 521.214 163.941 520.366C173.544 522.439 183.141 524.512 192.744 526.592C192.524 527.616 192.31 528.64 192.09 529.664Z" fill="#89E35B"/>
<path d="M126.541 171.757C116.058 167.234 105.582 162.717 95.0992 158.194C95.3632 157.578 95.6271 156.956 95.8911 156.34C106.405 160.788 116.913 165.236 127.427 169.684C127.132 170.375 126.837 171.066 126.541 171.757Z" fill="#89E35B"/>
<path d="M444.444 385.624C444.048 377.539 447.913 374.586 453.091 373.254C457.264 372.18 462.135 370.71 464.542 377.891C455.417 373.154 449.735 377.42 444.444 385.624Z" fill="#89E35B"/>
<path d="M129.005 336.654C117.359 337.345 107.719 337.577 100.008 330.039C109.089 332.112 118.164 334.185 129.005 336.654Z" fill="#89E35B"/>
<path d="M405.083 524.952C413.02 523.124 420.964 521.296 428.902 519.468C429.103 520.36 429.31 521.252 429.511 522.15C421.567 523.96 413.624 525.775 405.68 527.584C405.479 526.705 405.284 525.832 405.083 524.952Z" fill="#89E35B"/>
<path d="M447.064 410.533C439.812 405.652 438.737 399.351 443.664 393.37C444.701 398.616 445.876 404.534 447.064 410.533Z" fill="#89E35B"/>
<path d="M397.057 188.926C392.143 186.055 387.228 183.178 382.314 180.307C382.653 179.679 382.992 179.051 383.325 178.429C388.41 180.948 393.5 183.473 398.584 185.993C398.075 186.966 397.566 187.946 397.057 188.926Z" fill="#9E75D1"/>
<path d="M236.585 505.59C232.18 504.359 228.635 503.36 224.802 502.286C228.905 497.203 232.984 498.215 236.585 505.59Z" fill="#89E35B"/>
<path d="M25.9996 322.004C23.2469 327.614 20.4942 333.224 17.7416 338.828C17.1697 338.545 16.5978 338.262 16.0258 337.98C18.8414 332.37 21.6569 326.759 24.4724 321.149C24.9815 321.438 25.4905 321.721 25.9996 322.004Z" fill="#A552CC"/>
<path d="M91.7244 128.56C92.3214 126.054 92.3654 125.187 92.7173 124.471C98.5683 112.503 104.331 100.485 110.402 88.6302C112.589 84.3583 116.379 85.0305 120.005 86.8649C123.644 88.7119 124.31 91.6771 122.632 95.1323C116.725 107.301 110.905 119.52 104.539 131.45C103.634 133.146 99.4859 134.579 97.6005 133.925C95.0489 133.052 93.2327 130.037 91.7244 128.56ZM97.6005 131.161C98.317 131.211 99.0271 131.262 99.7436 131.312C100.812 129.942 102.157 128.705 102.898 127.178C107.983 116.687 113.067 106.189 117.799 95.5407C118.535 93.8885 117.46 91.4384 117.221 89.359C115.254 90.6217 112.501 91.4321 111.477 93.2351C108.661 98.1981 106.613 103.588 104.181 108.771C101.66 114.142 98.7757 119.363 96.639 124.879C95.9728 126.588 97.2234 129.044 97.6005 131.161Z" fill="#A552CC"/>
<path d="M169.723 137.801C169.641 131.161 174.895 125.897 181.859 125.639C187.169 125.444 193.001 129.898 193.121 134.246C193.265 139.403 184.127 150.781 179.917 150.699C174.952 150.598 169.805 144.084 169.723 137.801ZM181.28 130.608C178.899 133.932 176.196 136.112 176.529 137.626C176.994 139.762 179.716 141.401 181.469 143.254C183.103 141.382 185.743 139.655 186.057 137.582C186.314 135.961 183.675 133.9 181.28 130.608Z" fill="#89E35B"/>
<path d="M469.174 178.266C468.954 178.542 468.74 178.818 468.52 179.114C467.533 180.383 466.54 181.664 465.554 182.952C460.884 189.046 456.309 195.196 451.658 201.29C452.017 201.667 452.368 202.044 452.727 202.421C457.553 200.442 462.367 198.482 467.194 196.503C469.607 195.536 472.021 194.543 474.415 193.538C476.828 192.551 479.223 191.54 481.617 190.529C477.168 186.056 472.85 181.803 469.174 178.266Z" fill="#89E35B"/>
<path d="M68.1758 110.141C72.0723 101.465 75.9687 92.7827 79.8652 84.1069C80.7451 84.4902 81.6186 84.8734 82.4985 85.2503C78.7026 93.9701 74.9066 102.696 71.1044 111.416C70.124 110.995 69.1499 110.568 68.1758 110.141Z" fill="#A552CC"/>
<path d="M97.6005 131.161C97.2234 129.044 95.9728 126.588 96.6389 124.879C98.7757 119.363 101.66 114.142 104.181 108.771C106.613 103.588 108.661 98.1917 111.477 93.235C112.495 91.4383 115.254 90.6216 117.221 89.3589C117.46 91.4383 118.535 93.8947 117.799 95.5406C113.067 106.189 107.983 116.687 102.898 127.178C102.157 128.705 100.812 129.942 99.7436 131.312C99.0271 131.262 98.3169 131.211 97.6005 131.161Z" fill="#A552CC"/>
<path d="M181.28 130.608C183.675 133.9 186.308 135.961 186.063 137.581C185.749 139.655 183.109 141.382 181.475 143.254C179.722 141.401 177.001 139.761 176.536 137.625C176.202 136.111 178.905 133.931 181.28 130.608Z" fill="#A552CC"/>
<path d="M680.583 75.7454C665.782 21.3849 610.697 -9.58035 556.254 5.84261C503.067 20.9138 472.278 76.9767 488.65 130.238C491.339 138.989 489.643 144.668 484.313 151.34C470.386 168.786 457.113 186.759 443.576 204.519C444.261 205.242 444.946 205.97 445.631 206.693C466.239 198.231 486.934 189.982 507.403 181.193C514.498 178.146 519.683 178.153 526.552 183.097C551.534 201.058 579.563 206.084 609.403 198.363C663.312 184.429 695.157 129.27 680.583 75.7454Z" fill="white" stroke="#313131" stroke-width="6" stroke-miterlimit="10"/>
<path d="M680.583 75.7454C665.782 21.3849 610.697 -9.58035 556.254 5.84261C503.067 20.9138 472.278 76.9767 488.65 130.238C491.339 138.989 489.643 144.668 484.313 151.34C470.386 168.786 457.113 186.759 443.576 204.519C444.261 205.242 444.946 205.97 445.631 206.693C466.239 198.231 486.934 189.982 507.403 181.193C514.498 178.146 519.683 178.153 526.552 183.097C551.534 201.058 579.563 206.084 609.403 198.363C663.312 184.429 695.157 129.27 680.583 75.7454Z" fill="#89E35B"/>
<path d="M511.911 74.803L511.867 77.8562L520.22 77.9819L520.163 81.7826L511.811 81.657L511.717 88.0649L507.468 88.0021L507.726 70.9395L521.169 71.1405L521.112 74.9413L511.911 74.803Z" fill="#313131"/>
<path d="M522.928 79.6907C523.004 74.8973 527.258 70.9332 532.23 71.0086C537.226 71.084 541.367 75.1738 541.292 79.9671C541.217 84.7605 536.956 88.7435 531.959 88.6681C526.994 88.599 522.859 84.4841 522.928 79.6907ZM536.918 79.9043C536.956 77.2218 534.781 74.9036 532.173 74.8659C529.565 74.8282 527.321 77.0773 527.277 79.7598C527.233 82.4675 529.414 84.7856 532.022 84.8296C534.63 84.861 536.88 82.612 536.918 79.9043Z" fill="#313131"/>
<path d="M556.118 84.9425L556.061 88.7433L543.611 88.5548L543.869 71.4922L548.092 71.555L547.891 84.8169L556.118 84.9425Z" fill="#313131"/>
<path d="M570.761 85.1625L570.704 88.9633L558.254 88.7748L558.512 71.7122L562.735 71.775L562.534 85.0368L570.761 85.1625Z" fill="#313131"/>
<path d="M572.432 80.4446C572.508 75.6513 576.763 71.6871 581.734 71.7625C586.73 71.8379 590.872 75.9277 590.796 80.721C590.721 85.5144 586.46 89.4974 581.463 89.422C576.499 89.3466 572.363 85.238 572.432 80.4446ZM586.422 80.6519C586.46 77.9694 584.285 75.6513 581.677 75.6136C579.069 75.5759 576.825 77.8249 576.781 80.5074C576.737 83.2151 578.918 85.5333 581.526 85.5772C584.134 85.6149 586.384 83.3596 586.422 80.6519Z" fill="#313131"/>
<path d="M591.657 72.2148L596.251 72.2839L598.702 82.9764L602.416 72.3782L606.985 72.4473L610.354 83.1585L613.125 72.5415L617.72 72.6106L612.516 89.5979L608.242 89.5351L604.604 78.673L600.638 89.422L596.364 89.3591L591.657 72.2148Z" fill="#313131"/>
<path d="M626.298 82.3292L626.443 72.7424L630.691 72.8053L630.547 82.1972C630.509 84.6033 632.023 86.3435 634.16 86.3749C636.322 86.4064 637.887 84.7164 637.925 82.304L638.069 72.9121L642.293 72.9749L642.148 82.5616C642.079 87.1351 638.773 90.2888 634.104 90.2134C629.459 90.1506 626.229 86.8964 626.298 82.3292Z" fill="#313131"/>
<path d="M643.977 87.512L646.403 84.6912C648.049 86.0796 649.897 86.9026 651.99 86.934C653.58 86.9591 654.409 86.3246 654.422 85.4074C654.434 84.3897 653.643 84.1509 651.173 83.5227C647.534 82.6432 644.838 81.6129 644.888 78.1828C644.938 74.9035 647.603 72.7549 651.506 72.8177C654.365 72.8617 656.59 73.7161 658.381 75.2615L656.175 78.2582C654.629 77.0457 652.92 76.3986 651.33 76.3735C649.96 76.3547 649.181 76.9892 649.168 77.831C649.149 78.8738 649.966 79.2319 652.492 79.8162C656.307 80.6957 658.752 81.8265 658.702 85.0305C658.651 88.4606 656.006 90.5526 651.782 90.4897C648.753 90.4458 646.007 89.4092 643.977 87.512Z" fill="#313131"/>
<path d="M512.911 109.374C512.986 104.581 517.241 100.617 522.212 100.692C527.208 100.768 531.35 104.857 531.274 109.651C531.199 114.444 526.938 118.427 521.942 118.352C516.971 118.276 512.835 114.168 512.911 109.374ZM526.9 109.582C526.938 106.899 524.763 104.581 522.155 104.543C519.547 104.506 517.304 106.755 517.26 109.437C517.216 112.145 519.396 114.463 522.005 114.507C524.613 114.545 526.856 112.289 526.9 109.582Z" fill="#313131"/>
<path d="M533.97 101.17L538.219 101.233L545.496 111.429L545.647 101.346L549.896 101.408L549.638 118.471L545.39 118.408L538.112 108.212L537.961 118.295L533.713 118.232L533.97 101.17Z" fill="#313131"/>
<path d="M558.613 116.052L561.045 113.232C562.685 114.62 564.539 115.443 566.625 115.475C568.215 115.5 569.045 114.865 569.058 113.948C569.07 112.93 568.278 112.691 565.808 112.063C562.17 111.184 559.474 110.153 559.524 106.723C559.574 103.444 562.239 101.295 566.142 101.358C569.001 101.402 571.226 102.257 573.017 103.802L570.811 106.799C569.265 105.586 567.556 104.939 565.966 104.914C564.596 104.895 563.816 105.53 563.804 106.372C563.785 107.414 564.602 107.772 567.128 108.357C570.943 109.236 573.388 110.367 573.337 113.571C573.287 117.001 570.641 119.093 566.418 119.03C563.389 118.98 560.649 117.95 558.613 116.052Z" fill="#313131"/>
<path d="M575.141 110.317C575.217 105.523 579.471 101.559 584.442 101.635C589.439 101.71 593.58 105.8 593.505 110.593C593.429 115.386 589.168 119.369 584.172 119.294C579.201 119.219 575.066 115.11 575.141 110.317ZM589.131 110.524C589.168 107.841 586.994 105.523 584.386 105.486C581.778 105.448 579.534 107.697 579.49 110.38C579.446 113.087 581.627 115.405 584.235 115.449C586.843 115.487 589.087 113.238 589.131 110.524Z" fill="#313131"/>
<path d="M595.353 110.625C595.428 105.831 599.683 101.867 604.654 101.942C607.312 101.98 609.732 103.161 611.391 104.977L608.242 107.684C607.362 106.554 606.036 105.812 604.591 105.787C601.983 105.75 599.739 107.999 599.695 110.681C599.651 113.389 601.832 115.707 604.44 115.751C605.904 115.776 607.237 115.072 608.173 113.967L611.215 116.743C609.499 118.528 607.048 119.633 604.384 119.596C599.419 119.527 595.277 115.418 595.353 110.625Z" fill="#313131"/>
<path d="M613.635 102.376L617.883 102.439L617.625 119.501L613.377 119.439L613.635 102.376Z" fill="#313131"/>
<path d="M631.998 117.24L625.236 117.139L624.205 119.608L619.435 119.533L626.455 102.571L631.225 102.646L637.724 119.815L632.954 119.74L631.998 117.24ZM630.735 113.891L628.749 108.62L626.606 113.828L630.735 113.891Z" fill="#313131"/>
<path d="M651.958 116.228L651.902 120.029L639.452 119.841L639.71 102.778L643.933 102.841L643.732 116.103L651.958 116.228Z" fill="#313131"/>
<path d="M512.609 130.677L516.857 130.74L524.135 140.936L524.286 130.853L528.534 130.916L528.277 147.979L524.028 147.916L516.751 137.72L516.6 147.803L512.351 147.74L512.609 130.677Z" fill="#313131"/>
<path d="M535.994 134.83L535.956 137.488L544.309 137.613L544.252 141.414L535.9 141.288L535.856 144.291L545.05 144.429L544.994 148.23L531.551 148.029L531.809 130.967L545.251 131.168L545.195 134.968L535.994 134.83Z" fill="#313131"/>
<path d="M552.076 135.075L546.885 134.993L546.942 131.193L561.554 131.413L561.497 135.213L556.325 135.138L556.124 148.4L551.875 148.337L552.076 135.075Z" fill="#313131"/>
<path d="M562.584 131.431L567.179 131.501L569.623 142.193L573.337 131.595L577.906 131.664L581.275 142.375L584.046 131.758L588.641 131.827L583.437 148.814L579.163 148.752L575.524 137.89L571.559 148.639L567.285 148.576L562.584 131.431Z" fill="#313131"/>
<path d="M589.828 140.371C589.904 135.578 594.158 131.614 599.13 131.689C604.126 131.764 608.267 135.854 608.192 140.648C608.117 145.441 603.856 149.424 598.859 149.348C593.895 149.273 589.753 145.165 589.828 140.371ZM603.818 140.578C603.856 137.896 601.681 135.578 599.073 135.54C596.465 135.502 594.221 137.751 594.177 140.434C594.133 143.142 596.314 145.46 598.922 145.504C601.53 145.541 603.774 143.286 603.818 140.578Z" fill="#313131"/>
<path d="M620.648 149.38L616.978 143.983L614.891 143.952L614.81 149.292L610.561 149.229L610.819 132.167L618.744 132.286C622.496 132.342 625.192 134.792 625.142 138.248C625.104 140.729 623.659 142.677 621.434 143.537L625.469 149.462L620.648 149.38ZM614.948 140.082L618.229 140.132C619.693 140.158 620.749 139.379 620.768 138.185C620.786 136.991 619.756 136.181 618.285 136.162L615.005 136.112L614.948 140.082Z" fill="#313131"/>
<path d="M627.97 132.424L632.218 132.487L632.105 139.762L638.553 132.581L643.6 132.657L637.007 139.812L643.839 149.732L638.717 149.656L634.022 142.828L632.03 144.907L631.961 149.556L627.712 149.493L627.97 132.424Z" fill="#313131"/>
<path d="M644.209 147.181L646.642 144.36C648.282 145.749 650.136 146.572 652.222 146.603C653.812 146.628 654.642 145.994 654.654 145.076C654.667 144.059 653.875 143.82 651.405 143.192C647.766 142.312 645.07 141.282 645.121 137.852C645.171 134.572 647.836 132.424 651.738 132.487C654.598 132.531 656.823 133.385 658.614 134.93L656.408 137.927C654.862 136.715 653.152 136.068 651.562 136.042C650.192 136.024 649.413 136.658 649.4 137.5C649.382 138.543 650.199 138.901 652.725 139.491C656.54 140.371 658.984 141.502 658.934 144.706C658.884 148.136 656.238 150.228 652.015 150.165C648.986 150.108 646.246 149.072 644.209 147.181Z" fill="#313131"/>
</g>
<defs>
<clipPath id="clip0_327_717">
<rect width="686" height="617" fill="white"/>
</clipPath>
</defs>
</svg>
