<svg width="527" height="576" viewBox="0 0 527 576" fill="none" xmlns="http://www.w3.org/2000/svg">
<g clip-path="url(#clip0_533_954)">
<path d="M475.626 308.706C478.49 297.754 476.346 288.225 469.159 279.489C457.612 265.475 446.228 251.335 434.952 237.104C429.638 230.404 428.899 224.279 432.412 220.821C435.942 217.362 442.391 217.975 448.696 223.18C468.168 239.212 484.146 258.162 495.657 280.696C499.602 288.423 501.655 296.727 499.782 305.427C497.512 315.983 495.026 326.521 492.162 336.914C491.189 340.445 491.568 342.426 493.927 345.488C497.566 350.244 500.268 355.936 502.268 361.628C503.096 363.988 502.033 368.401 500.196 370.04C496.882 372.976 496.773 376.146 496.755 379.821C496.737 382.127 496.629 384.468 496.251 386.738C494.162 399.491 490 402.86 477.031 402.571C476.472 402.553 475.878 402.697 475.374 402.914C465.682 407.075 458.261 399.563 449.723 397.852C448.606 397.636 447.813 395.997 446.768 395.168C445.651 394.267 444.499 393.241 443.184 392.772C436.465 390.341 425.098 374.057 425.26 366.834C425.278 365.879 425.513 364.924 425.765 363.988C428.323 354.351 434.897 348.478 444.066 345.56C446.876 344.66 448.011 343.615 448.732 340.805C450.281 334.879 454.46 331.925 460.711 331.925C463.575 331.925 466.439 332.411 470.294 332.789C472.077 324.485 473.572 316.523 475.626 308.706ZM461.179 396.375C465.07 402.643 471.267 403.166 477.265 397.708C480.489 401.455 487.226 400.86 489.73 395.384C492.684 388.918 493.891 381.64 495.819 374.795C490.253 373.084 486.128 371.805 482.021 370.544C482.183 369.932 482.363 369.337 482.525 368.725C484.903 369.157 487.28 369.626 489.658 370.04C496.846 371.319 501.025 367.698 499.133 360.709C497.62 355.143 494.324 350.082 491.82 344.786C491.117 344.876 490.415 344.966 489.712 345.038C488.848 347.218 487.893 349.379 487.136 351.595C485.767 355.54 483.372 357.953 478.922 357.035C474.131 356.044 469.069 354.783 468.24 348.983C467.61 344.606 468.114 340.084 468.114 335.221C463.449 334.482 457.937 332.933 453.667 337.671C448.209 343.705 453.343 349.145 454.226 355.504C452.767 353.702 450.875 352.081 449.939 350.028C448.516 346.875 446.21 346.263 443.994 348.082C439.041 352.171 433.546 356.134 430.052 361.358C425.873 367.572 435.186 387.386 442.481 389.548C444.391 390.106 446.534 389.818 449.128 389.962C449.29 396.195 454.424 399.023 461.179 396.375Z" fill="#313131"/>
<path d="M73.6569 114.977C77.3677 123.353 75.4402 128.252 66.7578 133.025C63.1551 135.007 57.9492 136.142 56.4181 139.168C54.941 142.104 57.1927 146.949 57.8772 150.948C59.1201 158.19 60.4171 165.413 61.714 172.636C62.3985 176.473 64.4701 179.265 68.5771 179.247C76.6471 179.229 84.7171 178.977 92.7691 178.544C98.9297 178.22 105.072 177.283 111.233 176.959C116.205 176.707 120.005 179.103 121.446 183.876C122.996 188.938 119.591 191.766 115.646 193.945C114.475 194.594 113.232 195.242 111.935 195.53C94.8947 199.475 77.6739 201.853 60.1469 200.16C49.0866 199.097 44.5473 195.062 42.9261 184.02C41.2688 172.762 40.4762 161.36 39.3234 150.03C39.0352 147.166 38.855 144.284 38.6389 141.564C33.433 140.537 28.4433 140.033 23.7958 138.519C17.8874 136.592 17.5272 131.891 19.7068 126.145C5.18799 121.515 3.51274 108.708 2.59406 96.6753C0.936829 74.7176 0.486494 52.6697 0.000131769 30.6399C-0.161989 22.9304 3.71089 19.0035 10.7361 16.7159C12.2673 16.2115 13.7984 14.7165 14.663 13.2754C17.2029 9.04237 20.1571 6.07024 25.5972 5.96216C27.5786 5.92614 29.6502 4.19689 31.4515 2.91797C37.2518 -1.17097 40.9446 -0.936797 46.2946 3.49439C47.4294 4.43106 49.7351 4.44907 51.4104 4.19689C59.1561 3.08009 62.7408 4.73728 63.9477 12.4468C65.9292 25.0379 66.8839 37.773 68.2709 50.4541C68.379 51.4088 68.4691 52.3455 68.6132 53.5704C69.8921 53.1381 71.045 52.3275 72.0177 52.4896C75.6204 53.084 80.1417 52.976 82.4294 55.1375C84.483 57.0829 85.5277 62.2706 84.4289 64.9726C80.7002 74.2673 79.7455 83.5259 80.8803 93.361C81.835 101.557 79.7094 109.086 73.6569 114.977ZM63.8216 70.5025C63.6235 70.1783 63.4253 69.8361 63.2091 69.5118C64.0017 67.3323 65.4068 65.1707 65.4608 62.9731C65.5689 57.7494 65.1726 52.5256 64.7043 47.3019C63.7315 36.332 62.7588 25.3621 61.4618 14.4282C60.9034 9.67283 58.922 5.67395 52.9055 6.59261C48.8164 7.20505 45.3038 6.9889 41.7912 3.85465C40.4402 2.64778 36.4412 3.87266 33.9013 4.73728C31.6136 5.51184 29.6502 8.48397 27.5606 8.46596C21.0038 8.42993 17.9235 12.4648 14.9873 17.2022C14.4289 18.1029 13.3841 19.0035 12.3934 19.2737C5.04388 21.2732 2.73817 26.8752 3.00837 33.4859C3.92705 55.858 5.206 78.2301 6.35886 100.602C7.0794 114.562 14.0146 123.262 27.9029 126.127C27.9569 126.145 27.9389 126.469 27.9569 126.649C27.7408 126.937 27.5606 127.423 27.2904 127.477C24.9667 127.928 21.4361 125.748 20.9317 130.197C20.4453 134.593 23.8679 136.106 27.0382 136.556C31.7578 137.259 36.6754 137.511 41.431 137.042C51.1222 136.088 60.5432 133.836 68.4871 127.748C71.9817 125.064 73.8371 121.803 70.7568 117.931C66.9559 119.192 63.5694 120.326 60.1829 121.443C59.9667 120.921 59.7686 120.398 59.5524 119.894C60.5792 119.192 61.5339 118.309 62.6687 117.823C74.1613 112.869 78.7907 104.151 77.5298 91.8119C76.5751 82.4812 77.0254 73.2945 81.3486 64.5943C83.4742 60.3072 81.7629 56.8307 77.5298 55.2276C73.0625 53.5163 70.0723 55.876 68.4871 60.055C67.8746 61.6582 68.0728 63.5856 67.3702 65.1167C66.4876 67.0441 65.0285 68.7193 63.8216 70.5025Z" fill="#313131"/>
<path d="M449.146 389.962C449.29 396.195 454.424 399.023 461.197 396.375C465.088 402.643 471.285 403.166 477.283 397.708C480.507 401.455 487.244 400.86 489.748 395.384C492.702 388.918 493.909 381.64 495.837 374.795C490.271 373.084 486.146 371.805 482.039 370.544C482.201 369.932 482.381 369.337 482.543 368.725C484.921 369.157 487.298 369.626 489.676 370.04C496.864 371.319 501.043 367.698 499.151 360.709C497.638 355.143 494.342 350.082 491.838 344.786C491.135 344.876 490.433 344.966 489.73 345.038C488.866 347.218 487.911 349.379 487.154 351.595C485.785 355.54 483.39 357.953 478.94 357.035C474.149 356.044 469.087 354.783 468.258 348.983C467.628 344.606 468.132 340.084 468.132 335.221C463.467 334.482 457.955 332.933 453.685 337.671C448.227 343.705 453.361 349.145 454.244 355.504C452.785 353.702 450.893 352.081 449.957 350.028C448.534 346.875 446.228 346.263 444.012 348.082C439.059 352.171 433.564 356.134 430.07 361.358C425.891 367.572 435.204 387.386 442.499 389.548C444.391 390.106 446.552 389.818 449.146 389.962Z" fill="#89E35B"/>
<path d="M63.8215 70.5026C65.0284 68.7193 66.4875 67.0441 67.3701 65.1168C68.0727 63.5857 67.8745 61.6583 68.487 60.0551C70.0721 55.8941 73.0624 53.5344 77.5297 55.2276C81.7628 56.8488 83.4741 60.3073 81.3485 64.5944C77.0253 73.2766 76.575 82.4812 77.5297 91.8119C78.7906 104.133 74.1612 112.869 62.6686 117.823C61.5518 118.309 60.5971 119.192 59.5523 119.894C59.7685 120.416 59.9666 120.939 60.1828 121.443C63.5693 120.308 66.9558 119.192 70.7566 117.931C73.8369 121.804 71.9816 125.064 68.487 127.748C60.525 133.836 51.122 136.106 41.4308 137.042C36.6753 137.511 31.7757 137.259 27.0381 136.556C23.8678 136.088 20.4452 134.593 20.9316 130.198C21.436 125.748 24.9666 127.928 27.2903 127.478C27.5605 127.424 27.7406 126.937 27.9568 126.649C27.9388 126.469 27.9568 126.145 27.9028 126.127C14.0144 123.281 7.07928 114.562 6.35874 100.602C5.20588 78.2302 3.90892 55.8761 3.00825 33.486C2.73805 26.8753 5.04376 21.2732 12.3932 19.2738C13.366 19.0036 14.4107 18.103 14.9691 17.2023C17.9233 12.4649 21.0036 8.43001 27.5425 8.46603C29.6321 8.48404 31.5955 5.51191 33.8832 4.73735C36.4231 3.87273 40.4221 2.66586 41.7731 3.85472C45.2857 6.98897 48.7983 7.20513 52.9234 6.57467C58.9399 5.65601 60.9213 9.65489 61.4798 14.4103C62.7587 25.3442 63.7494 36.314 64.7222 47.2839C65.1725 52.4897 65.5868 57.7314 65.4787 62.9552C65.4427 65.1528 64.0196 67.3143 63.227 69.4939C63.4252 69.8362 63.6233 70.1604 63.8215 70.5026ZM9.2589 69.4038C25.543 65.8373 41.593 62.3067 57.6429 58.7942C40.7463 58.9563 24.5703 62.1626 9.2589 69.4038ZM47.8076 53.7326C48.438 53.6785 49.0865 53.6425 49.717 53.5885C48.7082 39.7725 47.6815 25.9566 46.6727 12.1227C46.2224 12.1587 45.7901 12.1947 45.3397 12.2307C46.1684 26.0827 46.979 39.8986 47.8076 53.7326ZM57.5889 70.3945C43.7726 68.3411 32.208 76.3568 32.9825 86.6062C37.1076 77.8159 37.1076 77.8159 57.5889 70.3945ZM15.4915 24.6777C14.9691 24.6777 14.4468 24.6777 13.9244 24.6957C15.1493 36.1159 16.3562 47.5361 17.5811 58.9743C18.1575 58.9023 18.752 58.8482 19.3284 58.7762C18.0494 47.392 16.7705 36.0439 15.4915 24.6777ZM31.1992 14.9867C30.7129 14.9507 30.2085 14.9147 29.7221 14.8786C30.5327 27.938 31.3253 40.9974 32.1359 54.0388C32.7844 54.0028 33.4149 53.9487 34.0634 53.9127C33.1086 40.9434 32.1539 27.9741 31.1992 14.9867Z" fill="#89E35B"/>
<path d="M9.25888 69.4038C24.5703 62.1806 40.7463 58.9743 57.6429 58.7942C41.5929 62.3067 25.543 65.8192 9.25888 69.4038Z" fill="#313131"/>
<path d="M47.8076 53.7327C46.9789 39.8988 46.1683 26.0648 45.3397 12.2309C45.7901 12.1949 46.2224 12.1588 46.6727 12.1228C47.6815 25.9387 48.7082 39.7547 49.717 53.5886C49.0865 53.6426 48.438 53.6967 47.8076 53.7327Z" fill="#313131"/>
<path d="M57.5888 70.3947C37.1256 77.816 37.1256 77.816 32.9825 86.6064C32.1899 76.357 43.7726 68.3412 57.5888 70.3947Z" fill="#313131"/>
<path d="M15.4915 24.6777C16.7705 36.0439 18.0494 47.4101 19.3284 58.7762C18.7519 58.8483 18.1575 58.9023 17.5811 58.9744C16.3562 47.5362 15.1493 36.116 13.9243 24.6777C14.4467 24.6777 14.9691 24.6777 15.4915 24.6777Z" fill="#313131"/>
<path d="M31.1992 14.9868C32.1539 27.9741 33.1086 40.9435 34.0453 53.9308C33.3968 53.9668 32.7664 54.0209 32.1179 54.0569C31.3073 40.9975 30.5147 27.9381 29.7041 14.8967C30.2085 14.9147 30.6948 14.9508 31.1992 14.9868Z" fill="#313131"/>
<path d="M211.477 576C185.592 576.09 176.117 553.394 184.601 532.985C187.141 526.897 192.383 521.709 197.103 516.81C200.867 512.901 201.966 503.138 198.039 499.517C193.482 495.338 192.365 490.114 195.031 483.666C196.202 480.838 197.391 477.523 199.606 475.722C204.866 471.417 203.75 466.824 202.164 461.384C193.842 433.103 186.421 404.571 189.987 374.687C191.825 359.178 194.437 343.759 197.427 328.43C198.309 323.909 201.246 319.604 203.966 315.695C206.398 312.218 210.252 310.345 214.666 312.038C219.007 313.696 219.187 317.748 218.593 321.369C217.043 330.898 214.81 340.319 213.261 349.848C210.955 363.934 207.947 378.038 207.118 392.232C205.947 412.262 213.351 430.978 218.719 449.927C218.881 450.486 219.187 451.008 219.313 451.567C220.628 458.033 222.213 462.807 231.13 462.591C239.902 462.374 244.352 468.445 246.243 477.379C246.693 479.505 248.549 481.756 250.368 483.053C254.385 485.935 256.511 489.682 256.151 494.383C255.628 501.084 254.547 507.731 253.575 514.396C252.404 522.394 250.278 530.337 249.99 538.353C249.233 559.428 232.697 575.982 211.477 576ZM205.695 473.038C198.994 477.667 194.202 486.98 195.806 492.51C197.841 499.571 203.786 500.76 210.108 502.021C207.785 502.309 205.461 502.615 202.741 502.958C202.561 506.398 202.399 509.712 202.2 513.351C206.542 512.306 210.054 511.28 213.639 510.631C216.899 510.037 220.232 509.857 223.528 509.496C220.646 511.117 217.62 511.586 214.612 512.126C192.419 516.233 179.63 534.57 184.673 555.015C186.619 562.869 191.284 568.489 198.688 571.677C220.448 581.008 246.711 563.697 247.594 539.992C247.9 531.598 250.062 523.258 251.377 514.9C252.386 508.434 253.719 502.003 254.313 495.518C254.854 489.556 251.791 485.359 246.297 482.837C244.622 485.683 243.091 488.331 241.542 490.961C243.919 483.36 247.252 475.956 240.641 469.129C236.156 464.482 230.319 462.915 223.726 464.194C223.816 471.471 230.049 479.721 219.619 483.81C209.82 487.647 208.307 479.235 205.695 473.038Z" fill="#313131"/>
<path d="M340.741 460.159C352.594 466.842 354.143 470.912 350.18 483.143C349.784 484.386 349.73 485.791 349.766 487.124C349.928 492.528 350.451 497.932 350.343 503.318C350.217 508.902 351.135 513.081 355.999 517.296C368.248 527.923 369.275 550.836 359.151 563.535C348.055 577.441 322.962 577.171 312.136 562.941C304.174 552.475 302.121 540.424 303.688 527.743C304.625 520.16 304.21 513.315 299.473 506.83C295.762 501.751 297.167 496.167 299.941 490.907C302.481 486.079 304.823 481.954 302.427 475.488C299.293 467.058 307.579 457.943 317.991 457.475C323.016 457.259 324.475 455.313 325.322 450.936C328.132 436.526 331.843 422.277 334.131 407.795C337.013 389.602 332.707 372.039 327.159 354.801C324.259 345.777 321.305 336.77 318.117 327.854C316.459 323.206 317.27 319.784 321.917 317.91C326.511 316.055 331.393 316.253 333.248 321.351C338.274 335.113 343.155 348.983 347.064 363.087C355.206 392.52 352.486 421.701 343.479 450.54C342.489 453.62 341.696 456.79 340.741 460.159ZM343.876 486.818C348.361 482.747 351.694 478.748 350.379 472.84C349.208 467.634 346.037 463.959 340.507 462.807C335.896 466.968 338.093 478.28 326.853 474.695C317.504 471.723 321.953 465.22 322.944 459.762C314.64 458.664 307.993 461.654 305.291 467.616C301.814 475.29 305.129 480.766 311.254 485.557C309.542 484.981 307.831 484.386 305.633 483.648C302.427 490.979 295.6 497.428 301.887 506.038C306.588 512.486 307.074 519.367 305.994 526.969C304.372 538.389 305.886 549.413 312.424 559.248C322.728 574.685 347.839 575.55 358.395 560.905C367.167 548.746 367.113 521.006 345.011 512.324C343.606 511.766 342.237 511.081 340.85 510.451C340.976 510.145 341.102 509.82 341.228 509.514C343.516 509.983 345.821 510.451 348.001 510.901C348.001 502.507 348.001 494.491 348.001 486.386C346.308 486.566 345.083 486.692 343.876 486.818Z" fill="#313131"/>
<path d="M205.695 473.038C208.307 479.252 209.82 487.664 219.637 483.81C230.067 479.739 223.834 471.471 223.744 464.194C230.337 462.915 236.174 464.482 240.659 469.129C247.252 475.956 243.919 483.359 241.56 490.961C243.109 488.331 244.64 485.683 246.315 482.837C251.809 485.359 254.872 489.538 254.331 495.518C253.737 502.021 252.404 508.451 251.395 514.9C250.08 523.258 247.918 531.598 247.612 539.992C246.73 563.697 220.466 581.007 198.706 571.677C191.302 568.506 186.637 562.868 184.691 555.015C179.648 534.57 192.437 516.233 214.63 512.126C217.638 511.568 220.664 511.117 223.546 509.496C220.25 509.856 216.917 510.036 213.657 510.631C210.072 511.279 206.56 512.306 202.218 513.351C202.399 509.694 202.579 506.398 202.759 502.957C205.479 502.615 207.803 502.309 210.126 502.021C203.804 500.76 197.859 499.571 195.824 492.51C194.202 486.962 198.994 477.667 205.695 473.038Z" fill="#89E35B"/>
<path d="M343.876 486.818C345.083 486.692 346.29 486.548 348.019 486.368C348.019 494.473 348.019 502.489 348.019 510.883C345.839 510.433 343.534 509.965 341.246 509.496C341.12 509.802 340.994 510.127 340.868 510.433C342.255 511.063 343.624 511.748 345.029 512.306C367.113 520.989 367.167 548.728 358.413 560.887C347.857 575.532 322.746 574.667 312.442 559.23C305.886 549.413 304.372 538.371 306.012 526.951C307.092 519.349 306.606 512.468 301.905 506.02C295.618 497.41 302.445 490.979 305.651 483.63C307.831 484.368 309.542 484.963 311.272 485.539C305.165 480.748 301.851 475.272 305.309 467.598C307.993 461.636 314.658 458.646 322.962 459.745C321.971 465.202 317.522 471.705 326.871 474.677C338.111 478.244 335.914 466.932 340.525 462.789C346.073 463.942 349.244 467.616 350.397 472.822C351.694 478.766 348.361 482.747 343.876 486.818Z" fill="#89E35B"/>
<path d="M434.663 223.325C431.943 251.695 429.061 280.065 426.647 308.472C426.089 314.993 423.549 318.505 417.587 321.225C364.519 345.434 311.632 370.058 258.492 394.105C255.196 395.6 249.215 394.916 246.225 392.79C199.156 359.484 152.447 325.656 105.414 292.314C99.1277 287.865 97.1643 283.434 97.9569 275.724C103.721 219.344 109.107 162.909 114.187 106.457C114.853 99.1253 117.591 95.3967 124.274 92.3885C176.531 68.8456 228.644 44.9424 280.721 20.9672C286.089 18.4994 289.98 18.1391 295.258 21.9579C342.002 55.7141 388.927 89.2182 436.068 122.434C442.157 126.721 443.886 131.008 443.094 138.231C439.959 166.566 437.491 194.972 434.771 223.343C434.735 223.325 434.699 223.325 434.663 223.325ZM326.475 235.627C341.876 228.566 355.548 222.424 369.059 215.957C370.806 215.111 372.733 212.751 372.949 210.896C374.679 195.747 376.012 180.544 377.633 163.558C362.267 170.565 348.541 176.581 335.103 183.174C333.014 184.201 331.266 187.731 330.96 190.307C329.285 204.609 328.078 218.965 326.475 235.627ZM434.321 137.691C418.848 144.77 405.464 150.732 392.26 157.091C390.224 158.064 387.865 160.64 387.612 162.711C385.811 177.824 384.532 192.991 382.929 209.779C398.168 202.88 411.84 196.846 425.314 190.415C427.296 189.46 429.421 186.686 429.674 184.543C431.403 169.664 432.682 154.749 434.321 137.691ZM269.859 261.548C284.918 254.649 298.014 248.759 310.983 242.58C313.127 241.554 316.027 239.428 316.261 237.519C318.117 222.118 319.432 206.663 321.089 189.406C305.615 196.467 291.961 202.538 278.505 209.022C276.578 209.959 274.722 212.877 274.47 215.075C272.741 229.917 271.462 244.814 269.859 261.548ZM428.395 199.385C412.975 206.41 399.537 212.427 386.243 218.713C384.37 219.596 382.028 221.721 381.83 223.487C380.029 238.978 378.678 254.541 377.056 271.545C392.26 264.61 405.968 258.54 419.478 252.037C421.441 251.101 423.495 248.291 423.747 246.147C425.495 231.268 426.773 216.318 428.395 199.385ZM263.914 323.224C279.46 316.163 293.15 310.021 306.732 303.644C308.299 302.906 310.155 300.96 310.335 299.393C312.046 283.938 313.433 268.447 315.09 251.155C299.617 258.252 285.891 264.304 272.453 270.933C270.381 271.96 268.706 275.526 268.4 278.102C266.688 292.368 265.481 306.725 263.914 323.224ZM371.725 225.36C356.053 232.475 342.11 238.69 328.312 245.21C326.853 245.895 325.466 248.164 325.286 249.84C323.647 264.989 322.278 280.155 320.62 297.34C336.274 290.153 350.217 283.938 363.907 277.237C365.69 276.355 367.005 273.058 367.257 270.735C368.878 256.45 370.121 242.13 371.725 225.36ZM257.97 384.865C273.66 377.606 287.566 371.265 301.346 364.654C302.859 363.934 304.517 361.808 304.697 360.169C306.372 345.056 307.723 329.889 309.362 312.831C293.727 319.946 280 325.962 266.562 332.537C264.491 333.546 262.761 337.058 262.473 339.598C260.762 353.882 259.555 368.221 257.97 384.865ZM422.054 261.314C406.905 268.231 392.998 274.499 379.218 281.02C377.687 281.741 376.012 283.848 375.832 285.469C374.174 300.528 372.805 315.623 371.184 332.645C386.694 325.584 400.024 319.64 413.209 313.371C415.029 312.507 417.172 310.201 417.388 308.364C419.118 293.233 420.451 278.048 422.054 261.314ZM314.766 358.458C330.06 351.505 343.678 345.434 357.17 339.04C358.935 338.211 360.916 335.888 361.133 334.068C362.862 318.973 364.177 303.842 365.78 287.072C350.541 293.989 336.869 299.988 323.467 306.544C321.359 307.571 319.522 311.012 319.215 313.551C317.54 327.764 316.351 342.066 314.766 358.458Z" fill="#313131"/>
<path d="M326.475 235.627C328.078 218.965 329.267 204.609 330.96 190.307C331.266 187.749 333.014 184.218 335.103 183.174C348.541 176.581 362.267 170.547 377.633 163.558C376.012 180.544 374.679 195.729 372.949 210.896C372.733 212.751 370.806 215.129 369.059 215.957C355.548 222.424 341.876 228.584 326.475 235.627Z" fill="#89E35B"/>
<path d="M434.321 137.691C432.682 154.749 431.421 169.682 429.674 184.543C429.421 186.686 427.314 189.46 425.314 190.415C411.84 196.845 398.168 202.88 382.929 209.779C384.532 192.991 385.829 177.824 387.612 162.711C387.864 160.639 390.224 158.064 392.26 157.091C405.464 150.732 418.848 144.752 434.321 137.691Z" fill="#89E35B"/>
<path d="M269.859 261.548C271.462 244.814 272.741 229.917 274.47 215.075C274.722 212.877 276.596 209.959 278.505 209.022C291.943 202.52 305.615 196.467 321.089 189.406C319.432 206.663 318.135 222.118 316.261 237.519C316.027 239.428 313.127 241.554 310.983 242.58C298.014 248.759 284.918 254.649 269.859 261.548Z" fill="#89E35B"/>
<path d="M428.395 199.385C426.773 216.317 425.494 231.268 423.747 246.165C423.495 248.308 421.441 251.1 419.478 252.055C405.968 258.558 392.26 264.628 377.056 271.563C378.678 254.541 380.047 238.996 381.83 223.505C382.028 221.739 384.388 219.614 386.243 218.731C399.555 212.409 412.975 206.41 428.395 199.385Z" fill="#89E35B"/>
<path d="M263.914 323.224C265.499 306.724 266.706 292.368 268.382 278.084C268.688 275.508 270.363 271.941 272.435 270.915C285.873 264.286 299.599 258.234 315.072 251.136C313.415 268.429 312.028 283.92 310.317 299.375C310.137 300.942 308.281 302.888 306.714 303.626C293.15 310.003 279.46 316.145 263.914 323.224Z" fill="#89E35B"/>
<path d="M371.724 225.36C370.121 242.13 368.878 256.45 367.257 270.735C366.987 273.058 365.69 276.373 363.907 277.237C350.198 283.938 336.274 290.153 320.62 297.34C322.26 280.155 323.629 264.971 325.286 249.84C325.466 248.164 326.871 245.895 328.312 245.21C342.11 238.708 356.053 232.475 371.724 225.36Z" fill="#89E35B"/>
<path d="M257.97 384.865C259.555 368.221 260.762 353.882 262.455 339.598C262.761 337.058 264.473 333.546 266.544 332.537C279.982 325.962 293.69 319.946 309.344 312.831C307.705 329.907 306.354 345.056 304.679 360.169C304.499 361.79 302.859 363.916 301.328 364.654C287.548 371.265 273.642 377.605 257.97 384.865Z" fill="#89E35B"/>
<path d="M422.054 261.314C420.451 278.066 419.136 293.233 417.388 308.364C417.172 310.201 415.029 312.507 413.209 313.371C400.024 319.64 386.676 325.584 371.184 332.645C372.805 315.623 374.174 300.528 375.832 285.469C376.012 283.848 377.687 281.741 379.218 281.02C392.98 274.481 406.887 268.231 422.054 261.314Z" fill="#89E35B"/>
<path d="M314.766 358.458C316.333 342.066 317.522 327.763 319.233 313.533C319.54 311.011 321.377 307.553 323.485 306.526C336.887 299.969 350.559 293.989 365.798 287.054C364.195 303.842 362.862 318.973 361.151 334.05C360.934 335.869 358.953 338.193 357.188 339.022C343.696 345.416 330.059 351.505 314.766 358.458Z" fill="#89E35B"/>
<path d="M209.244 224.423C210.847 207.761 212.378 193.441 213.423 179.085C213.621 176.509 212.63 172.708 210.847 171.321C199.462 162.351 187.7 153.885 174.568 144.158C172.947 161.144 171.38 176.311 170.191 191.514C170.047 193.369 171.416 196.053 172.911 197.206C184.403 206.05 196.094 214.624 209.244 224.423Z" fill="#89E35B"/>
<path d="M126.184 108.204C124.545 125.262 122.977 140.159 121.861 155.092C121.699 157.235 123.176 160.351 124.851 161.666C136.307 170.493 148.016 178.941 161.04 188.56C162.643 171.772 164.246 156.641 165.363 141.456C165.525 139.384 163.778 136.412 162.049 135.079C150.844 126.361 139.388 118.021 126.184 108.204Z" fill="#89E35B"/>
<path d="M257.574 260.377C259.177 243.643 260.744 228.765 261.879 213.886C262.041 211.688 260.834 208.464 259.213 207.185C247.792 198.305 236.102 189.821 222.88 180.021C221.223 197.278 219.583 212.697 218.484 228.17C218.34 230.079 220.682 232.727 222.501 234.132C233.508 242.598 244.712 250.794 257.574 260.377Z" fill="#89E35B"/>
<path d="M120.294 169.898C118.672 186.83 117.105 201.745 115.97 216.696C115.808 218.857 117.213 221.974 118.888 223.271C130.363 232.151 142.09 240.671 155.095 250.308C156.717 233.286 158.338 217.759 159.527 202.213C159.671 200.43 157.851 197.908 156.266 196.701C144.954 188.055 133.461 179.661 120.294 169.898Z" fill="#89E35B"/>
<path d="M251.719 322.053C253.304 305.554 254.836 291.233 255.898 276.895C256.096 274.301 255.178 270.5 253.412 269.113C242.028 260.107 230.265 251.623 217.043 241.77C215.386 259.062 213.819 274.535 212.558 290.026C212.432 291.594 213.819 293.863 215.152 294.872C226.735 303.662 238.443 312.236 251.719 322.053Z" fill="#89E35B"/>
<path d="M168.677 205.942C167.074 222.712 165.579 237.014 164.444 251.335C164.264 253.658 164.877 257.153 166.39 258.342C178.008 267.474 189.933 276.156 203.299 286.118C204.938 268.933 206.47 253.766 207.73 238.581C207.875 236.906 206.974 234.42 205.749 233.466C193.986 224.531 182.061 215.831 168.677 205.942Z" fill="#89E35B"/>
<path d="M245.865 383.712C247.45 367.068 248.981 352.748 250.044 338.409C250.242 335.852 249.269 332.087 247.504 330.718C236.12 321.765 224.357 313.317 210.991 303.428C209.352 320.504 207.821 335.635 206.578 350.802C206.452 352.441 207.586 354.819 208.883 355.828C220.61 364.852 232.499 373.661 245.865 383.712Z" fill="#89E35B"/>
<path d="M114.763 231.899C113.16 248.651 111.593 263.8 110.422 278.966C110.278 280.822 111.863 283.47 113.412 284.659C124.635 293.251 136.055 301.573 149.295 311.39C150.916 294.368 152.447 279.291 153.69 264.196C153.816 262.575 152.628 260.197 151.331 259.188C139.586 250.236 127.697 241.518 114.763 231.899Z" fill="#89E35B"/>
<path d="M197.445 347.218C199.012 330.826 200.543 316.56 201.588 302.257C201.768 299.717 200.687 295.989 198.904 294.584C187.538 285.667 175.811 277.237 162.805 267.618C161.202 284.406 159.635 299.519 158.464 314.65C158.32 316.488 159.761 319.117 161.256 320.27C172.712 329.061 184.385 337.563 197.445 347.218Z" fill="#89E35B"/>
<path d="M266.274 143.347C252.386 150.138 240.515 156.136 228.446 161.684C226.284 162.675 222.628 162.963 220.772 161.738C208.883 153.903 197.283 145.563 184.115 136.34C198.255 129.423 210.865 123.118 223.618 117.174C225.167 116.454 228.014 116.886 229.545 117.913C241.362 125.874 253.034 134.124 266.274 143.347Z" fill="#89E35B"/>
<path d="M135.461 102.35C149.673 95.3966 162.031 89.1821 174.568 83.3999C176.369 82.5713 179.612 82.9496 181.341 84.1205C193.14 92.0642 204.704 100.368 217.746 109.537C203.768 116.382 191.212 122.686 178.441 128.558C176.693 129.369 173.487 128.666 171.704 127.478C160.121 119.714 148.737 111.626 135.461 102.35Z" fill="#89E35B"/>
<path d="M314.928 177.265C300.986 184.092 288.647 190.271 276.145 196.071C274.29 196.935 271.066 196.809 269.372 195.693C257.556 187.803 245.955 179.535 232.679 170.24C247.054 163.215 259.843 156.767 272.867 150.804C274.47 150.066 277.604 151.417 279.478 152.678C290.808 160.333 301.977 168.241 314.928 177.265Z" fill="#89E35B"/>
<path d="M186.853 77.2215C200.957 70.3225 213.333 64.1081 225.906 58.2899C227.707 57.4613 230.932 57.7855 232.661 58.9384C244.514 66.8821 256.132 75.186 269.192 84.3186C255.016 91.2536 242.136 97.7022 229.058 103.755C227.563 104.439 224.717 103.556 223.096 102.458C211.513 94.586 200.075 86.4801 186.853 77.2215Z" fill="#89E35B"/>
<path d="M366.321 152.173C352.576 158.892 340.705 164.891 328.655 170.439C326.475 171.447 322.836 171.79 320.999 170.583C309.074 162.765 297.455 154.425 284.143 145.148C298.536 138.105 311.398 131.711 324.385 125.604C325.7 124.992 328.168 125.568 329.519 126.487C341.336 134.575 352.991 142.825 366.321 152.173Z" fill="#89E35B"/>
<path d="M235.579 111.158C249.54 104.331 261.41 98.3868 273.443 92.7667C275.407 91.8481 278.649 91.3077 280.234 92.3524C292.339 100.35 304.192 108.78 317.666 118.147C303.346 125.154 290.754 131.404 278.037 137.421C276.632 138.087 274.146 138.051 272.885 137.187C260.87 129.009 248.999 120.579 235.579 111.158Z" fill="#89E35B"/>
<path d="M417.695 127.081C403.824 133.872 391.972 139.852 379.903 145.4C377.759 146.391 374.138 146.679 372.319 145.472C360.43 137.637 348.865 129.279 335.464 119.894C349.676 112.941 362.267 106.691 374.967 100.71C376.336 100.062 378.822 100.386 380.155 101.287C392.224 109.393 404.149 117.733 417.695 127.081Z" fill="#89E35B"/>
<path d="M238.641 52.3276C252.584 45.5007 265.157 39.2142 277.911 33.288C279.46 32.5674 282.342 33.2159 283.927 34.2967C295.438 42.0963 306.786 50.1481 320.08 59.4608C305.904 66.3958 293.366 72.6282 280.721 78.5725C279.352 79.221 276.866 78.8607 275.533 77.9421C263.518 69.8002 251.647 61.4242 238.641 52.3276Z" fill="#89E35B"/>
<path d="M368.554 93.253C354.9 99.9358 343.083 105.898 331.05 111.428C328.907 112.401 325.286 112.581 323.431 111.338C311.596 103.502 300.049 95.1804 286.99 86.0298C300.968 79.1849 313.505 72.9164 326.223 67.0082C327.754 66.2876 330.582 66.81 332.113 67.8367C343.858 75.8165 355.44 84.0664 368.554 93.253Z" fill="#89E35B"/>
<path d="M196.886 83.3999C192.293 95.1443 186.799 108.06 182.242 121.299C179.359 129.657 180.17 131.044 188.69 133.62C219.818 143.023 250.945 152.516 282.324 161.072C305.453 167.376 328.961 172.222 352.252 177.932C354.576 178.508 356.755 180.292 358.647 181.931C389.756 208.842 423.873 230.872 462.494 245.48C472.149 249.137 482.291 250.632 492.685 249.803C503.258 248.957 512.571 245.156 520.263 237.735C524.658 233.502 524.496 230.872 519.524 227.521C497.584 212.769 475.626 198.052 453.559 183.48C451.236 181.949 450.731 180.4 450.821 177.914C451.308 163.413 451.884 148.895 451.956 134.377C452.01 125.532 451.686 116.634 450.677 107.861C447.399 79.383 432.051 58.596 407.373 45.2124C393.214 37.5389 377.813 32.171 362.952 25.8125C360.574 24.7857 358.034 24.1193 355.693 22.9844C354.828 22.5701 353.783 21.3633 353.765 20.4987C353.603 15.1488 349.172 14.4823 345.659 13.1494C342.146 11.8164 338.418 10.6456 334.977 13.96C334.004 14.8966 332.131 15.347 330.69 15.3109C319.54 15.0407 308.407 14.3022 297.257 14.2842C265.121 14.2302 239.308 27.3256 219.691 52.6157C212.198 62.2887 205.137 72.2318 196.886 83.3999Z" fill="#9E75D1" stroke="#52317A" stroke-width="4" stroke-miterlimit="10"/>
</g>
<defs>
<clipPath id="clip0_533_954">
<rect width="527" height="576" fill="white"/>
</clipPath>
</defs>
</svg>
