<svg width="504" height="392" viewBox="0 0 504 392" fill="none" xmlns="http://www.w3.org/2000/svg">
<g filter="url(#filter0_d_239_694)">
<g filter="url(#filter1_d_239_694)">
<path d="M78.5957 8L47.5 39.7225V319.277L78.5957 351H463.404L494.5 319.277V39.7225L463.404 8H78.5957Z" fill="#84F35C" stroke="#313131" stroke-width="3"/>
<path d="M59.1522 21L27.5 52.9075V334.092L59.1522 366H450.848L482.5 334.092V52.9075L450.848 21H59.1522Z" fill="#84F35C" stroke="#313131" stroke-width="3"/>
<path d="M41.5 33L9.5 65V347L41.5 379H437.5L469.5 347V65L437.5 33H41.5Z" fill="#84F35C" stroke="#313131" stroke-width="3"/>
</g>
<path d="M43.5 214V205.55H84.125V214H43.5ZM43.5 180.2V171.75H84.125V180.2H43.5ZM43.5 197.1V188.65H84.125V197.1H43.5ZM76 205.55V197.1H84.125V205.55H76ZM43.5 188.65V180.2H51.625V188.65H43.5Z" fill="#313131"/>
<path d="M86.4 214V171.75H94.525V214H86.4ZM94.525 197.1V188.65H118.9V197.1H94.525ZM94.525 180.2V171.75H118.9V180.2H94.525ZM118.9 214V171.75H127.025V214H118.9Z" fill="#313131"/>
<path d="M129.3 214V171.75H137.425V214H129.3ZM137.425 214V205.55H169.925V214H137.425Z" fill="#313131"/>
<path d="M172.2 214V171.75H180.325V214H172.2ZM180.39 197.1V188.65H212.89V197.1H180.39ZM180.39 180.2V171.75H212.89V180.2H180.39ZM180.39 214V205.55H212.89V214H180.39Z" fill="#313131"/>
<path d="M215.1 171.75H223.225V197.1H215.1V171.75ZM215.1 205.55H223.225V214H215.1V205.55Z" fill="#313131"/>
<path d="M243.898 214V205.55H284.523V214H243.898ZM243.898 180.2V171.75H284.523V180.2H243.898ZM243.898 197.1V188.65H284.523V197.1H243.898ZM276.398 205.55V197.1H284.523V205.55H276.398ZM243.898 188.65V180.2H252.023V188.65H243.898Z" fill="#313131"/>
<path d="M286.798 214V171.75H294.923V214H286.798ZM294.923 197.1V188.65H319.298V197.1H294.923ZM294.923 180.2V171.75H319.298V180.2H294.923ZM319.298 214V171.75H327.423V214H319.298Z" fill="#313131"/>
<path d="M329.698 214V171.75H337.823V214H329.698ZM337.823 214V205.55H370.323V214H337.823Z" fill="#313131"/>
<path d="M372.598 214V171.75H380.723V214H372.598ZM380.788 197.1V188.65H413.288V197.1H380.788ZM380.788 180.2V171.75H413.288V180.2H380.788ZM380.788 214V205.55H413.288V214H380.788Z" fill="#313131"/>
<path d="M415.498 171.75H423.623V197.1H415.498V171.75ZM415.498 205.55H423.623V214H415.498V205.55Z" fill="#313131"/>
<rect x="57" y="275.5" width="141" height="51" fill="#C39DF2" stroke="#313131" stroke-width="3"/>
<rect x="265" y="275.5" width="141" height="51" fill="#C39DF2" stroke="#313131" stroke-width="3"/>
<path d="M97.5 302V298H114.191V302H97.5ZM104.177 302H107.515V310H104.177V302ZM97.5 290H100.838V298H97.5V290ZM110.853 290H114.191V298H110.853V290Z" fill="#313131"/>
<path d="M115.126 310V290H118.464V310H115.126ZM118.491 302V298H131.844V302H118.491ZM118.491 294V290H131.844V294H118.491ZM118.491 310V306H131.844V310H118.491Z" fill="#313131"/>
<path d="M132.752 310V306H149.444V310H132.752ZM132.752 294V290H149.444V294H132.752ZM132.752 302V298H149.444V302H132.752ZM146.105 306V302H149.444V306H146.105ZM132.752 298V294H136.091V298H132.752Z" fill="#313131"/>
<path d="M318.182 310V294H321.521V310H318.182ZM318.182 294V290H334.874V294H318.182ZM331.536 310V294H334.874V310H331.536Z" fill="#313131"/>
<path d="M335.809 306V294H339.147V306H335.809ZM335.809 310V306H352.5V310H335.809ZM335.809 294V290H352.5V294H335.809ZM349.162 306V294H352.5V306H349.162Z" fill="#313131"/>
</g>
<defs>
<filter id="filter0_d_239_694" x="0" y="1.5" width="504" height="390" filterUnits="userSpaceOnUse" color-interpolation-filters="sRGB">
<feFlood flood-opacity="0" result="BackgroundImageFix"/>
<feColorMatrix in="SourceAlpha" type="matrix" values="0 0 0 0 0 0 0 0 0 0 0 0 0 0 0 0 0 0 127 0" result="hardAlpha"/>
<feOffset dy="3"/>
<feGaussianBlur stdDeviation="4"/>
<feColorMatrix type="matrix" values="0 0 0 0 0 0 0 0 0 0 0 0 0 0 0 0 0 0 0.24 0"/>
<feBlend mode="normal" in2="BackgroundImageFix" result="effect1_dropShadow_239_694"/>
<feBlend mode="normal" in="SourceGraphic" in2="effect1_dropShadow_239_694" result="shape"/>
</filter>
<filter id="filter1_d_239_694" x="0" y="0.5" width="504" height="390" filterUnits="userSpaceOnUse" color-interpolation-filters="sRGB">
<feFlood flood-opacity="0" result="BackgroundImageFix"/>
<feColorMatrix in="SourceAlpha" type="matrix" values="0 0 0 0 0 0 0 0 0 0 0 0 0 0 0 0 0 0 127 0" result="hardAlpha"/>
<feOffset dy="2"/>
<feGaussianBlur stdDeviation="4"/>
<feColorMatrix type="matrix" values="0 0 0 0 0.388235 0 0 0 0 0.388235 0 0 0 0 0.388235 0 0 0 0.2 0"/>
<feBlend mode="normal" in2="BackgroundImageFix" result="effect1_dropShadow_239_694"/>
<feBlend mode="normal" in="SourceGraphic" in2="effect1_dropShadow_239_694" result="shape"/>
</filter>
</defs>
</svg>
