<svg width="508" height="392" viewBox="0 0 508 392" fill="none" xmlns="http://www.w3.org/2000/svg">
<g filter="url(#filter0_d_239_725)">
<g filter="url(#filter1_d_239_725)">
<path d="M82.0957 8L51 39.7225V319.277L82.0957 351H466.904L498 319.277V39.7225L466.904 8H82.0957Z" fill="#C39DF2" stroke="#313131" stroke-width="3"/>
<path d="M59.6522 21L28 52.9075V334.092L59.6522 366H451.348L483 334.092V52.9075L451.348 21H59.6522Z" fill="#C39DF2" stroke="#313131" stroke-width="3"/>
<path d="M42 33L10 65V347L42 379H438L470 347V65L438 33H42Z" fill="#C39DF2" stroke="#313131" stroke-width="3"/>
</g>
<path d="M73 213.34V204.765H114.353V213.34H73ZM73 179.037V170.462H114.353V179.037H73ZM81.2706 196.189V187.613H114.353V196.189H81.2706ZM106.082 187.613V179.037H114.353V187.613H106.082ZM73 204.765V196.189H81.2706V204.765H73Z" fill="#313131"/>
<path d="M116.669 179.037V170.462H158.022V179.037H116.669ZM116.669 196.189V187.613H158.022V196.189H116.669ZM149.751 204.765V196.189H158.022V204.765H149.751ZM116.669 187.613V179.037H124.939V187.613H116.669ZM116.735 213.34V204.765H149.817V213.34H116.735Z" fill="#313131"/>
<path d="M195.339 170.66H201.955L175.953 213.34H169.336L195.339 170.66ZM172.446 192.363H170.858C165.388 192.363 162.653 189.46 162.653 183.655V178.708C162.653 172.903 165.388 170 170.858 170H172.446C177.915 170 180.65 172.903 180.65 178.708V183.655C180.65 189.46 177.915 192.363 172.446 192.363ZM169.402 186.954C169.402 187.305 169.513 187.613 169.733 187.877C169.998 188.141 170.307 188.273 170.659 188.273H172.711C173.063 188.273 173.35 188.141 173.571 187.877C173.835 187.613 173.968 187.305 173.968 186.954V175.343C173.968 174.992 173.835 174.684 173.571 174.42C173.35 174.156 173.063 174.024 172.711 174.024H170.659C170.307 174.024 169.998 174.156 169.733 174.42C169.513 174.684 169.402 174.992 169.402 175.343V186.954ZM200.301 191.637C205.771 191.637 208.506 194.54 208.506 200.345V205.292C208.506 211.097 205.771 214 200.301 214H198.713C193.244 214 190.509 211.097 190.509 205.292V200.345C190.509 194.54 193.244 191.637 198.713 191.637H200.301ZM201.823 208.591V196.981C201.823 196.629 201.691 196.321 201.426 196.057C201.206 195.793 200.919 195.661 200.566 195.661H198.515C198.162 195.661 197.853 195.793 197.589 196.057C197.368 196.321 197.258 196.629 197.258 196.981V208.591C197.258 208.943 197.368 209.25 197.589 209.514C197.853 209.778 198.162 209.91 198.515 209.91H200.566C200.919 209.91 201.206 209.778 201.426 209.514C201.691 209.25 201.823 208.943 201.823 208.591Z" fill="#313131"/>
<path d="M223.639 196.189V187.613H248.451V196.189H223.639Z" fill="#313131"/>
<path d="M269.494 179.037V170.462H310.847V179.037H269.494ZM269.494 196.189V187.613H310.847V196.189H269.494ZM302.577 204.765V196.189H310.847V204.765H302.577ZM269.494 187.613V179.037H277.765V187.613H269.494ZM269.56 213.34V204.765H302.643V213.34H269.56Z" fill="#313131"/>
<path d="M313.163 204.765V179.037H321.434V204.765H313.163ZM313.163 213.34V204.765H354.516V213.34H313.163ZM313.163 179.037V170.462H354.516V179.037H313.163ZM346.246 204.765V179.037H354.516V204.765H346.246ZM321.434 204.765V196.189H329.704V204.765H321.434ZM337.975 187.613V179.037H346.246V187.613H337.975ZM329.704 196.189V187.613H337.975V196.189H329.704Z" fill="#313131"/>
<path d="M391.833 170.66H398.45L372.447 213.34H365.83L391.833 170.66ZM368.94 192.363H367.352C361.883 192.363 359.148 189.46 359.148 183.655V178.708C359.148 172.903 361.883 170 367.352 170H368.94C374.41 170 377.145 172.903 377.145 178.708V183.655C377.145 189.46 374.41 192.363 368.94 192.363ZM365.897 186.954C365.897 187.305 366.007 187.613 366.227 187.877C366.492 188.141 366.801 188.273 367.154 188.273H369.205C369.558 188.273 369.844 188.141 370.065 187.877C370.33 187.613 370.462 187.305 370.462 186.954V175.343C370.462 174.992 370.33 174.684 370.065 174.42C369.844 174.156 369.558 174.024 369.205 174.024H367.154C366.801 174.024 366.492 174.156 366.227 174.42C366.007 174.684 365.897 174.992 365.897 175.343V186.954ZM396.796 191.637C402.265 191.637 405 194.54 405 200.345V205.292C405 211.097 402.265 214 396.796 214H395.208C389.738 214 387.003 211.097 387.003 205.292V200.345C387.003 194.54 389.738 191.637 395.208 191.637H396.796ZM398.317 208.591V196.981C398.317 196.629 398.185 196.321 397.92 196.057C397.7 195.793 397.413 195.661 397.06 195.661H395.009C394.656 195.661 394.347 195.793 394.083 196.057C393.862 196.321 393.752 196.629 393.752 196.981V208.591C393.752 208.943 393.862 209.25 394.083 209.514C394.347 209.778 394.656 209.91 395.009 209.91H397.06C397.413 209.91 397.7 209.778 397.92 209.514C398.185 209.25 398.317 208.943 398.317 208.591Z" fill="#313131"/>
<rect x="50.5" y="275.5" width="141" height="51" fill="#84F35C" stroke="#313131" stroke-width="3"/>
<rect x="265.5" y="275.5" width="141" height="51" fill="#84F35C" stroke="#313131" stroke-width="3"/>
<path d="M90 302V298H107.346V302H90ZM96.9384 302H100.408V310H96.9384V302ZM90 290H93.4692V298H90V290ZM103.877 290H107.346V298H103.877V290Z" fill="#313131"/>
<path d="M108.317 310V290H111.787V310H108.317ZM111.814 302V298H125.691V302H111.814ZM111.814 294V290H125.691V294H111.814ZM111.814 310V306H125.691V310H111.814Z" fill="#313131"/>
<path d="M126.635 310V306H143.981V310H126.635ZM126.635 294V290H143.981V294H126.635ZM126.635 302V298H143.981V302H126.635ZM140.511 306V302H143.981V306H140.511ZM126.635 298V294H130.104V298H126.635Z" fill="#313131"/>
<path d="M319.337 310V294H322.806V310H319.337ZM319.337 294V290H336.683V294H319.337ZM333.213 310V294H336.683V310H333.213Z" fill="#313131"/>
<path d="M337.654 306V294H341.123V306H337.654ZM337.654 310V306H355V310H337.654ZM337.654 294V290H355V294H337.654ZM351.531 306V294H355V306H351.531Z" fill="#313131"/>
</g>
<defs>
<filter id="filter0_d_239_725" x="0.5" y="1.5" width="507" height="390" filterUnits="userSpaceOnUse" color-interpolation-filters="sRGB">
<feFlood flood-opacity="0" result="BackgroundImageFix"/>
<feColorMatrix in="SourceAlpha" type="matrix" values="0 0 0 0 0 0 0 0 0 0 0 0 0 0 0 0 0 0 127 0" result="hardAlpha"/>
<feOffset dy="3"/>
<feGaussianBlur stdDeviation="4"/>
<feColorMatrix type="matrix" values="0 0 0 0 0 0 0 0 0 0 0 0 0 0 0 0 0 0 0.24 0"/>
<feBlend mode="normal" in2="BackgroundImageFix" result="effect1_dropShadow_239_725"/>
<feBlend mode="normal" in="SourceGraphic" in2="effect1_dropShadow_239_725" result="shape"/>
</filter>
<filter id="filter1_d_239_725" x="0.5" y="0.5" width="507" height="390" filterUnits="userSpaceOnUse" color-interpolation-filters="sRGB">
<feFlood flood-opacity="0" result="BackgroundImageFix"/>
<feColorMatrix in="SourceAlpha" type="matrix" values="0 0 0 0 0 0 0 0 0 0 0 0 0 0 0 0 0 0 127 0" result="hardAlpha"/>
<feOffset dy="2"/>
<feGaussianBlur stdDeviation="4"/>
<feColorMatrix type="matrix" values="0 0 0 0 0.388235 0 0 0 0 0.388235 0 0 0 0 0.388235 0 0 0 0.2 0"/>
<feBlend mode="normal" in2="BackgroundImageFix" result="effect1_dropShadow_239_725"/>
<feBlend mode="normal" in="SourceGraphic" in2="effect1_dropShadow_239_725" result="shape"/>
</filter>
</defs>
</svg>
